<?xml version="1.0" standalone="no"?>
<!DOCTYPE svg PUBLIC "-//W3C//DTD SVG 20010904//EN"
 "http://www.w3.org/TR/2001/REC-SVG-20010904/DTD/svg10.dtd">
<svg version="1.0" xmlns="http://www.w3.org/2000/svg"
 width="275.000000pt" height="251.000000pt" viewBox="0 0 275.000000 251.000000"
 preserveAspectRatio="xMidYMid meet">
<metadata>
Created by potrace 1.15, written by Peter Selinger 2001-2017
</metadata>
<g transform="translate(0.000000,251.000000) scale(0.100000,-0.100000)"
fill="#000000" stroke="none">
<path d="M60 2220 l0 -240 120 0 120 0 0 120 0 120 120 0 120 0 0 -360 0 -360
-120 0 -120 0 0 -120 0 -120 360 0 360 0 0 120 0 120 -120 0 -120 0 0 360 0
360 120 0 120 0 0 -120 0 -120 120 0 120 0 0 240 0 240 -600 0 -600 0 0 -240z"/>
<path d="M1500 2100 l0 -120 480 0 480 0 0 -840 0 -840 -1080 0 -1080 0 0 360
0 360 -120 0 -120 0 0 -480 0 -480 1320 0 1320 0 0 1080 0 1080 -600 0 -600 0
0 -120z"/>
</g>
</svg>
