<?xml version="1.0" encoding="utf-8"?>
<!-- Generator: Adobe Illustrator 22.1.0, SVG Export Plug-In . SVG Version: 6.00 Build 0)  -->
<svg version="1.1" id="Layer_1" xmlns="http://www.w3.org/2000/svg" xmlns:xlink="http://www.w3.org/1999/xlink" x="0px" y="0px"
	 viewBox="0 0 435 435" style="enable-background:new 0 0 435 435;" xml:space="preserve">
<g>
	<path d="M357.9,361h-45c-3.9,0-7-3.1-7-7V81c0-3.9,3.1-7,7-7h45c3.9,0,7,3.1,7,7v273C364.9,357.9,361.8,361,357.9,361z M319.9,347
		h31V88h-31V347z"/>
</g>
<g>
	<path d="M272.9,361h-195c-3.9,0-7-3.1-7-7V81c0-3.9,3.1-7,7-7h195c3.9,0,7,3.1,7,7v71.5c0,3.9-3.1,7-7,7s-7-3.1-7-7V88h-181v259
		h181v-64.5c0-3.9,3.1-7,7-7s7,3.1,7,7V354C279.9,357.9,276.8,361,272.9,361z"/>
</g>
<g>
	<path d="M394.9,407.5h-354c-7.2,0-13-5.8-13-13v-354c0-7.2,5.8-13,13-13h354c7.2,0,13,5.8,13,13v354
		C407.9,401.7,402.1,407.5,394.9,407.5z M47.9,387.5h340v-340h-340V387.5z"/>
</g>
<g>
	<path d="M203.1,205.6v2.9c0,25.4-9.2,31.3-22.8,31.3c-5.1,0-9.7-1-12.5-2.6c-2.5-1.4-2.9-3.6-1.9-6s3.2-3.4,5.9-2.3
		c2.8,1.1,5.8,1.7,9.1,1.7c7.5,0,11.4-3.9,12.1-15.7c-2.8,3.3-8,5-12.9,5c-11.2,0-18-7.3-18-18.5v-1.2c0-10.7,7.7-18.9,20.4-18.9
		C197.2,181.3,203.1,190.9,203.1,205.6z M172.1,200.5v0.5c0,6.7,3.2,9.9,10.2,9.9c7.3,0,10.5-4.4,10.5-9.7v-0.8
		c0-6.2-3.5-9.9-10.1-9.9C175.7,190.5,172.1,194.1,172.1,200.5z"/>
	<path d="M228,197.3c0,3.6-2.7,6.3-6.3,6.3s-6.3-2.7-6.3-6.3c0-3.6,2.7-6.3,6.3-6.3S228,193.7,228,197.3z M228,228.4
		c0,3.6-2.7,6.3-6.3,6.3s-6.3-2.7-6.3-6.3c0-3.6,2.7-6.3,6.3-6.3S228,224.8,228,228.4z"/>
	<path d="M277.5,195.8v0.4c0,5.8-3.5,11.5-9.5,13.3c6.1,0.8,11.9,4.6,11.9,12.9v0.8c0,8.9-7.2,16.6-20.9,16.6
		c-6.2,0-11.4-1.3-16.1-4.2c-2.5-1.6-2.7-4.4-1.4-6.6c1.4-2.4,3.8-3,6.2-1.5c3.8,2.4,6.6,3.3,10.5,3.3c8.5,0,11.3-3.5,11.3-8v-0.6
		c0-5.4-3.4-8-11.6-8h-4.2c-2.6,0-3.7-2-3.7-4.4s1.1-4.4,3.7-4.4h3.4c7.1,0,10.4-2.7,10.4-8.2v-0.2c0-4.1-2.8-6.6-9.1-6.6
		c-3.8,0-6.3,1.3-9,3.8c-2,1.8-4.6,1.4-6.2-0.5c-1.6-1.9-1.4-4.4,0.2-6.2c3.4-3.8,8.5-6.1,15.1-6.1
		C271.6,181.3,277.5,188.1,277.5,195.8z"/>
</g>
</svg>
