<?xml version="1.0" encoding="utf-8"?>
<!-- Generator: Adobe Illustrator 22.1.0, SVG Export Plug-In . SVG Version: 6.00 Build 0)  -->
<svg version="1.1" id="Layer_1" xmlns="http://www.w3.org/2000/svg" xmlns:xlink="http://www.w3.org/1999/xlink" x="0px" y="0px"
	 viewBox="0 0 435 435" style="enable-background:new 0 0 435 435;" xml:space="preserve">
<g>
	<path d="M396.5,408.5h-354c-7.2,0-13-5.8-13-13v-354c0-7.2,5.8-13,13-13h354c7.2,0,13,5.8,13,13v354
		C409.5,402.7,403.7,408.5,396.5,408.5z M49.5,388.5h340v-340h-340V388.5z"/>
</g>
<g>
	<path d="M139.5,362h-60c-3.9,0-7-3.1-7-7V82c0-3.9,3.1-7,7-7h60c3.9,0,7,3.1,7,7v273C146.5,358.9,143.4,362,139.5,362z M86.5,348
		h46V89h-46V348z"/>
</g>
<g>
	<path d="M359.5,362h-180c-3.9,0-7-3.1-7-7v-71.5c0-3.9,3.1-7,7-7s7,3.1,7,7V348h166V89h-166v64.5c0,3.9-3.1,7-7,7s-7-3.1-7-7V82
		c0-3.9,3.1-7,7-7h180c3.9,0,7,3.1,7,7v273C366.5,358.9,363.4,362,359.5,362z"/>
</g>
<g>
	<path d="M190.7,189.9L169.9,220h16.5v-13.1c0-3,2.4-4.3,5-4.3c2.6,0,5,1.4,5,4.3V220h4.9c2.5,0,3.4,1.9,3.4,4.2
		c0,2.2-1,4.1-3.4,4.1h-4.9v7.9c0,3-2.4,4.3-5,4.3c-2.6,0-5-1.4-5-4.3v-7.9h-22.4c-4.4,0-6.3-1.6-6.3-5c0-1.1,0.2-2.1,2.5-5.4
		l22.9-33.2c1.6-2.3,4.2-2.5,6.3-1.2C191.6,184.8,192.6,187.2,190.7,189.9z"/>
	<path d="M225.8,198.3c0,3.6-2.7,6.3-6.3,6.3c-3.6,0-6.3-2.7-6.3-6.3c0-3.6,2.7-6.3,6.3-6.3C223.1,191.9,225.8,194.7,225.8,198.3z
		 M225.8,229.4c0,3.6-2.7,6.3-6.3,6.3c-3.6,0-6.3-2.7-6.3-6.3c0-3.6,2.7-6.3,6.3-6.3C223.1,223.1,225.8,225.8,225.8,229.4z"/>
	<path d="M276.7,198.1v0.6c0,3.8-2.2,8.9-7.8,12.1c5,1.5,9.3,6.7,9.3,13v1c0,9.2-6.9,16.1-19.7,16.1c-13.3,0-20.2-6.9-20.2-16.1v-1
		c0-6.3,4.6-11.6,9.4-13c-5.5-2.7-7.9-8.3-7.9-12.1v-0.6c0-8.2,5.8-15.8,18.4-15.8C270.5,182.3,276.7,189.9,276.7,198.1z
		 M248.8,223.7v0.4c0,5,3.8,7.8,9.6,7.8c5.7,0,9.3-2.9,9.3-7.8v-0.4c0-5.7-4.2-8.2-9.3-8.2S248.8,217.8,248.8,223.7z M250.3,198.7
		v0.4c0,5.1,4.2,7.4,8.1,7.4c4,0,7.9-2.3,7.9-7.4v-0.4c0-5-3.3-7.5-8-7.5C253.8,191.1,250.3,193.7,250.3,198.7z"/>
</g>
</svg>
