<?xml version="1.0" encoding="utf-8"?>
<!-- Generator: Adobe Illustrator 22.1.0, SVG Export Plug-In . SVG Version: 6.00 Build 0)  -->
<svg version="1.1" id="Layer_1" xmlns="http://www.w3.org/2000/svg" xmlns:xlink="http://www.w3.org/1999/xlink" x="0px" y="0px"
	 viewBox="0 0 435 435" style="enable-background:new 0 0 435 435;" xml:space="preserve">
<g>
	<g>
		<path d="M302.9,198.2c-4.1-4.2-9.2-6.4-14.7-8.1c-11.8-3.7-23.9-4.4-36.1-4.1c-3.1,0.1-5.2-0.7-7.2-3.2
			c-8.5-10.7-17.1-21.3-25.9-31.8c-2.2-2.6-2.7-4.7-1.5-8c3.9-10.7,6.4-21.7,6.2-33.2c-0.3-7.6-0.1-15.3-3.5-22.5
			c-4.9-10.3-17-11.5-23.9-2.5c-2.9,3.8-4.4,8.2-5.2,12.8c-2.6,17.2,1.4,33,9.6,48c1.4,2.6,1.7,4.7,0.5,7.4
			c-5.7,13.9-12,27.4-18.9,40.7c-1.3,2.5-3,4.1-5.7,5.1c-10.4,3.7-20.2,8.6-28.9,15.5c-8.9,7.2-17,15.1-20,26.7
			c-3,11.6,5.8,20.3,17.4,17.4c7.3-1.8,12.7-6.3,17.4-11.9c9.3-11,16.8-23.1,23.8-35.6c1.5-2.7,3.4-4.2,6.3-5
			c15.1-4.3,30.6-6.5,46.2-7.8c2.8-0.3,4.6,0.8,6.5,2.7c8.3,8.5,17,16.6,28.2,21c8.7,3.4,17.6,4.1,26-0.7
			C309,216.2,310.4,205.8,302.9,198.2z M148.4,244c-2.3,2-5.8,4.7-8.3,2.5c-2.4-2.1,0.4-5.6,1.9-8c6.1-9.9,15-16.7,25.1-22.1
			c0.5-0.3,1.2-0.1,2.8-0.2C163.1,226.4,157.3,236.4,148.4,244z M203.3,98.2c0.6-2.7,1.2-6.7,4.1-6.7c3.3,0,3.3,4.2,3.5,6.7
			c1.3,11.6,1.1,23.2-3.1,35.2C203.3,121.5,200.7,110.1,203.3,98.2z M196.9,192.5c5-10.9,9.7-21.1,14.6-31.8
			c7.1,8.8,13.8,17.1,20.9,26.1C220.2,187.9,208.9,190,196.9,192.5z M295.1,209.3c-0.7,2.6-3.8,2.8-6.3,3c-4.6,0.5-8.9-0.4-13.1-2.5
			c-5.6-2.9-10.5-6.7-16.1-11.8c11.7,0.4,21.8,1.3,31.2,6.1C292.9,205.2,296,206.4,295.1,209.3z"/>
	</g>
	<g>
		<g>
			<path d="M214.8,299.1h-8.5v39.5h8.5c11.7,0,16.2-4.7,16.2-19.1v-1.4C231,303.8,226.4,299.1,214.8,299.1z"/>
		</g>
		<g>
			<path d="M302.5,274.1h-170c-5.5,0-10,4.5-10,10v70c0,5.5,4.5,10,10,10h170c5.5,0,10-4.5,10-10v-70
				C312.5,278.6,308,274.1,302.5,274.1z M186.8,308.1c0,9.3-6.4,17.3-19.7,17.3h-11.5v18c0,3-2.4,4.4-5.1,4.4s-5.1-1.4-5.1-4.4
				v-46.2c0-5,1.7-6.6,6.8-6.6h14.9c13.8,0,19.7,7,19.7,16.5V308.1z M241.3,320.4c0,19.3-8.6,26.9-25.2,26.9H203
				c-5.1,0-6.8-1.6-6.8-6.6v-43.5c0-5,1.7-6.6,6.8-6.6h13.2c16.5,0,25.2,7.6,25.2,26.9V320.4z M286,299.1h-23.7v16.1h22
				c2.5,0,3.6,2,3.6,4.3s-1.1,4.3-3.6,4.3h-22v19.6c0,3-2.4,4.4-5.1,4.4s-5.1-1.4-5.1-4.4v-46.2c0-5,1.7-6.6,6.8-6.6H286
				c2.5,0,3.6,2,3.6,4.3S288.5,299.1,286,299.1z"/>
		</g>
		<g>
			<path d="M166.6,299h-11v17.7h10.1c6.7,0,10.8-2.2,10.8-8.9V307C176.5,300.7,172.4,299,166.6,299z"/>
		</g>
	</g>
</g>
<g>
	<path d="M367.5,123.7h-69.2c-7.2,0-13-5.8-13-13V41.5c0-4,2.4-7.7,6.2-9.2c3.7-1.5,8-0.7,10.9,2.2l72.2,72.2
		c2.9,2.9,3.7,7.2,2.2,10.9C375.2,121.3,371.5,123.7,367.5,123.7z M305.3,103.7h38.1l-38.1-38.1V103.7z"/>
</g>
<g>
	<path d="M364.5,411.5h-294c-7.2,0-13-5.8-13-13v-354c0-7.2,5.8-13,13-13h224.8c2.7,0,5.2,1.1,7.1,2.9l72.2,72.2
		c1.9,1.9,2.9,4.4,2.9,7.1v284.8C377.5,405.7,371.7,411.5,364.5,411.5z M77.5,391.5h280V117.9l-66.4-66.4H77.5V391.5z"/>
</g>
</svg>
