<?xml version="1.0" standalone="no"?>
<!DOCTYPE svg PUBLIC "-//W3C//DTD SVG 20010904//EN"
 "http://www.w3.org/TR/2001/REC-SVG-20010904/DTD/svg10.dtd">
<svg version="1.0" xmlns="http://www.w3.org/2000/svg"
 width="1187.000000pt" height="855.000000pt" viewBox="0 0 1187.000000 855.000000"
 preserveAspectRatio="xMidYMid meet">

<g transform="translate(0.000000,855.000000) scale(0.100000,-0.100000)"
fill="#000000" stroke="none">
<path d="M4293 7433 c9 -2 25 -2 35 0 9 3 1 5 -18 5 -19 0 -27 -2 -17 -5z"/>
<path d="M4508 7423 c7 -3 16 -2 19 1 4 3 -2 6 -13 5 -11 0 -14 -3 -6 -6z"/>
<path d="M4593 7423 c9 -2 25 -2 35 0 9 3 1 5 -18 5 -19 0 -27 -2 -17 -5z"/>
<path d="M4808 7413 c7 -3 16 -2 19 1 4 3 -2 6 -13 5 -11 0 -14 -3 -6 -6z"/>
<path d="M4878 7413 c7 -3 16 -2 19 1 4 3 -2 6 -13 5 -11 0 -14 -3 -6 -6z"/>
<path d="M5113 7403 c9 -2 25 -2 35 0 9 3 1 5 -18 5 -19 0 -27 -2 -17 -5z"/>
<path d="M3778 7393 c6 -2 18 -2 25 0 6 3 1 5 -13 5 -14 0 -19 -2 -12 -5z"/>
<path d="M5338 7393 c12 -2 30 -2 40 0 9 3 -1 5 -23 4 -22 0 -30 -2 -17 -4z"/>
<path d="M3678 7383 c6 -2 18 -2 25 0 6 3 1 5 -13 5 -14 0 -19 -2 -12 -5z"/>
<path d="M5653 7383 c9 -2 23 -2 30 0 6 3 -1 5 -18 5 -16 0 -22 -2 -12 -5z"/>
<path d="M3580 7376 c0 -2 7 -7 16 -10 8 -3 12 -2 9 4 -6 10 -25 14 -25 6z"/>
<path d="M5818 7373 c7 -3 16 -2 19 1 4 3 -2 6 -13 5 -11 0 -14 -3 -6 -6z"/>
<path d="M5898 7373 c12 -2 30 -2 40 0 9 3 -1 5 -23 4 -22 0 -30 -2 -17 -4z"/>
<path d="M6133 7363 c9 -2 23 -2 30 0 6 3 -1 5 -18 5 -16 0 -22 -2 -12 -5z"/>
<path d="M6443 7353 c9 -2 23 -2 30 0 6 3 -1 5 -18 5 -16 0 -22 -2 -12 -5z"/>
<path d="M3298 7343 c6 -2 18 -2 25 0 6 3 1 5 -13 5 -14 0 -19 -2 -12 -5z"/>
<path d="M6703 7343 c9 -2 23 -2 30 0 6 3 -1 5 -18 5 -16 0 -22 -2 -12 -5z"/>
<path d="M3198 7333 c7 -3 16 -2 19 1 4 3 -2 6 -13 5 -11 0 -14 -3 -6 -6z"/>
<path d="M6948 7333 c12 -2 30 -2 40 0 9 3 -1 5 -23 4 -22 0 -30 -2 -17 -4z"/>
<path d="M7203 7323 c15 -2 37 -2 50 0 12 2 0 4 -28 4 -27 0 -38 -2 -22 -4z"/>
<path d="M3013 7313 c9 -2 23 -2 30 0 6 3 -1 5 -18 5 -16 0 -22 -2 -12 -5z"/>
<path d="M7468 7313 c12 -2 32 -2 45 0 12 2 2 4 -23 4 -25 0 -35 -2 -22 -4z"/>
<path d="M2900 7301 c0 -5 9 -7 20 -4 11 3 20 7 20 9 0 2 -9 4 -20 4 -11 0
-20 -4 -20 -9z"/>
<path d="M7705 7305 c23 -8 85 -10 85 -3 0 4 -21 8 -47 7 -27 0 -43 -2 -38 -4z"/>
<path d="M7993 7293 c15 -2 37 -2 50 0 12 2 0 4 -28 4 -27 0 -38 -2 -22 -4z"/>
<path d="M2723 7283 c9 -2 23 -2 30 0 6 3 -1 5 -18 5 -16 0 -22 -2 -12 -5z"/>
<path d="M8268 7283 c12 -2 30 -2 40 0 9 3 -1 5 -23 4 -22 0 -30 -2 -17 -4z"/>
<path d="M2618 7273 c7 -3 16 -2 19 1 4 3 -2 6 -13 5 -11 0 -14 -3 -6 -6z"/>
<path d="M8533 7273 c9 -2 25 -2 35 0 9 3 1 5 -18 5 -19 0 -27 -2 -17 -5z"/>
<path d="M2528 7263 c6 -2 18 -2 25 0 6 3 1 5 -13 5 -14 0 -19 -2 -12 -5z"/>
<path d="M8803 7263 c9 -2 25 -2 35 0 9 3 1 5 -18 5 -19 0 -27 -2 -17 -5z"/>
<path d="M2428 7253 c7 -3 16 -2 19 1 4 3 -2 6 -13 5 -11 0 -14 -3 -6 -6z"/>
<path d="M8988 7253 c6 -2 18 -2 25 0 6 3 1 5 -13 5 -14 0 -19 -2 -12 -5z"/>
<path d="M9088 7253 c7 -3 16 -2 19 1 4 3 -2 6 -13 5 -11 0 -14 -3 -6 -6z"/>
<path d="M9293 7243 c9 -2 25 -2 35 0 9 3 1 5 -18 5 -19 0 -27 -2 -17 -5z"/>
<path d="M2238 7233 c7 -3 16 -2 19 1 4 3 -2 6 -13 5 -11 0 -14 -3 -6 -6z"/>
<path d="M9473 7233 c9 -2 23 -2 30 0 6 3 -1 5 -18 5 -16 0 -22 -2 -12 -5z"/>
<path d="M9578 7233 c12 -2 30 -2 40 0 9 3 -1 5 -23 4 -22 0 -30 -2 -17 -4z"/>
<path d="M2143 7223 c9 -2 25 -2 35 0 9 3 1 5 -18 5 -19 0 -27 -2 -17 -5z"/>
<path d="M9740 7226 c0 -2 9 -6 20 -9 11 -3 20 -1 20 4 0 5 -9 9 -20 9 -11 0
-20 -2 -20 -4z"/>
<path d="M9853 7223 c9 -2 25 -2 35 0 9 3 1 5 -18 5 -19 0 -27 -2 -17 -5z"/>
<path d="M2038 7213 c7 -3 16 -2 19 1 4 3 -2 6 -13 5 -11 0 -14 -3 -6 -6z"/>
<path d="M10073 7213 c9 -2 25 -2 35 0 9 3 1 5 -18 5 -19 0 -27 -2 -17 -5z"/>
<path d="M1948 7203 c6 -2 18 -2 25 0 6 3 1 5 -13 5 -14 0 -19 -2 -12 -5z"/>
<path d="M10368 7203 c18 -2 30 -8 27 -13 -3 -5 -12 -7 -20 -3 -8 3 -15 1 -15
-3 0 -5 -10 -10 -22 -10 -22 -2 -63 -11 -63 -14 0 -1 -9 -3 -20 -4 -46 -6
-261 -59 -271 -67 -6 -5 -13 -7 -15 -4 -3 2 -38 -5 -79 -16 -41 -11 -91 -23
-110 -26 -19 -3 -37 -9 -38 -14 -2 -5 -8 -7 -12 -4 -7 5 -104 -18 -262 -60
-10 -3 -28 -8 -40 -11 -13 -3 -31 -6 -40 -6 -10 1 -20 -3 -23 -8 -3 -5 -12 -7
-19 -4 -8 3 -17 1 -20 -5 -4 -6 -13 -8 -20 -5 -8 3 -17 1 -20 -5 -4 -6 -13 -8
-20 -5 -8 3 -17 1 -20 -5 -4 -6 -13 -8 -20 -5 -8 3 -17 0 -21 -5 -3 -6 -10 -9
-14 -7 -4 3 -32 -2 -62 -10 -30 -8 -66 -17 -81 -19 -15 -2 -46 -9 -70 -16 -24
-7 -52 -14 -63 -16 -11 -2 -38 -8 -59 -14 -43 -12 -148 -14 -271 -5 -95 7
-239 14 -425 21 -74 3 -146 7 -160 10 -14 2 -90 7 -170 10 -80 3 -228 10 -330
15 -102 5 -243 12 -315 16 -71 3 -181 9 -242 13 -74 4 -113 3 -113 -4 0 -6 -4
-5 -8 1 -4 8 -66 14 -172 18 -91 3 -372 17 -625 30 -253 13 -463 22 -467 20
-4 -2 -9 0 -13 6 -4 6 -10 8 -15 5 -8 -5 -600 22 -885 40 -44 3 -150 8 -235
12 -85 3 -195 8 -245 10 -49 2 -209 11 -355 19 -146 8 -289 14 -318 12 -28 -2
-52 0 -52 3 0 5 -125 12 -440 24 -52 3 -124 7 -160 10 -36 3 -135 8 -220 11
-252 10 -312 13 -370 18 -30 4 -122 9 -205 11 -82 3 -220 10 -305 15 -85 5
-156 7 -158 5 -4 -4 27 -547 31 -551 1 -2 236 -19 522 -39 285 -19 519 -36
520 -38 1 -1 7 -144 14 -317 6 -173 14 -349 17 -391 l6 -75 125 -11 c142 -13
174 -27 260 -111 136 -134 219 -341 245 -609 28 -288 -45 -619 -190 -868 -62
-104 -194 -238 -282 -285 l-65 -35 97 -15 c53 -8 99 -18 102 -21 3 -3 -43 2
-102 12 -59 9 -108 16 -109 15 -1 0 8 -207 19 -459 11 -252 18 -460 16 -461
-1 -2 -217 -92 -478 -201 -261 -109 -478 -201 -482 -204 -7 -6 19 -481 27
-489 5 -6 6674 -1472 6695 -1472 8 0 370 355 804 789 l789 789 138 2468 c75
1358 140 2502 142 2542 5 69 4 74 -14 69 -10 -3 -17 -1 -13 4 3 5 -14 8 -38 7
-37 -1 -38 -2 -10 -5z m-5158 -1417 l255 -21 6 -110 c4 -61 7 -122 8 -137 1
-26 1 -26 101 -34 89 -6 106 -10 147 -37 113 -75 210 -272 254 -517 21 -116
18 -507 -5 -635 -20 -109 -82 -346 -94 -356 -7 -6 -1028 133 -1036 142 -2 2
-9 317 -15 699 -6 382 -13 773 -16 868 l-5 173 72 -7 c40 -3 188 -16 328 -28z
m2641 -226 c321 -27 608 -52 637 -56 l54 -6 -7 -142 c-7 -134 -6 -142 11 -142
86 -3 397 -34 404 -41 3 -3 -22 -3 -55 1 -33 3 -91 9 -129 12 l-68 7 23 -25
c13 -13 27 -23 32 -20 4 2 7 0 6 -5 -1 -4 16 -46 38 -93 78 -163 108 -342 108
-650 -1 -184 -6 -265 -31 -455 -7 -59 -24 -142 -56 -278 -30 -126 -35 -138
-53 -133 -11 2 -357 50 -770 107 -412 56 -754 106 -759 110 -14 12 14 1859 28
1859 2 0 266 -22 587 -50z m1274 -400 c25 -5 8 -6 -45 -3 -47 3 -94 9 -105 13
-24 9 92 1 150 -10z m144 -16 c9 -8 -65 -2 -84 6 -13 6 -2 7 30 3 28 -3 52 -7
54 -9z m110 -10 c9 -8 -65 -2 -84 6 -13 6 -2 7 30 3 28 -3 52 -7 54 -9z
m-6329 -1344 c11 -8 7 -9 -15 -4 -37 8 -45 14 -19 14 10 0 26 -5 34 -10z m140
-21 c16 -5 6 -6 -25 -2 -27 3 -61 10 -75 14 -16 5 -6 6 25 2 27 -3 61 -10 75
-14z m130 -19 c41 -9 40 -9 -15 -4 -33 3 -67 10 -75 15 -16 9 3 7 90 -11z
m-1415 -1260 c25 -11 -1 -11 -35 0 -20 6 -21 8 -5 8 11 0 29 -3 40 -8z m79
-18 c3 -5 -8 -6 -25 -4 -16 2 -29 6 -29 8 0 8 49 4 54 -4z m66 -12 c20 -6 21
-8 5 -8 -11 0 -29 3 -40 8 -25 11 1 11 35 0z m132 -25 c104 -21 121 -26 117
-30 -2 -2 -53 7 -114 20 -60 13 -102 23 -93 24 9 1 50 -6 90 -14z m197 -41
c10 -9 -45 -3 -59 6 -11 7 -5 8 20 4 19 -4 37 -8 39 -10z m221 -45 c91 -17
169 -35 173 -39 5 -4 -78 10 -184 31 -106 21 -195 42 -198 45 -3 4 5 4 19 1
14 -3 99 -20 190 -38z m320 -65 c47 -9 89 -20 93 -24 5 -4 -42 3 -104 17 -62
13 -116 27 -119 30 -3 3 6 3 20 0 14 -3 63 -13 110 -23z m295 -60 c76 -15 135
-29 129 -31 -13 -4 -306 55 -313 63 -3 4 5 4 19 1 14 -3 88 -18 165 -33z m285
-59 c58 -13 96 -23 85 -24 -11 0 -67 10 -125 24 -58 13 -96 23 -85 24 11 0 67
-10 125 -24z m198 -39 c35 -8 66 -17 69 -20 7 -7 -33 0 -112 20 -69 16 -35 16
43 0z m156 -37 c5 -4 -8 -4 -29 1 -20 4 -39 11 -43 14 -8 9 62 -5 72 -15z
m119 -20 c31 -7 55 -14 53 -16 -6 -6 -156 27 -156 34 0 3 10 3 23 0 12 -3 48
-11 80 -18z m313 -63 c239 -48 277 -57 272 -62 -2 -1 -120 21 -263 51 -143 29
-253 54 -244 54 8 1 114 -19 235 -43z m362 -80 c8 -9 -62 5 -72 15 -5 4 8 4
29 -1 20 -4 39 -11 43 -14z m86 -17 c5 -4 -8 -4 -29 1 -20 4 -39 11 -43 14 -8
9 62 -5 72 -15z m242 -44 c119 -25 219 -45 222 -45 3 0 3 -2 0 -5 -5 -5 -439
82 -447 90 -7 8 0 7 225 -40z m498 -106 c4 -3 -52 6 -123 20 -71 14 -132 29
-135 32 -4 3 52 -6 123 -20 71 -14 132 -29 135 -32z m171 -30 c61 -12 114 -25
119 -30 4 -4 -54 6 -129 21 -76 16 -140 32 -144 36 -3 4 5 4 19 1 14 -4 75
-16 135 -28z m3565 -42 c-122 -117 -469 -437 -474 -437 -3 0 107 106 246 235
139 129 255 235 258 235 2 0 -11 -15 -30 -33z m-3346 -7 c4 -5 -11 -4 -35 1
-24 6 -46 13 -49 15 -8 9 74 -8 84 -16z m171 -31 c61 -12 114 -26 119 -30 4
-4 -54 6 -130 22 -76 16 -141 32 -144 36 -3 3 6 3 20 0 14 -3 75 -15 135 -28z
m219 -49 c4 -5 -11 -4 -35 1 -24 6 -46 13 -49 15 -8 9 74 -8 84 -16z m100 -20
c4 -5 -11 -4 -35 1 -24 6 -46 13 -49 15 -8 9 74 -8 84 -16z m126 -21 c36 -6
69 -15 73 -19 5 -4 -33 1 -84 11 -51 11 -95 22 -98 26 -3 3 5 3 19 0 14 -3 54
-11 90 -18z m170 -40 c9 -5 1 -6 -20 -2 -19 3 -42 10 -50 14 -9 5 -1 6 20 2
19 -3 42 -10 50 -14z m189 -34 c69 -14 127 -28 130 -31 3 -4 -5 -4 -19 -1 -14
3 -77 16 -140 28 -63 12 -122 26 -130 31 -10 6 -7 7 10 3 14 -3 81 -16 149
-30z m546 -116 c8 -9 -388 72 -398 80 -4 4 82 -11 192 -33 110 -23 202 -44
206 -47z m99 -19 c4 -5 -11 -4 -35 1 -24 6 -46 13 -49 15 -8 9 74 -8 84 -16z
m106 -21 c18 -10 -46 0 -75 12 -13 6 -5 6 20 3 22 -4 47 -10 55 -15z m1073
-143 l62 59 -62 -64 -62 -65 -488 99 c-268 54 -492 102 -496 106 -5 4 214 -38
487 -94 l497 -101 62 60z"/>
<path d="M1753 7183 c9 -2 23 -2 30 0 6 3 -1 5 -18 5 -16 0 -22 -2 -12 -5z"/>
<path d="M7748 6883 c7 -3 16 -2 19 1 4 3 -2 6 -13 5 -11 0 -14 -3 -6 -6z"/>
</g>
</svg>
