<?xml version="1.0" encoding="utf-8"?>
<!-- Generator: Adobe Illustrator 22.1.0, SVG Export Plug-In . SVG Version: 6.00 Build 0)  -->
<svg version="1.1" id="Layer_1" xmlns="http://www.w3.org/2000/svg" xmlns:xlink="http://www.w3.org/1999/xlink" x="0px" y="0px"
	 viewBox="0 0 435 435" style="enable-background:new 0 0 435 435;" xml:space="preserve">
<g>
	<g>
		<g>
			<path d="M169.1,260.4c-1.7,0-3.5-0.4-5-1.3c-3.1-1.8-5-5.1-5-8.7V138.7c0-3.6,1.9-6.9,5-8.7c3.1-1.8,6.9-1.8,10,0l96.8,55.9
				c3.1,1.8,5,5.1,5,8.7s-1.9,6.9-5,8.7l-96.8,55.9C172.6,260,170.8,260.4,169.1,260.4z M179.1,156v77.1l66.8-38.5L179.1,156z"/>
		</g>
		<g>
			<g>
				<path d="M394.5,324.6h-354c-7.2,0-13-5.8-13-13v-234c0-7.2,5.8-13,13-13h354c7.2,0,13,5.8,13,13v234
					C407.5,318.7,401.7,324.6,394.5,324.6z M47.5,304.6h340v-220h-340V304.6z"/>
			</g>
			<g>
				<path d="M102.5,321.6c-3.9,0-7-3.1-7-7v-240c0-3.9,3.1-7,7-7s7,3.1,7,7v240C109.5,318.4,106.4,321.6,102.5,321.6z"/>
			</g>
			<g>
				<path d="M102.5,84.6h-65c-5.5,0-10-4.5-10-10s4.5-10,10-10h65c5.5,0,10,4.5,10,10S108.1,84.6,102.5,84.6z"/>
			</g>
			<g>
				<path d="M102.5,129.6h-65c-3.9,0-7-3.1-7-7s3.1-7,7-7h65c3.9,0,7,3.1,7,7S106.4,129.6,102.5,129.6z"/>
			</g>
			<g>
				<path d="M102.5,177.6h-65c-3.9,0-7-3.1-7-7s3.1-7,7-7h65c3.9,0,7,3.1,7,7S106.4,177.6,102.5,177.6z"/>
			</g>
			<g>
				<path d="M102.5,225.6h-65c-3.9,0-7-3.1-7-7s3.1-7,7-7h65c3.9,0,7,3.1,7,7S106.4,225.6,102.5,225.6z"/>
			</g>
			<g>
				<path d="M102.5,273.6h-65c-3.9,0-7-3.1-7-7s3.1-7,7-7h65c3.9,0,7,3.1,7,7S106.4,273.6,102.5,273.6z"/>
			</g>
			<g>
				<path d="M332.5,321.6c-3.9,0-7-3.1-7-7v-240c0-3.9,3.1-7,7-7s7,3.1,7,7v240C339.5,318.4,336.3,321.6,332.5,321.6z"/>
			</g>
			<g>
				<path d="M397.5,129.6h-65c-3.9,0-7-3.1-7-7s3.1-7,7-7h65c3.9,0,7,3.1,7,7S401.4,129.6,397.5,129.6z"/>
			</g>
			<g>
				<path d="M397.5,177.6h-65c-3.9,0-7-3.1-7-7s3.1-7,7-7h65c3.9,0,7,3.1,7,7S401.4,177.6,397.5,177.6z"/>
			</g>
			<g>
				<path d="M397.5,225.6h-65c-3.9,0-7-3.1-7-7s3.1-7,7-7h65c3.9,0,7,3.1,7,7S401.4,225.6,397.5,225.6z"/>
			</g>
			<g>
				<path d="M397.5,273.6h-65c-3.9,0-7-3.1-7-7s3.1-7,7-7h65c3.9,0,7,3.1,7,7S401.4,273.6,397.5,273.6z"/>
			</g>
			<g>
				<path d="M102.5,324.6h-65c-5.5,0-10-4.5-10-10s4.5-10,10-10h65c5.5,0,10,4.5,10,10S108.1,324.6,102.5,324.6z"/>
			</g>
		</g>
	</g>
	<g>
		<path d="M332.5,377.4H102.5c-3.9,0-7-3.1-7-7s3.1-7,7-7h229.9c3.9,0,7,3.1,7,7S336.3,377.4,332.5,377.4z"/>
	</g>
</g>
</svg>
