<?xml version="1.0" encoding="utf-8"?>
<!-- Generator: Adobe Illustrator 22.1.0, SVG Export Plug-In . SVG Version: 6.00 Build 0)  -->
<svg version="1.1" id="Layer_1" xmlns="http://www.w3.org/2000/svg" xmlns:xlink="http://www.w3.org/1999/xlink" x="0px" y="0px"
	 viewBox="0 0 435 435" style="enable-background:new 0 0 435 435;" xml:space="preserve">
<g>
	<path d="M394.5,411.5h-354c-7.2,0-13-5.8-13-13v-354c0-7.2,5.8-13,13-13h354c7.2,0,13,5.8,13,13v354
		C407.5,405.7,401.7,411.5,394.5,411.5z M47.5,391.5h340v-340h-340V391.5z"/>
</g>
<g>
	<path d="M117.5,111.5h-40c-5.5,0-10-4.5-10-10s4.5-10,10-10h40c5.5,0,10,4.5,10,10S123,111.5,117.5,111.5z"/>
</g>
<g>
	<path d="M238.7,111.5h-40c-5.5,0-10-4.5-10-10s4.5-10,10-10h40c5.5,0,10,4.5,10,10S244.2,111.5,238.7,111.5z"/>
</g>
<g>
	<path d="M359.8,111.5h-40c-5.5,0-10-4.5-10-10s4.5-10,10-10h40c5.5,0,10,4.5,10,10S365.3,111.5,359.8,111.5z"/>
</g>
<g>
	<path d="M277.5,408.5c-3.9,0-7-3.1-7-7v-240c0-3.9,3.1-7,7-7s7,3.1,7,7v240C284.5,405.4,281.4,408.5,277.5,408.5z"/>
</g>
<g>
	<path d="M157.5,408.5c-3.9,0-7-3.1-7-7v-240c0-3.9,3.1-7,7-7s7,3.1,7,7v240C164.5,405.4,161.4,408.5,157.5,408.5z"/>
</g>
<g>
	<path d="M277.5,171.5c-5.5,0-10-4.5-10-10v-120c0-5.5,4.5-10,10-10s10,4.5,10,10v120C287.5,167,283,171.5,277.5,171.5z"/>
</g>
<g>
	<path d="M157.5,171.5c-5.5,0-10-4.5-10-10v-120c0-5.5,4.5-10,10-10s10,4.5,10,10v120C167.5,167,163,171.5,157.5,171.5z"/>
</g>
<g>
	<path d="M397.5,171.5h-360c-5.5,0-10-4.5-10-10s4.5-10,10-10h360c5.5,0,10,4.5,10,10S403,171.5,397.5,171.5z"/>
</g>
<g>
	<path d="M397.5,288.5h-360c-3.9,0-7-3.1-7-7s3.1-7,7-7h360c3.9,0,7,3.1,7,7S401.4,288.5,397.5,288.5z"/>
</g>
</svg>
