<?xml version="1.0" encoding="utf-8"?>
<!-- Generator: Adobe Illustrator 22.1.0, SVG Export Plug-In . SVG Version: 6.00 Build 0)  -->
<svg version="1.1" id="Layer_1" xmlns="http://www.w3.org/2000/svg" xmlns:xlink="http://www.w3.org/1999/xlink" x="0px" y="0px"
	 viewBox="0 0 435 435" style="enable-background:new 0 0 435 435;" xml:space="preserve">
<g>
	<g>
		<path d="M171.1,77.8c2,4.5,1.8,9.7-3.5,12.4l-53.1,26.7v1l53.1,27c5.3,2.6,5.4,7.9,3.5,12.5c-2.1,4.8-6.8,6.6-12.2,3.8l-58.7-30.8
			c-8.1-4.3-9.7-7.4-9.7-12.7c0-5.4,1.6-8.6,9.7-12.9L159.1,74C164.5,71.2,169,73,171.1,77.8z"/>
		<path d="M251.7,55.7L204.9,193c-2,5.8-7.3,6.8-12.4,5.3c-4.8-1.3-7.9-5.4-6.1-10.7l46.6-137.3c2-5.8,7.3-6.8,12.4-5.3
			C250.2,46.3,253.4,50.6,251.7,55.7z"/>
		<path d="M337.8,104.9c8.1,4.3,9.7,7.4,9.7,12.9c0,5.3-1.6,8.4-9.7,12.7l-58.7,30.8c-5.4,2.8-10.1,1-12.2-3.8
			c-2-4.6-1.8-9.9,3.5-12.5l53.1-27v-1l-53.1-26.7c-5.3-2.6-5.4-7.9-3.5-12.4c2.1-4.8,6.6-6.6,12-3.8L337.8,104.9z"/>
	</g>
	<g>
		<g>
			<path d="M197,251.7H84.5c-5.5,0-10-4.5-10-10s4.5-10,10-10H197c5.5,0,10,4.5,10,10S202.5,251.7,197,251.7z"/>
		</g>
		<g>
			<path d="M277.5,297.3h-193c-3.9,0-7-3.1-7-7s3.1-7,7-7h193c3.9,0,7,3.1,7,7S281.4,297.3,277.5,297.3z"/>
		</g>
		<g>
			<path d="M179.9,344.7H84.5c-3.9,0-7-3.1-7-7s3.1-7,7-7h95.4c3.9,0,7,3.1,7,7S183.7,344.7,179.9,344.7z"/>
		</g>
		<g>
			<path d="M221.9,390.6H84.5c-3.9,0-7-3.1-7-7s3.1-7,7-7h137.4c3.9,0,7,3.1,7,7S225.8,390.6,221.9,390.6z"/>
		</g>
		<g>
			<path d="M353.5,297.3h-38c-3.9,0-7-3.1-7-7s3.1-7,7-7h38c3.9,0,7,3.1,7,7S357.4,297.3,353.5,297.3z"/>
		</g>
		<g>
			<path d="M353.5,344.7H221.9c-3.9,0-7-3.1-7-7s3.1-7,7-7h131.6c3.9,0,7,3.1,7,7S357.4,344.7,353.5,344.7z"/>
		</g>
	</g>
</g>
</svg>
