<?xml version="1.0" encoding="utf-8"?>
<!-- Generator: Adobe Illustrator 22.1.0, SVG Export Plug-In . SVG Version: 6.00 Build 0)  -->
<svg version="1.1" id="Layer_1" xmlns="http://www.w3.org/2000/svg" xmlns:xlink="http://www.w3.org/1999/xlink" x="0px" y="0px"
	 viewBox="0 0 435 435" style="enable-background:new 0 0 435 435;" xml:space="preserve">
<g>
	<g>
		<path d="M362.9,366.8H71.8c-5.5,0-10-4.5-10-10s4.5-10,10-10h291.1c5.5,0,10,4.5,10,10S368.4,366.8,362.9,366.8z"/>
	</g>
	<g>
		<g>
			<path d="M219.4,296c-3.9,0-7-3.1-7-7V84.2c0-3.9,3.1-7,7-7s7,3.1,7,7V289C226.4,292.9,223.3,296,219.4,296z"/>
		</g>
		<g>
			<g>
				<path d="M247.2,296c-3.3,0-6.2-2.3-6.9-5.6c-0.7-3.8,1.7-7.5,5.5-8.2L350,261.6l-74.7-23.9c-10.3-3.3-17.3-13.3-17.3-24.8
					c0-11.8,7.5-22.1,18.1-25.1l26.2-7.3l-8.1-7.1c-1.7-1.5-2.6-3.8-2.3-6.1s1.7-4.3,3.7-5.4l14.1-7.3V147
					c0-16.8-9.4-32.2-23.5-38.3l-41.9-18.1c-3.5-1.5-5.2-5.7-3.6-9.2s5.7-5.2,9.2-3.6l41.9,18.1c19.4,8.4,31.9,28.5,31.9,51.1v11.7
					c0,2.6-1.5,5-3.8,6.2l-8.8,4.6l10.2,8.9c1.9,1.7,2.8,4.3,2.2,6.8s-2.5,4.5-5,5.2l-38.7,10.7c-4.6,1.3-7.9,6.1-7.9,11.6
					c0,5.4,3.1,10.1,7.5,11.5l82.2,26.3c5.2,1.7,8.4,6.5,8.1,12.1c-0.3,5.5-4.1,10-9.3,11l-112,22.1C248.1,296,247.6,296,247.2,296z
					 M316.8,158.8L316.8,158.8L316.8,158.8z"/>
			</g>
			<g>
				<path d="M191.7,296c-0.4,0-0.9,0-1.4-0.1l-112-22.1c-5.3-1-9-5.5-9.3-11c-0.3-5.6,2.9-10.5,8.1-12.1l82.2-26.3
					c4.4-1.4,7.5-6.2,7.5-11.5c0-5.5-3.2-10.3-7.9-11.6l-38.7-10.7c-2.5-0.7-4.4-2.7-5-5.2s0.3-5.1,2.2-6.8l10.2-8.9l-8.8-4.6
					c-2.3-1.2-3.8-3.6-3.8-6.2V147c0-22.7,12.5-42.7,31.9-51.1l41.9-18.1c3.5-1.5,7.7,0.1,9.2,3.6s-0.1,7.7-3.6,9.2l-41.9,18.1
					c-14,6.1-23.5,21.5-23.5,38.3v7.5l14.1,7.3c2.1,1.1,3.4,3.1,3.7,5.4s-0.6,4.6-2.3,6.1l-8.1,7.1l26.2,7.3
					c10.7,3,18.1,13.3,18.1,25.1c0,11.5-6.9,21.5-17.3,24.8l-74.7,23.9L193,282.2c3.8,0.7,6.3,4.4,5.5,8.2
					C197.9,293.7,195,296,191.7,296z"/>
			</g>
		</g>
	</g>
</g>
</svg>
