<?xml version="1.0" encoding="utf-8"?>
<!-- Generator: Adobe Illustrator 22.1.0, SVG Export Plug-In . SVG Version: 6.00 Build 0)  -->
<svg version="1.1" id="Layer_1" xmlns="http://www.w3.org/2000/svg" xmlns:xlink="http://www.w3.org/1999/xlink" x="0px" y="0px"
	 viewBox="0 0 435 435" style="enable-background:new 0 0 435 435;" xml:space="preserve">
<g>
	<g>
		<path d="M205,265h-15c-5.5,0-10-4.5-10-10s4.5-10,10-10h15c35.8,0,65-29.2,65-65s-29.2-65-65-65H105c-35.8,0-65,29.2-65,65
			s29.2,65,65,65h15c5.5,0,10,4.5,10,10s-4.5,10-10,10h-15c-46.9,0-85-38.1-85-85s38.1-85,85-85h100c46.9,0,85,38.1,85,85
			S251.9,265,205,265z"/>
	</g>
	<g>
		<path d="M330,340H230c-46.9,0-85-38.1-85-85s38.1-85,85-85h15c5.5,0,10,4.5,10,10s-4.5,10-10,10h-15c-35.8,0-65,29.2-65,65
			s29.2,65,65,65h100c35.8,0,65-29.2,65-65s-29.2-65-65-65h-15c-5.5,0-10-4.5-10-10s4.5-10,10-10h15c46.9,0,85,38.1,85,85
			S376.9,340,330,340z"/>
	</g>
</g>
</svg>
