<?xml version="1.0" standalone="no"?>
<!DOCTYPE svg PUBLIC "-//W3C//DTD SVG 20010904//EN"
 "http://www.w3.org/TR/2001/REC-SVG-20010904/DTD/svg10.dtd">
<svg version="1.0" xmlns="http://www.w3.org/2000/svg"
 width="61.000000pt" height="49.000000pt" viewBox="0 0 61.000000 49.000000"
 preserveAspectRatio="xMidYMid meet">

<g transform="translate(0.000000,49.000000) scale(0.100000,-0.100000)"
fill="#000000" stroke="none">
<path d="M130 300 c-12 -12 -20 -33 -20 -55 0 -62 59 -95 106 -61 15 12 17 17
6 28 -11 11 -14 10 -21 0 -5 -8 -19 -12 -32 -10 -20 2 -25 10 -27 41 -4 43 17
58 51 38 29 -18 50 5 23 25 -28 20 -63 17 -86 -6z"/>
<path d="M270 305 c-20 -24 -4 -63 30 -70 16 -4 32 -11 36 -16 10 -16 -26 -22
-52 -9 -31 17 -38 10 -18 -18 27 -39 111 -20 103 24 -2 10 -21 27 -41 37 -41
20 -49 37 -18 37 11 0 20 -4 20 -10 0 -5 7 -10 15 -10 18 0 20 21 3 38 -17 17
-63 15 -78 -3z"/>
<path d="M385 298 c47 -146 62 -159 93 -76 33 91 35 98 18 98 -8 0 -21 -20
-31 -50 -9 -27 -18 -50 -21 -50 -2 0 -10 21 -17 48 -9 29 -20 48 -32 50 -14 3
-16 -1 -10 -20z"/>
</g>
</svg>
