<?xml version="1.0" encoding="utf-8"?>
<!-- Generator: Adobe Illustrator 22.1.0, SVG Export Plug-In . SVG Version: 6.00 Build 0)  -->
<svg version="1.1" id="Layer_1" xmlns="http://www.w3.org/2000/svg" xmlns:xlink="http://www.w3.org/1999/xlink" x="0px" y="0px"
	 viewBox="0 0 435 435" style="enable-background:new 0 0 435 435;" xml:space="preserve">
<g>
	<g>
		<g>
			<g>
				<path d="M157.6,336.3v0.2c0,5-1.7,6.6-6.8,6.6h-22.7v0.2c0,5.7,3.6,9.7,10.7,9.7c4.5,0,7.5-0.6,11-2.2c2.2-1,4.4-0.2,5.4,2
					c1,2.2,0.4,4.6-1.7,5.6c-4,2-8.6,3-15.1,3c-12.7,0-20.1-7-20.1-20.9v-2.1c0-13.8,7.6-21,20-21
					C149.8,317.4,157.6,324.2,157.6,336.3z M128.2,335v0.6H148v-0.8c0-5.2-2.7-9.1-9.7-9.1C131.5,325.7,128.2,329.6,128.2,335z"/>
			</g>
			<g>
				<path d="M189.3,303.9c13.8,0,19.7,7,19.7,16.5v1.1c0,9.3-6.4,17.3-19.7,17.3h-11.5v18c0,3-2.4,4.4-5.1,4.4s-5.1-1.4-5.1-4.4
					v-46.3c0-5,1.7-6.6,6.8-6.6H189.3z M177.8,330.2H188c6.7,0,10.8-2.2,10.8-8.9v-0.9c0-6.3-4.1-8-9.9-8h-11V330.2z"/>
			</g>
			<g>
				<path d="M227.6,307.8v29.3c0,11.3,3.8,15.2,12.1,15.2c8.4,0,12.1-3.8,12.1-15.2v-29.3c0-3,2.4-4.4,5.1-4.4s5.1,1.4,5.1,4.4V337
					c0,18.9-7.9,24.6-22.4,24.6c-14.4,0-22.4-5.8-22.4-24.6v-29.2c0-3,2.4-4.4,5.1-4.4C225.2,303.5,227.6,304.8,227.6,307.8z"/>
			</g>
			<g>
				<path d="M296.4,303.9c12.1,0,18.1,4.6,18.1,14.2v1c0,5.3-2.3,10.1-9.1,11.7c6.9,1,11.7,5,11.7,13.3v1.3
					c0,9.7-5.9,15.3-18.3,15.3h-18.1c-5.1,0-6.8-1.6-6.8-6.6v-43.5c0-5,1.7-6.6,6.8-6.6H296.4z M284.2,327h8.3
					c9.4,0,11.7-1.7,11.7-7.6v-0.7c0-5.1-3.5-6.3-12.1-6.3h-7.8V327z M284.2,352.3h9.3c9,0,13.3-1,13.3-8v-1c0-5.4-3-7.9-14-7.9
					h-8.5V352.3z"/>
			</g>
		</g>
		<g>
			<path d="M217.2,246.3c19.3-19.2,38.3-38.3,57.2-57.2c3.2,3.1,6.2,6,9.2,9c3.8,3.8,3.9,8.7,0.1,12.5c-7,7.2-14.2,14.2-21.3,21.3
				c-12.7,12.6-25.3,25.3-38,37.9c-1.2,1.2-2.6,2.4-4.2,3c-3.2,1.3-6.1,0.6-8.6-2c-3.6-3.7-7.2-7.2-10.8-10.8
				c-16.3-16.3-32.7-32.6-49-48.9c-4.4-4.4-4.3-9.1,0.1-13.6c15.4-15.4,30.8-30.8,46.1-46.1c4.3-4.3,8.7-8.4,12.8-12.8
				c4.1-4.4,10.9-3.7,14.7,1.2c2.5,3.3,5.8,5.9,8.7,8.8c8.4,8.4,16.8,16.8,25.2,25.1c1.4,1.4,1.6,2.4,0.1,3.9
				c-13.3,13.1-26.5,26.3-39.7,39.5c-2.3,2.3-2.3,2.2-4.7-0.1c-3.5-3.6-7.1-7.1-10.7-10.6c-1.5-1.5-1.6-2.5,0-4.1
				c8.2-8.1,16.4-16.3,24.5-24.5c0.7-0.7,1.3-1.4,2.1-2.2c-4.2-4.2-8.3-8.3-12.4-12.4c-1.2-1.3-2-0.2-2.8,0.6
				c-3.7,3.6-7.2,7.3-10.9,11c-9.1,9.1-18.2,18.1-27.3,27.1c-2.4,2.4-2.5,2.3,0,4.8c9.7,9.7,19.3,19.4,29,29.1
				C210.1,239.3,213.7,242.8,217.2,246.3z"/>
		</g>
	</g>
	<g>
		<path d="M364.5,411.5h-294c-7.2,0-13-5.8-13-13v-354c0-7.2,5.8-13,13-13h43.8c5.5,0,10,4.5,10,10v33.8c0,6.2,5.1,11.3,11.3,11.3
			s11.3-5.1,11.3-11.3V41.5c0-5.5,4.5-10,10-10h39.3c5.5,0,10,4.5,10,10v33.8c0,6.2,5.1,11.3,11.3,11.3s11.3-5.1,11.3-11.3V41.5
			c0-5.5,4.5-10,10-10h39.3c5.5,0,10,4.5,10,10v33.8c0,6.2,5.1,11.3,11.3,11.3s11.3-5.1,11.3-11.3V41.5c0-5.5,4.5-10,10-10h43.8
			c7.2,0,13,5.8,13,13v354C377.5,405.7,371.7,411.5,364.5,411.5z M77.5,391.5h280v-340h-26.8v23.8c0,17.3-14,31.3-31.3,31.3
			s-31.3-14-31.3-31.3V51.5h-19.3v23.8c0,17.3-14,31.3-31.3,31.3s-31.3-14-31.3-31.3V51.5h-19.3v23.8c0,17.3-14,31.3-31.3,31.3
			s-31.3-14-31.3-31.3V51.5H77.5V391.5z M364.5,51.5L364.5,51.5L364.5,51.5z"/>
	</g>
</g>
</svg>
