<?xml version="1.0" encoding="utf-8"?>
<!-- Generator: Adobe Illustrator 22.1.0, SVG Export Plug-In . SVG Version: 6.00 Build 0)  -->
<svg version="1.1" id="Layer_1" xmlns="http://www.w3.org/2000/svg" xmlns:xlink="http://www.w3.org/1999/xlink" x="0px" y="0px"
	 viewBox="0 0 435 435" style="enable-background:new 0 0 435 435;" xml:space="preserve">
<g>
	<path d="M397.5,408.5h-354c-7.2,0-13-5.8-13-13v-354c0-7.2,5.8-13,13-13h354c7.2,0,13,5.8,13,13v354
		C410.5,402.7,404.7,408.5,397.5,408.5z M50.5,388.5h340v-340h-340V388.5z"/>
</g>
<g>
	<path d="M200.5,362h-120c-3.9,0-7-3.1-7-7V82c0-3.9,3.1-7,7-7h120c3.9,0,7,3.1,7,7v71.5c0,3.9-3.1,7-7,7s-7-3.1-7-7V89h-106v259
		h106v-64.5c0-3.9,3.1-7,7-7s7,3.1,7,7V355C207.5,358.9,204.4,362,200.5,362z"/>
</g>
<g>
	<path d="M360.5,362h-120c-3.9,0-7-3.1-7-7v-71.5c0-3.9,3.1-7,7-7s7,3.1,7,7V348h106V89h-106v64.5c0,3.9-3.1,7-7,7s-7-3.1-7-7V82
		c0-3.9,3.1-7,7-7h120c3.9,0,7,3.1,7,7v273C367.5,358.9,364.4,362,360.5,362z"/>
</g>
<g>
	<path d="M193.4,184.9c2.5,1.4,2.9,3.6,1.9,6s-3.2,3.4-5.9,2.3c-2.8-1.1-5.8-1.7-9.1-1.7c-6.1,0-11.2,4-12.1,15.7
		c2.8-3.3,8-5,12.9-5c11.2,0,18,7.3,18,18.5v1.2c0,10.7-7.7,18.9-20.4,18.9c-14.7,0-20.6-9.6-20.6-24.4v-2.9
		c0-25.4,10.3-31.3,22.8-31.3C186,182.3,190.6,183.3,193.4,184.9z M168.4,220.9v0.8c0,6.2,3.5,9.9,10.1,9.9c7,0,10.6-3.6,10.6-10
		v-0.5c0-6.7-3.2-9.9-10.2-9.9C171.5,211.2,168.4,215.6,168.4,220.9z"/>
	<path d="M223,198.3c0,3.6-2.7,6.3-6.3,6.3s-6.3-2.7-6.3-6.3c0-3.6,2.7-6.3,6.3-6.3S223,194.7,223,198.3z M223,229.4
		c0,3.6-2.7,6.3-6.3,6.3s-6.3-2.7-6.3-6.3c0-3.6,2.7-6.3,6.3-6.3S223,225.8,223,229.4z"/>
	<path d="M270.9,184.9c2.5,1.4,2.9,3.6,1.9,6s-3.2,3.4-5.9,2.3c-2.8-1.1-5.8-1.7-9.1-1.7c-6.1,0-11.2,4-12.1,15.7
		c2.8-3.3,8-5,12.9-5c11.2,0,18,7.3,18,18.5v1.2c0,10.7-7.7,18.9-20.4,18.9c-14.7,0-20.6-9.6-20.6-24.4v-2.9
		c0-25.4,10.3-31.3,22.8-31.3C263.5,182.3,268.1,183.3,270.9,184.9z M245.9,220.9v0.8c0,6.2,3.5,9.9,10.1,9.9c7,0,10.6-3.6,10.6-10
		v-0.5c0-6.7-3.2-9.9-10.2-9.9C249,211.2,245.9,215.6,245.9,220.9z"/>
</g>
</svg>
