<?xml version="1.0" standalone="no"?>
<!DOCTYPE svg PUBLIC "-//W3C//DTD SVG 20010904//EN"
 "http://www.w3.org/TR/2001/REC-SVG-20010904/DTD/svg10.dtd">
<svg version="1.0" xmlns="http://www.w3.org/2000/svg"
 width="2709.000000pt" height="1571.000000pt" viewBox="0 0 2709.000000 1571.000000"
 preserveAspectRatio="xMidYMid meet">

<g transform="translate(0.000000,1571.000000) scale(0.100000,-0.100000)"
fill="#000000" stroke="none">
<path d="M25055 15700 c-320 -11 -995 -61 -1165 -85 -51 -7 -506 -48 -1120
-100 -823 -70 -945 -85 -1083 -134 -165 -58 -284 -180 -332 -341 -27 -94 -45
-249 -45 -407 0 -331 67 -601 167 -669 25 -16 58 -22 194 -32 250 -19 385 -51
564 -137 123 -59 212 -119 402 -272 204 -163 313 -241 710 -506 517 -344 655
-458 816 -671 71 -94 145 -274 162 -397 l7 -46 -64 -41 c-188 -123 -444 -203
-1138 -357 -405 -90 -706 -165 -862 -214 -237 -75 -371 -96 -578 -88 -103 4
-170 12 -230 27 -88 23 -243 86 -283 114 -12 9 -44 32 -71 51 -58 42 -84 44
-126 9 -43 -36 -75 -105 -105 -220 -39 -154 -51 -308 -37 -476 22 -271 87
-413 229 -505 79 -50 194 -93 479 -178 527 -157 733 -241 954 -388 188 -125
273 -204 509 -472 96 -110 181 -203 187 -208 23 -14 193 -224 267 -329 40 -58
92 -141 115 -186 l42 -80 -77 -72 c-113 -105 -315 -254 -408 -300 -44 -21
-128 -55 -186 -75 -359 -119 -748 -130 -1509 -44 -366 41 -450 49 -607 55
l-162 7 -9 27 c-13 35 -4 78 18 90 47 25 134 23 228 -6 16 -5 16 -5 1 5 -31
20 -183 51 -279 57 -173 11 -340 -44 -402 -131 -42 -59 -56 -99 -74 -205 -47
-282 41 -680 179 -807 90 -83 198 -100 463 -72 134 13 251 10 679 -22 224 -17
336 -20 560 -16 310 6 417 18 629 71 72 19 133 32 135 30 2 -2 -9 -32 -24 -66
-16 -35 -52 -130 -80 -212 l-52 -150 -89 -38 c-468 -204 -1247 -382 -1522
-348 -35 4 -87 20 -117 36 -53 26 -184 128 -330 255 -105 91 -274 200 -425
273 -115 56 -509 206 -540 206 -5 0 -16 12 -24 28 -80 152 -303 191 -437 75
-32 -28 -41 -30 -141 -36 -180 -11 -390 -66 -564 -146 l-80 -38 -53 48 -52 49
90 100 c366 408 516 786 457 1150 -33 203 -155 469 -306 670 -95 125 -201 210
-335 267 -137 59 -251 83 -564 118 -124 14 -280 34 -346 45 -341 57 -583 174
-773 374 -107 112 -108 115 -80 168 31 58 31 165 1 224 -41 79 -144 144 -228
144 -18 0 -26 15 -52 98 -52 161 -83 345 -83 493 0 58 -11 52 182 103 185 49
366 87 757 157 405 72 535 99 706 144 389 102 654 241 805 420 72 86 250 338
364 513 196 303 297 550 283 688 -16 156 -86 222 -549 520 -134 86 -279 182
-323 212 -273 189 -668 469 -835 592 -449 331 -671 484 -844 584 -414 239
-818 363 -1271 391 -165 10 -517 -10 -609 -34 -247 -65 -406 -223 -476 -471
-11 -41 -36 -165 -55 -275 -20 -110 -45 -238 -56 -284 -68 -273 -215 -470
-531 -713 -90 -69 -217 -169 -283 -222 -66 -53 -123 -95 -126 -93 -4 1 -52 46
-108 99 -218 208 -478 340 -897 453 -90 25 -203 52 -251 61 -117 22 -398 30
-505 15 -283 -40 -508 -139 -714 -316 l-40 -35 -45 63 c-24 34 -50 71 -57 82
-35 56 -148 298 -202 435 -161 403 -285 607 -488 804 -257 250 -545 418 -1084
632 -449 179 -806 277 -1143 316 -213 24 -658 12 -995 -27 -191 -23 -244 -32
-535 -95 -148 -33 -333 -71 -410 -85 -254 -47 -348 -81 -461 -166 -143 -109
-300 -379 -384 -666 -25 -82 -4 -72 -210 -104 -408 -64 -686 -7 -1260 259
-277 128 -518 220 -705 268 -100 26 -126 29 -275 28 -109 0 -174 -4 -190 -12
-25 -12 -25 -12 6 -8 161 25 292 12 446 -44 118 -43 290 -141 363 -206 70 -65
407 -313 580 -429 66 -44 168 -106 228 -139 59 -32 107 -62 107 -66 0 -15
-122 29 -234 84 -130 63 -299 174 -522 342 -88 67 -180 132 -203 144 -23 11
-72 42 -109 66 -88 61 -201 117 -292 145 -62 20 -97 24 -200 24 -205 -1 -340
-51 -591 -220 -421 -284 -717 -602 -875 -942 -199 -428 -224 -923 -79 -1523
63 -259 172 -596 251 -780 102 -235 239 -427 373 -520 48 -34 50 -37 51 -82 0
-35 6 -54 21 -69 59 -59 422 -199 618 -238 136 -27 433 -75 656 -106 215 -30
345 -55 345 -66 0 -11 -113 -160 -143 -187 l-25 -24 -209 57 c-474 128 -805
239 -1018 339 -143 68 -343 195 -423 270 -73 68 -165 187 -217 281 -20 36 -39
65 -42 65 -9 0 59 -114 115 -193 31 -43 96 -117 146 -165 252 -243 513 -363
1298 -593 172 -50 316 -94 320 -98 8 -7 -185 -243 -295 -361 -109 -116 -263
-255 -360 -325 -82 -59 -90 -63 -120 -54 -18 6 -64 10 -104 11 -80 0 -153 -27
-224 -83 -21 -17 -39 -27 -39 -22 0 13 59 228 101 370 21 72 39 141 39 153 0
42 -45 107 -139 200 -144 143 -234 182 -299 129 -44 -36 -93 -106 -199 -284
-53 -88 -108 -178 -123 -200 -34 -51 -46 -73 -33 -60 6 6 43 59 82 118 40 60
78 106 84 104 8 -3 12 -35 12 -103 0 -170 -51 -274 -280 -577 -255 -335 -355
-490 -449 -690 -184 -390 -232 -767 -157 -1227 12 -69 37 -196 57 -284 19 -87
43 -203 53 -258 16 -88 17 -100 4 -105 -39 -15 -255 36 -343 82 -97 50 -168
158 -209 316 -21 82 -27 80 -10 -3 24 -115 92 -267 165 -362 98 -130 210 -203
529 -346 166 -73 266 -105 385 -120 181 -23 353 -1 790 105 427 103 469 110
667 110 108 0 176 -4 183 -11 20 -20 0 -70 -36 -88 -42 -20 -162 -98 -189
-123 -11 -10 -30 -26 -42 -34 -62 -43 -251 -269 -293 -349 -19 -37 -1 -14 55
69 101 149 262 299 430 399 68 41 70 41 73 19 14 -100 89 -199 177 -233 l47
-17 -94 -37 c-51 -20 -113 -47 -138 -60 -135 -69 -277 -196 -390 -345 -118
-158 -293 -465 -370 -651 -48 -117 -53 -116 -47 11 l5 110 -14 -95 c-8 -52
-18 -239 -23 -415 -8 -279 -7 -322 6 -337 46 -53 321 -44 434 13 28 14 38 26
43 52 7 36 53 108 253 397 230 332 401 629 479 830 63 163 85 262 91 407 l6
133 36 10 c148 42 398 54 531 25 41 -8 78 -19 82 -23 3 -4 0 -34 -9 -66 -35
-139 40 -292 174 -353 80 -37 137 -38 323 -9 91 14 206 30 256 36 91 11 92 11
190 -23 212 -74 384 -104 644 -114 l175 -6 130 -55 c72 -29 135 -56 142 -59
18 -7 197 -270 285 -416 174 -292 223 -481 252 -967 14 -249 20 -277 72 -346
64 -84 152 -118 329 -129 61 -4 112 -8 114 -10 2 -2 -29 -39 -69 -82 -39 -43
-129 -152 -200 -243 -128 -165 -129 -166 -257 -252 -151 -102 -259 -189 -559
-444 -122 -104 -270 -227 -330 -273 -60 -46 -116 -91 -124 -100 -23 -24 -143
-116 -170 -131 -26 -13 -160 -117 -355 -273 -351 -282 -734 -488 -1074 -578
-145 -39 -173 -53 -245 -125 -138 -138 -232 -324 -192 -379 11 -15 32 -20 107
-25 134 -10 266 -45 902 -241 819 -252 1121 -317 1510 -326 248 -6 360 3 512
42 511 130 772 471 669 876 -38 150 -95 257 -326 603 -220 331 -290 478 -305
647 l-6 66 99 72 c310 229 633 413 1023 582 141 61 158 66 190 57 58 -16 159
-4 218 26 33 16 69 26 96 26 87 0 145 26 216 97 l66 66 237 73 c131 41 276 84
323 97 l84 24 68 -50 c238 -174 705 -460 1061 -647 65 -35 92 -56 128 -103 59
-75 127 -128 229 -179 104 -53 165 -73 261 -89 95 -14 115 -24 270 -131 475
-327 583 -419 1129 -959 359 -355 384 -378 459 -415 91 -44 145 -48 219 -16
48 21 217 159 217 176 0 7 18 30 41 51 22 22 86 96 141 164 281 344 415 631
353 751 -19 36 -80 68 -219 116 -132 46 -248 108 -361 194 -125 95 -155 127
-197 206 -68 130 -112 276 -138 459 -6 44 -22 150 -36 237 l-25 156 116 231
c194 388 236 521 230 716 -8 222 -165 621 -395 1002 l-71 118 17 58 c10 32 21
60 26 63 4 3 77 9 160 15 381 23 669 90 971 225 53 24 100 44 104 44 13 0 213
-116 378 -219 94 -58 323 -211 510 -340 323 -222 590 -402 880 -594 176 -115
270 -196 269 -228 -1 -13 -13 -69 -28 -124 -64 -244 -39 -424 80 -581 99 -131
203 -228 514 -483 367 -300 483 -399 690 -587 335 -305 610 -514 815 -621 269
-141 592 -282 890 -389 220 -79 303 -110 710 -264 558 -212 904 -320 1200
-376 134 -25 173 -28 365 -28 248 -1 342 12 532 74 196 64 379 160 580 302
376 265 682 590 746 793 81 252 51 436 -146 915 -177 430 -243 689 -257 1006
l-6 119 117 75 c139 89 315 256 411 390 222 311 343 670 360 1067 8 196 -17
345 -94 553 l-35 96 -157 -78 c-86 -43 -157 -74 -159 -69 -4 11 83 245 131
352 72 161 80 173 147 203 145 65 197 78 360 88 185 11 257 26 339 72 55 31
60 33 50 13 -20 -37 -209 -225 -301 -299 -98 -78 -120 -104 -30 -35 184 143
327 289 582 600 205 250 248 308 400 534 140 208 173 266 191 337 19 76 5 131
-48 187 -38 41 -59 53 -117 72 -62 19 -91 22 -231 20 -115 -1 -185 -7 -247
-20 -49 -11 -88 -16 -88 -13 0 4 9 42 20 86 76 295 69 582 -20 824 -101 276
-328 689 -491 893 -80 99 -246 263 -342 335 l-87 67 122 38 c290 90 522 169
622 213 209 91 394 229 521 389 155 195 275 430 389 762 93 273 135 469 145
673 7 165 0 254 -34 385 -78 309 -284 541 -794 896 -349 242 -519 366 -669
486 l-153 121 73 6 c40 3 181 13 313 22 132 8 418 31 635 49 910 79 1100 91
1650 105 406 10 645 24 691 42 30 11 130 109 182 178 93 123 201 330 252 482
28 86 35 121 35 186 0 78 -1 80 -27 90 -16 6 -64 13 -108 16 -44 3 -183 14
-310 25 -317 29 -427 37 -575 46 -52 3 -122 8 -155 10 -137 10 -646 13 -860 5z
m-17590 -179 c110 -11 277 -27 370 -36 94 -9 222 -27 285 -41 229 -51 697
-220 1022 -370 315 -146 553 -306 734 -496 181 -189 281 -358 430 -726 127
-311 181 -419 286 -565 l49 -68 -30 -37 c-16 -20 -41 -48 -56 -62 l-26 -25
-35 40 c-96 111 -163 234 -294 535 -125 290 -196 397 -370 556 -181 165 -495
362 -910 569 -107 54 -274 141 -370 195 -96 53 -193 107 -215 120 -22 12 -89
55 -150 95 -153 101 -374 208 -500 241 -143 39 -418 -10 -535 -95 -144 -104
-209 -198 -335 -481 -72 -164 -128 -253 -204 -320 -76 -69 -132 -99 -257 -135
-173 -50 -251 -59 -509 -60 -238 0 -240 0 -296 26 -49 23 -58 32 -78 80 -22
49 -23 64 -18 174 7 171 52 301 151 437 31 43 59 67 116 99 41 23 94 55 117
71 24 16 60 35 80 42 21 8 92 38 158 69 86 39 166 67 280 95 408 103 655 119
1110 73z m7997 -592 c505 -72 798 -194 1278 -532 217 -152 288 -194 511 -298
103 -48 252 -125 331 -172 244 -145 779 -525 846 -602 50 -56 45 -93 -20 -162
-65 -68 -131 -103 -195 -103 -74 0 -201 69 -394 214 -186 139 -324 268 -656
612 -548 570 -800 742 -1223 836 -132 30 -494 32 -645 4 -173 -32 -278 -62
-380 -111 -123 -58 -155 -62 -167 -20 -13 45 -1 134 28 192 36 75 97 122 187
144 104 25 316 25 499 -2z m353 -210 c239 -31 455 -120 705 -290 188 -128 308
-235 660 -589 384 -385 472 -467 700 -649 148 -118 268 -206 650 -475 149
-106 273 -226 290 -283 12 -40 12 -43 -18 -80 -59 -75 -238 -238 -322 -295
-112 -74 -254 -146 -475 -240 -335 -142 -500 -185 -1189 -314 -193 -36 -411
-79 -485 -95 -73 -16 -135 -28 -136 -27 -4 4 79 185 174 382 39 82 70 151 68
153 -4 4 -213 -432 -242 -503 -14 -37 -21 -42 -57 -48 -22 -4 -43 -5 -45 -2
-2 2 26 86 63 187 191 528 244 757 244 1053 l0 80 55 53 c87 85 119 71 151
-62 12 -51 15 -96 11 -165 -3 -65 -2 -82 3 -55 5 22 9 67 9 100 1 71 -44 469
-54 485 -36 57 -312 51 -395 -9 -14 -10 -46 -49 -72 -87 -26 -38 -80 -107
-120 -154 -60 -71 -65 -79 -28 -47 24 20 51 37 59 36 9 0 50 -28 91 -63 74
-62 75 -63 84 -124 l9 -62 -39 -47 c-21 -27 -68 -77 -104 -112 -81 -80 -53
-61 59 41 47 42 89 74 93 72 11 -7 10 -149 -3 -241 -16 -118 -50 -245 -148
-545 -49 -150 -94 -299 -101 -330 -12 -51 -16 -58 -42 -63 -16 -4 -87 -26
-159 -49 -92 -31 -129 -39 -129 -30 0 7 -10 39 -21 70 -55 146 -222 221 -382
172 -79 -24 -170 -23 -221 2 -23 11 -69 48 -103 84 -85 87 -145 116 -242 116
-127 0 -218 -57 -269 -168 -21 -47 -24 -65 -20 -136 3 -67 9 -91 31 -127 58
-96 101 -124 238 -159 117 -30 218 -72 300 -125 l70 -45 -59 -45 c-69 -52
-185 -172 -231 -239 -54 -79 -110 -209 -132 -308 -11 -51 -23 -106 -27 -123
l-8 -29 -68 79 c-133 156 -275 396 -361 610 -15 39 -33 84 -40 100 -8 17 -20
46 -28 65 -8 19 -52 150 -97 290 -152 477 -223 685 -281 828 -38 96 -54 145
-46 147 7 3 56 21 111 40 175 63 349 137 431 183 311 174 497 402 582 712 14
52 17 104 17 265 0 172 -4 221 -26 350 -52 294 -56 448 -14 549 54 130 192
231 388 285 223 61 472 79 693 50z m-12995 -48 c82 -26 174 -78 320 -180 559
-389 762 -494 1073 -552 103 -20 310 -71 432 -106 28 -9 88 -16 135 -17 79 -1
89 1 141 31 53 31 140 115 204 196 28 35 36 39 110 52 104 18 310 40 560 60
510 41 858 105 1230 225 244 79 347 96 519 87 275 -16 606 -104 1046 -277 369
-146 620 -292 798 -465 165 -159 229 -257 380 -581 130 -278 200 -387 333
-526 58 -61 60 -64 46 -88 -8 -14 -64 -108 -126 -209 -227 -376 -317 -619
-353 -958 l-12 -111 -95 48 c-344 172 -643 277 -961 336 -74 13 -256 38 -403
55 -310 34 -433 54 -682 110 -306 68 -335 69 -780 24 -132 -13 -364 -36 -515
-50 -291 -27 -533 -56 -665 -79 -57 -10 -124 -12 -230 -9 -245 9 -422 -30
-715 -159 -350 -154 -578 -292 -794 -482 l-79 -70 -751 2 c-770 3 -923 9
-1052 42 -285 73 -501 313 -704 782 -77 176 -169 525 -207 783 -26 181 -24
492 5 648 73 390 271 728 592 1013 332 293 598 429 890 453 102 8 232 -3 310
-28z m20614 -577 c9 -3 16 -10 16 -16 0 -14 -43 -5 -48 10 -4 13 7 15 32 6z
m-11432 -725 c370 1 457 -7 629 -62 360 -114 687 -441 922 -919 113 -231 164
-370 396 -1083 157 -481 241 -677 396 -924 36 -57 63 -106 60 -109 -3 -3 -18
6 -33 19 -15 14 -47 38 -71 55 -121 81 -160 106 -202 128 -100 54 -262 170
-325 234 -169 170 -238 301 -490 942 -108 273 -257 590 -328 695 -173 260
-386 467 -626 608 -206 122 -719 377 -827 411 -49 16 -18 21 75 13 53 -5 244
-8 424 -8z m-539 -33 c150 -41 386 -143 632 -274 232 -123 367 -211 489 -319
l48 -42 -68 5 c-38 2 -91 7 -119 9 -123 11 -330 -30 -474 -93 -72 -32 -92 -37
-116 -29 -92 28 -477 177 -577 222 -122 55 -288 149 -333 188 l-26 22 49 65
c69 92 148 176 212 228 l55 44 85 -5 c47 -3 111 -13 143 -21z m-473 -421 c131
-86 314 -172 675 -315 358 -141 420 -168 391 -169 -39 -2 -557 148 -731 210
-110 40 -430 193 -472 227 l-22 17 30 48 c16 26 33 46 37 43 4 -2 45 -30 92
-61z m3141 -1 c119 -35 221 -88 233 -121 10 -24 -30 -85 -96 -150 -107 -104
-325 -207 -655 -308 -7 -2 -30 34 -53 82 -48 97 -48 97 23 174 23 25 63 71 89
101 56 66 220 201 269 222 45 20 122 20 190 0z m-3786 -198 c-119 -248 -221
-518 -244 -650 -16 -90 -13 -274 9 -583 33 -460 47 -578 115 -977 106 -624
126 -831 106 -1061 -22 -246 -66 -388 -181 -585 l-42 -71 -27 58 c-15 32 -45
73 -66 92 -28 24 -50 61 -82 134 -60 138 -72 199 -83 406 -12 222 -30 374 -86
726 -24 154 -54 348 -65 430 -25 189 -36 577 -20 724 31 285 113 541 252 786
141 249 471 747 485 732 3 -2 -29 -75 -71 -161z m8536 -353 c-5 -10 -60 -79
-122 -153 -177 -213 -201 -254 -269 -445 -55 -156 -94 -228 -156 -291 -162
-166 -441 -269 -999 -369 -661 -117 -1135 -228 -1491 -349 l-101 -34 13 46
c45 147 -19 292 -159 366 l-48 25 38 16 c21 9 117 43 213 75 279 93 499 145
1056 245 478 86 689 136 919 215 212 74 559 239 727 346 96 61 141 98 272 221
61 57 111 103 113 103 2 0 -1 -8 -6 -17z m-8191 -106 c189 -71 508 -156 735
-195 61 -11 109 -24 108 -29 -1 -5 -11 -92 -23 -194 -34 -293 -75 -465 -135
-560 -24 -37 -73 -79 -135 -116 -91 -54 -321 -122 -520 -154 -97 -16 -423 -18
-485 -3 l-40 10 0 214 c0 229 11 322 61 502 41 147 72 227 166 415 l91 182 36
-16 c20 -9 83 -34 141 -56z m2409 -267 c63 -137 166 -408 285 -753 54 -153
106 -298 117 -324 11 -25 18 -47 17 -49 -6 -5 -253 121 -298 153 -71 50 -210
203 -210 232 0 6 -10 28 -23 49 -37 60 -107 219 -107 242 0 12 16 38 36 58
l36 36 2 100 c1 77 8 123 29 191 15 50 32 109 37 133 6 24 16 42 21 40 5 -2
32 -50 58 -108z m-441 -47 c23 -49 77 -176 121 -284 70 -174 121 -281 222
-471 73 -139 251 -286 462 -382 l103 -48 43 -86 c99 -202 213 -366 343 -495
208 -206 716 -459 956 -474 45 -3 82 -9 82 -14 0 -42 -152 -173 -354 -304
-194 -127 -270 -145 -646 -154 -269 -6 -287 -8 -327 -29 -92 -48 -152 -135
-160 -233 -8 -80 10 -124 111 -275 104 -154 198 -339 228 -449 20 -73 22 -103
23 -346 l0 -266 -89 -134 c-142 -213 -223 -317 -330 -425 -135 -135 -287 -231
-549 -348 -122 -54 -150 -56 -242 -12 -79 38 -135 102 -190 219 -55 115 -154
180 -274 180 -86 0 -157 -30 -212 -90 -63 -68 -82 -120 -77 -213 l3 -77 -55
35 c-427 276 -761 424 -1208 537 -227 57 -330 73 -722 115 -521 55 -636 63
-785 57 -252 -10 -369 -49 -935 -309 -122 -57 -348 -146 -460 -183 -212 -69
-406 -167 -532 -268 -33 -27 -61 -47 -63 -45 -13 12 -55 189 -55 228 0 26 -7
67 -16 91 -23 62 -20 195 5 300 25 107 56 197 117 339 49 117 104 195 352 500
94 115 285 310 305 310 6 0 95 -42 197 -94 389 -198 550 -255 787 -275 104 -9
264 -3 364 15 l36 6 46 -78 c54 -94 84 -124 157 -158 42 -20 71 -26 122 -26
128 0 226 59 285 172 27 51 28 59 26 178 -3 152 10 187 96 256 98 80 137 148
144 254 3 43 12 68 42 115 120 186 180 361 205 597 22 207 7 420 -55 813 l-7
40 94 24 c241 60 577 186 723 270 317 181 579 470 752 826 51 105 153 393 219
613 2 9 37 12 126 13 68 1 177 7 243 14 66 6 129 13 141 13 17 2 29 -15 62
-85z m-648 48 c0 -25 -98 -290 -139 -377 -208 -436 -546 -638 -1326 -788 -164
-32 -315 -50 -325 -39 -5 4 -12 51 -17 104 l-8 96 38 -9 c119 -27 393 -26 562
1 372 60 615 164 789 337 135 135 209 275 307 582 l33 102 43 0 c24 0 43 -4
43 -9z m-5721 -325 c15 -13 21 -31 21 -59 0 -47 -44 -181 -97 -294 l-38 -83
-67 80 c-37 43 -97 103 -132 132 -80 66 -221 151 -301 181 l-60 22 95 13 c180
24 266 30 411 28 129 -1 150 -3 168 -20z m-856 -2 c170 -39 312 -109 440 -219
222 -190 370 -427 583 -937 169 -404 273 -591 435 -784 159 -190 296 -297 804
-629 313 -205 344 -226 550 -381 220 -166 235 -178 235 -193 0 -14 13 -16
-128 24 -135 38 -241 61 -467 100 -186 33 -307 63 -455 113 -219 75 -501 201
-605 272 -184 125 -373 321 -512 530 -171 259 -232 403 -428 1025 -81 254
-119 326 -219 411 -67 56 -143 102 -222 133 -65 25 -146 76 -254 161 -164 130
-233 165 -350 179 -119 15 -250 -29 -476 -159 -249 -143 -441 -290 -668 -510
-190 -186 -303 -313 -577 -657 -345 -433 -524 -631 -703 -781 -132 -110 -298
-212 -345 -212 -28 0 -101 30 -101 42 0 5 30 23 67 40 306 141 539 349 956
853 632 763 871 992 1318 1261 294 178 529 279 729 315 128 22 301 23 393 3z
m3022 -49 c361 -42 668 -136 1020 -314 l170 -86 7 -210 c4 -115 6 -211 4 -212
-4 -4 -393 63 -472 82 -225 52 -339 121 -559 335 -141 138 -241 216 -350 274
-38 20 -89 54 -113 75 -41 35 -42 39 -27 54 21 22 142 23 320 2z m-3430 -385
c162 -38 309 -92 468 -171 68 -35 170 -133 215 -207 l32 -53 -30 -17 c-17 -9
-70 -46 -118 -81 -48 -34 -103 -71 -122 -81 -19 -10 -67 -44 -107 -77 -51 -41
-114 -78 -220 -127 -323 -150 -552 -201 -580 -129 -4 9 1 71 11 137 10 66 26
224 36 351 21 254 37 344 75 430 l25 58 113 -6 c61 -3 153 -15 202 -27z m-525
-19 c0 -15 -98 -99 -153 -130 -56 -32 -178 -75 -242 -86 l-40 -7 65 47 c87 62
172 109 272 151 90 37 98 39 98 25z m10800 -394 c12 -32 42 -88 66 -124 24
-36 42 -68 40 -71 -3 -2 -29 -5 -58 -6 -40 -1 -68 6 -113 28 -74 36 -175 134
-175 169 0 38 54 102 127 152 l68 45 11 -68 c7 -37 22 -93 34 -125z m196 48
c-5 -14 -9 -15 -21 -5 -12 10 -13 16 -4 27 15 18 34 1 25 -22z m-8061 -55
c896 -42 1142 -93 1775 -370 275 -120 330 -141 450 -174 l85 -23 17 -103 c42
-250 52 -357 52 -565 1 -220 -6 -281 -50 -425 -38 -129 -44 -137 -111 -170
-108 -53 -173 -152 -173 -262 0 -43 -5 -54 -39 -91 l-39 -41 -76 58 c-88 67
-166 149 -233 244 -26 37 -50 69 -54 72 -11 9 -54 82 -118 200 -74 136 -115
182 -196 221 -49 24 -73 29 -131 29 -145 0 -193 -35 -388 -283 -59 -76 -125
-155 -147 -177 l-39 -39 -63 38 c-34 21 -144 92 -244 157 -101 66 -223 145
-272 176 -139 89 -247 174 -360 283 -179 173 -291 327 -411 566 -63 124 -226
517 -218 524 9 9 240 78 367 110 124 32 239 48 376 53 17 1 124 -3 240 -8z
m8602 -56 c-18 -110 41 -434 109 -603 39 -97 41 -111 16 -111 -32 0 -49 23
-80 105 -63 167 -96 324 -108 511 l-7 111 29 11 c44 16 47 15 41 -24z m-167
-71 c1 -128 39 -328 96 -501 l35 -107 -51 -48 c-86 -79 -216 -177 -318 -238
-77 -46 -98 -55 -105 -44 -14 25 -75 312 -88 411 -11 92 -7 314 7 375 5 23 12
27 59 32 61 6 103 25 164 76 40 32 155 88 189 90 8 1 12 -15 12 -46z m-9973
-253 c203 -580 384 -909 651 -1184 140 -144 264 -247 357 -297 17 -8 78 -43
136 -77 59 -33 211 -113 338 -176 127 -64 231 -119 231 -122 0 -16 -316 -139
-588 -229 -130 -43 -117 -43 -372 6 -187 36 -360 79 -461 115 -184 65 -390
194 -614 383 -50 42 -113 94 -140 116 -28 21 -54 45 -58 52 -4 7 -31 25 -60
40 -159 81 -373 7 -449 -155 -32 -69 -33 -132 -4 -282 40 -214 49 -296 49
-440 0 -151 -20 -265 -59 -341 -13 -26 -27 -50 -32 -53 -11 -7 -153 66 -223
116 -111 77 -181 193 -274 453 -53 150 -80 193 -144 235 -167 111 -381 52
-463 -128 -32 -70 -33 -125 -4 -258 67 -317 52 -482 -69 -740 l-45 -96 -52 7
c-339 44 -644 165 -974 386 l-71 48 -33 123 c-63 240 -73 312 -74 553 -1 207
8 321 35 450 9 43 18 56 65 95 134 111 363 399 629 793 111 164 151 217 163
213 24 -7 181 -33 292 -47 52 -7 178 -13 280 -12 286 0 426 30 857 179 291
101 654 233 668 244 32 24 412 130 454 127 22 -2 29 -14 58 -97z m9483 -45 l0
-116 -77 3 -78 3 3 60 c3 44 10 66 25 84 23 25 105 81 119 81 4 0 8 -52 8
-115z m7701 47 c38 -25 117 -90 174 -142 55 -50 180 -190 170 -190 -4 0 7 -18
24 -39 25 -31 28 -40 16 -45 -8 -3 -28 0 -43 6 -15 6 -43 12 -62 13 -19 1 -50
6 -67 10 -27 6 -33 4 -33 -9 0 -13 -5 -14 -26 -6 -39 15 -74 12 -74 -6 0 -13
-9 -15 -50 -12 -42 2 -50 0 -50 -14 0 -15 -9 -18 -45 -18 -32 0 -45 -4 -45
-14 0 -14 -29 -26 -67 -26 -15 0 -21 -5 -17 -14 4 -10 -8 -15 -41 -20 -25 -4
-43 -11 -40 -16 5 -9 -28 -20 -62 -20 -13 0 -23 -4 -23 -10 0 -5 -21 -10 -46
-10 -25 0 -43 -4 -40 -8 3 -5 -32 -8 -77 -6 -65 2 -115 12 -247 53 -188 57
-340 109 -325 111 6 1 -12 10 -40 21 -27 11 -58 29 -68 40 -10 10 -22 19 -27
19 -5 0 -23 13 -40 29 l-31 28 153 6 c251 9 448 54 739 168 164 64 365 137
379 138 3 1 17 -7 31 -17z m-7925 -160 c-9 -79 -39 -204 -83 -342 l-37 -115
-12 50 c-17 71 -17 172 2 236 24 83 108 229 132 229 3 0 2 -26 -2 -58z
m-11602 -43 c92 -39 181 -100 181 -125 0 -11 -12 -25 -30 -33 -25 -12 -55 -13
-205 -2 -96 7 -178 16 -182 20 -7 6 33 73 89 149 29 39 35 38 147 -9z m12676
-328 c0 -24 -25 -34 -40 -16 -15 18 -5 35 21 35 12 0 19 -7 19 -19z m126 -153
c71 -102 204 -237 304 -308 41 -29 68 -50 59 -47 -9 3 -41 8 -72 12 -49 6 -64
14 -121 64 -95 81 -216 223 -253 296 -11 21 0 65 16 65 5 0 35 -37 67 -82z
m-60 -179 c31 -39 84 -95 117 -125 l60 -54 -162 0 c-109 0 -187 5 -239 16 -80
16 -232 70 -232 82 1 14 344 151 381 152 9 0 43 -32 75 -71z m608 -258 c135
-59 380 -105 716 -136 379 -35 518 -72 684 -184 126 -85 199 -200 306 -481 27
-71 67 -167 89 -213 21 -46 51 -122 67 -168 26 -77 29 -96 28 -219 0 -107 -4
-151 -21 -210 -66 -231 -204 -464 -420 -706 l-85 -95 -25 23 c-14 13 -63 66
-108 118 -53 61 -99 105 -129 120 -25 14 -46 28 -46 32 0 4 50 62 111 130 256
283 380 487 446 735 24 87 27 116 26 258 0 143 -3 169 -27 250 -40 136 -91
230 -162 300 -69 68 -89 79 -229 130 -142 53 -271 79 -588 119 -290 38 -418
61 -552 103 -79 24 -86 29 -159 111 l-21 23 25 -9 c14 -6 47 -20 74 -31z
m-639 -6 c213 -11 291 -14 384 -14 l93 -1 38 -38 c21 -21 43 -56 50 -78 11
-36 10 -46 -8 -86 -12 -24 -30 -69 -42 -99 -11 -30 -27 -67 -34 -84 -7 -16
-37 -97 -66 -180 -28 -82 -56 -158 -61 -167 -5 -10 -9 -27 -9 -37 0 -27 -15
-34 -55 -27 -27 5 -34 12 -39 39 -9 51 -21 259 -25 435 -1 29 -5 42 -15 42
-13 0 -257 99 -396 161 l-46 20 15 66 15 65 46 -6 c25 -3 95 -8 155 -11z
m-7624 -23 c17 -7 63 -61 125 -149 55 -76 113 -154 129 -173 52 -59 165 -208
165 -217 0 -5 -8 -15 -17 -24 -10 -8 -37 -36 -60 -63 l-42 -48 -78 60 c-43 32
-148 107 -234 165 l-156 106 7 -43 6 -43 -112 -56 -112 -56 -96 66 -96 66 154
156 c84 86 171 175 192 199 60 66 144 86 225 54z m-7093 -211 c26 -57 54 -94
121 -161 47 -48 100 -93 118 -101 31 -13 33 -18 63 -139 47 -195 60 -306 60
-505 0 -124 -7 -226 -21 -330 -30 -225 -33 -269 -20 -322 25 -99 111 -193 210
-228 21 -7 124 -23 227 -35 233 -26 454 -69 599 -117 108 -36 425 -187 425
-203 0 -24 -205 -238 -323 -337 l-78 -65 -38 25 c-49 32 -140 70 -211 88 -80
20 -356 18 -500 -4 -63 -10 -257 -47 -430 -82 -485 -97 -717 -129 -895 -123
l-90 3 -51 102 c-54 106 -100 257 -131 423 -13 71 -18 143 -17 285 1 165 4
206 27 315 57 273 183 582 362 896 70 121 293 457 332 500 15 16 66 81 113
143 l85 112 14 -33 c7 -18 29 -66 49 -107z m12896 97 c12 -48 12 -48 -144
-131 -41 -22 -87 -48 -102 -59 -14 -10 -32 -18 -38 -18 -16 0 -156 -77 -175
-97 -12 -11 -14 -28 -10 -67 5 -49 34 -369 39 -432 3 -29 0 -32 -47 -44 -51
-13 -66 -7 -67 28 0 6 -5 12 -12 12 -6 0 -9 3 -5 6 3 3 -5 27 -18 52 -12 26
-37 79 -55 117 -36 77 -155 317 -190 381 -19 35 -20 46 -11 81 12 44 71 112
98 112 10 0 41 2 68 4 162 15 193 18 223 22 17 3 47 7 65 10 74 10 195 26 242
31 28 3 51 7 52 8 1 1 20 3 41 4 34 2 40 -1 46 -20z m2741 -92 c127 -26 558
-103 660 -117 75 -10 258 -70 347 -114 185 -92 273 -192 318 -362 30 -116 35
-221 16 -332 -51 -290 -201 -549 -492 -851 l-101 -104 -134 18 c-378 51 -514
86 -625 165 -77 54 -192 170 -335 338 l-96 113 -34 167 c-31 152 -34 184 -34
338 0 166 1 172 33 269 19 54 72 173 119 265 67 131 86 178 90 222 l6 56 71
-23 c39 -12 125 -34 191 -48z m-15425 45 c0 -27 -14 -33 -44 -20 -34 16 -33
27 2 32 15 2 30 5 35 6 4 0 7 -8 7 -18z m14115 -2 c80 -9 239 -54 284 -79 13
-7 7 -17 -40 -62 -159 -151 -177 -165 -294 -222 -83 -41 -272 -105 -357 -121
l-36 -7 -12 73 c-17 97 -7 181 37 311 l35 107 67 4 c147 7 230 6 316 -4z
m-863 -109 c36 -179 36 -420 -1 -420 -33 0 -297 69 -383 100 -49 18 -125 54
-170 81 -96 58 -219 149 -213 159 2 4 55 32 117 63 170 84 273 106 503 103
l129 -1 18 -85z m-12977 -85 c7 -143 -3 -137 -35 19 -18 89 -19 110 -8 117 27
17 38 -15 43 -136z m3201 20 c14 -9 38 -35 55 -58 16 -23 49 -55 72 -71 84
-59 337 -200 524 -293 216 -107 202 -89 149 -190 -43 -82 -33 -80 -142 -25
-101 51 -327 143 -445 181 l-66 22 -5 72 c-6 73 -54 226 -68 210 -3 -4 -37
-118 -74 -253 -37 -135 -85 -303 -107 -375 l-41 -130 -54 3 -54 4 0 77 c0 110
-18 368 -40 556 -16 141 -16 164 -4 191 21 44 66 85 106 95 48 12 166 3 194
-16z m11081 -16 c2 -16 -1 -19 -9 -11 -5 5 -7 15 -4 21 10 15 12 14 13 -10z
m-30 -36 c0 -7 -2 -11 -4 -9 -2 2 -17 -8 -32 -23 -78 -71 -100 -89 -105 -83
-3 3 -6 1 -6 -5 0 -5 -42 -37 -92 -71 -51 -34 -103 -70 -116 -79 -21 -15 -24
-14 -41 1 -25 23 -46 75 -35 85 5 5 43 26 84 48 41 22 84 44 95 50 11 6 35 17
53 23 17 7 32 16 32 20 0 8 58 26 73 22 4 -1 10 5 13 13 3 8 10 13 14 10 5 -3
11 -1 14 4 9 13 53 8 53 -6z m-1740 -233 c28 0 10 -68 -34 -132 l-25 -38 -53
29 c-29 16 -64 36 -76 44 -50 32 -117 68 -201 109 l-88 43 0 45 c0 40 4 48 37
71 l36 26 196 -99 c107 -54 201 -98 208 -98z m568 51 c-4 -34 -10 -61 -14 -61
-9 0 -5 106 5 121 12 21 16 -1 9 -60z m1292 -156 c-7 -144 -50 -283 -148 -476
-34 -69 -35 -69 -190 -43 -105 18 -183 46 -265 95 -59 36 -164 125 -164 139 0
5 47 60 104 122 169 185 285 262 501 331 159 51 149 51 158 -8 5 -27 6 -99 4
-160z m-7745 144 c174 -103 280 -191 390 -322 53 -64 53 -74 -1 -97 -25 -10
-38 -8 -100 19 -80 34 -242 126 -341 192 -128 87 -260 182 -260 188 0 4 169
70 207 80 2 1 49 -26 105 -60z m1125 15 c8 -21 -13 -42 -28 -27 -13 13 -5 43
11 43 6 0 13 -7 17 -16z m4406 -154 c123 -42 234 -101 347 -186 111 -84 290
-250 290 -269 0 -23 -119 -123 -184 -154 -57 -28 -170 -59 -266 -75 -35 -6
-35 -5 -90 82 -136 216 -198 376 -215 560 -8 86 -12 85 118 42z m-10065 -205
c63 -93 133 -197 156 -230 76 -111 104 -163 108 -201 3 -26 0 -29 -24 -27 -15
1 -78 34 -140 74 -107 69 -295 181 -400 238 -26 14 -51 36 -57 48 -42 92 -7
199 84 255 23 14 45 18 94 16 l65 -3 114 -170z m1358 31 c415 -93 594 -197
1086 -628 32 -28 44 -51 76 -148 21 -63 47 -148 57 -188 21 -88 14 -121 -40
-194 l-35 -48 -153 0 c-287 0 -486 30 -663 100 -85 34 -383 185 -430 218 -16
11 -48 32 -71 46 -37 22 -45 34 -63 93 -31 96 -37 259 -16 383 24 133 112 390
134 390 5 0 58 -11 118 -24z m9855 -7 c126 -43 178 -189 106 -298 -79 -119
-267 -109 -334 18 -80 153 67 334 228 280z m-9019 -170 c54 -28 97 -54 94 -56
-6 -6 -204 89 -231 111 -19 15 -19 16 9 6 16 -6 73 -33 128 -61z m17911 -209
c49 -55 81 -124 99 -209 l13 -64 -29 -21 c-82 -59 -456 -350 -677 -526 -238
-190 -438 -340 -454 -340 -3 0 5 21 19 47 15 25 24 48 22 51 -3 2 -16 -19 -30
-47 -15 -28 -23 -51 -19 -51 5 0 3 -4 -4 -8 -15 -10 -105 -189 -166 -332 -148
-347 -278 -775 -411 -1352 -138 -596 -168 -795 -167 -1101 2 -411 62 -686 259
-1178 119 -296 162 -451 162 -584 0 -156 -37 -253 -155 -400 -80 -101 -152
-170 -306 -296 -377 -310 -666 -455 -1055 -531 -104 -19 -150 -22 -359 -22
-223 0 -249 2 -370 27 -360 77 -633 169 -1355 457 -462 184 -610 253 -826 382
-45 26 -85 48 -89 48 -11 0 -173 114 -250 175 -123 99 -240 212 -422 407
l-177 190 24 45 c31 58 93 128 107 120 6 -4 36 -44 67 -90 182 -271 461 -496
926 -744 96 -51 186 -96 200 -99 14 -3 84 -32 155 -64 235 -105 1077 -414
1415 -520 417 -130 643 -174 905 -174 160 0 193 3 292 26 127 30 262 81 373
141 201 108 489 324 651 488 152 155 199 250 199 411 0 148 -25 239 -160 579
-145 361 -201 553 -242 814 -26 170 -31 562 -9 735 40 322 201 1041 341 1525
140 487 280 832 435 1079 68 110 281 392 425 566 157 190 165 195 55 35 -185
-268 -362 -543 -405 -626 -28 -54 11 3 83 122 142 234 494 723 602 838 39 41
96 94 129 118 l58 43 40 -22 c23 -13 59 -43 81 -68z m-20007 -96 c143 -85 216
-194 314 -463 l52 -144 -23 -19 c-44 -34 -143 -78 -191 -84 -54 -8 -118 6
-199 42 l-56 25 -18 97 c-24 128 -31 315 -15 395 17 90 51 187 64 187 7 0 39
-16 72 -36z m11734 3 c0 -7 -6 -22 -14 -32 -13 -18 -14 -18 -21 4 -5 16 -3 26
6 32 20 12 29 11 29 -4z m-345 -53 c121 -24 228 -84 368 -207 l39 -34 -42 -83
c-118 -235 -228 -365 -384 -457 -50 -29 -95 -53 -101 -53 -14 0 -81 210 -96
304 -15 90 -7 322 16 454 l18 104 56 -7 c31 -3 87 -13 126 -21z m-575 -141
c86 -242 107 -376 90 -567 -7 -67 -13 -122 -14 -123 -1 -2 -10 3 -19 10 -13
10 -14 20 -7 57 5 25 9 64 10 87 0 41 -1 42 -42 54 -51 13 -137 5 -181 -17
l-31 -16 -54 56 -55 57 34 30 c19 16 80 60 136 99 94 63 117 91 60 75 -29 -9
-151 -85 -207 -129 -33 -26 -48 -32 -57 -24 -21 17 -103 136 -103 149 0 32
142 195 210 242 48 33 144 76 171 77 12 0 28 -32 59 -117z m-11166 11 c9 -3
16 -17 16 -30 0 -21 -2 -22 -30 -13 -33 12 -36 19 -18 37 14 14 12 14 32 6z
m-1738 -125 c10 -17 -23 -46 -37 -32 -7 7 -9 19 -6 27 7 18 33 21 43 5z
m13198 -127 c2 -4 6 -75 7 -157 2 -83 7 -158 12 -169 6 -13 5 -21 -4 -28 -11
-7 -11 -11 -1 -15 6 -2 12 -11 12 -19 0 -9 -4 -12 -10 -9 -13 8 -13 -1 1 -27
9 -16 8 -19 -3 -12 -11 7 -11 5 0 -9 8 -9 12 -22 9 -29 -2 -7 0 -22 5 -33 9
-20 9 -20 -6 -1 -9 11 -17 16 -17 10 -1 -5 -2 -15 -3 -21 0 -7 -4 -13 -8 -13
-31 0 -32 0 -21 11 6 6 9 17 6 25 -4 11 -10 10 -31 -2 -25 -15 -25 -15 -8 0
17 14 18 16 3 16 -9 0 -17 5 -17 11 0 5 4 8 8 5 4 -2 8 4 8 15 0 21 -12 25
-20 7 -2 -7 -3 -2 -2 12 2 14 -2 31 -8 39 -8 11 -8 15 0 18 7 2 10 13 7 23 -3
11 -8 18 -12 15 -4 -2 -8 8 -9 23 -1 28 -4 49 -18 124 -4 24 -9 50 -10 58 -1
8 -6 31 -11 50 -13 58 -10 74 17 81 35 10 118 11 124 1z m-1209 -41 c5 -9
-170 -154 -285 -236 l-55 -39 30 33 c39 44 283 251 295 251 5 0 11 -4 15 -9z
m-10795 -125 c118 -30 294 -71 390 -91 204 -42 249 -61 290 -122 102 -155 -23
-361 -207 -340 -31 3 -93 35 -230 116 -103 62 -268 151 -365 199 -128 63 -176
91 -173 102 3 11 78 190 80 190 0 0 97 -24 215 -54z m13783 10 c3 -8 -1 -17
-10 -20 -20 -8 -25 -3 -17 18 8 20 20 21 27 2z m-353 -31 c339 -55 427 -102
643 -345 146 -164 136 -142 91 -196 -192 -228 -223 -329 -157 -494 92 -225
189 -400 253 -454 70 -59 134 -30 332 150 73 66 167 149 208 183 87 74 268
201 285 201 18 0 153 -129 239 -228 97 -114 163 -152 261 -152 73 0 114 13
172 52 58 39 89 87 119 188 53 172 118 262 257 354 45 29 93 67 106 85 23 30
26 31 101 31 87 0 234 -23 286 -45 60 -25 139 -83 281 -207 163 -142 248 -207
363 -276 246 -149 718 -255 1105 -250 l110 1 -152 8 c-410 20 -637 107 -937
361 -226 191 -385 288 -576 352 -156 52 -260 68 -455 71 -182 2 -179 1 -153
53 13 26 51 28 206 11 376 -41 646 -160 899 -399 235 -221 482 -341 733 -357
125 -7 206 6 397 68 195 63 373 139 633 269 110 55 200 97 200 93 0 -11 -93
-387 -96 -392 -2 -2 -54 -16 -116 -32 -62 -15 -103 -28 -91 -28 24 -1 153
-153 153 -182 0 -9 -11 -72 -25 -140 -86 -419 -185 -1021 -185 -1128 0 -25 -3
-63 -7 -85 -6 -38 -7 -39 -132 -98 -69 -33 -168 -78 -219 -100 -51 -23 -91
-43 -88 -45 2 -2 99 39 217 91 117 53 214 95 215 93 1 -1 4 -77 7 -168 l5
-167 -49 -22 c-27 -13 -47 -25 -45 -27 2 -3 23 5 46 17 23 12 44 20 46 17 2
-2 11 -58 19 -124 39 -314 94 -508 277 -971 66 -167 131 -347 144 -400 59
-230 16 -418 -137 -595 -183 -214 -503 -466 -734 -577 -200 -97 -352 -132
-571 -131 -379 1 -767 110 -1878 531 -521 197 -781 322 -1074 516 -166 110
-284 207 -398 325 -195 204 -265 328 -379 674 -113 343 -192 511 -348 745
-104 155 -186 261 -305 393 -149 166 -279 324 -309 375 l-25 43 26 59 c46 103
69 214 63 304 -5 69 -10 85 -39 128 -81 116 -228 206 -548 338 -305 126 -491
220 -955 482 -115 66 -290 159 -387 208 l-177 88 112 109 c99 96 239 213 256
213 9 0 54 -58 158 -203 125 -175 173 -210 298 -210 50 -1 83 5 115 19 81 37
120 86 209 264 115 230 187 334 304 435 55 48 199 126 407 222 112 51 122 51
390 8z m-6270 -34 c265 -54 458 -109 705 -201 124 -47 404 -189 515 -262 63
-42 149 -96 190 -120 127 -75 255 -255 293 -413 32 -130 38 -114 -68 -183
-126 -83 -228 -166 -362 -295 l-112 -109 -56 26 c-80 36 -224 122 -432 257
-393 256 -498 300 -973 409 -159 37 -369 99 -477 141 -120 47 -149 76 -139
137 7 48 123 347 169 437 19 39 56 90 81 115 42 40 56 47 154 72 96 25 120 27
232 24 86 -3 173 -14 280 -35z m-1813 -28 c96 -44 206 -264 188 -372 -9 -54
-41 -68 -218 -96 -156 -25 -378 -69 -297 -59 25 3 110 14 190 25 172 22 320
24 412 4 37 -7 170 -54 295 -103 388 -153 663 -234 1058 -313 330 -66 464
-128 886 -410 103 -69 243 -154 313 -190 69 -35 126 -67 126 -70 0 -3 -33 -18
-72 -34 -139 -54 -261 -136 -284 -192 -18 -43 -6 -100 42 -195 l36 -71 -26
-91 c-105 -375 -116 -693 -50 -1378 15 -153 25 -280 22 -283 -3 -3 -30 6 -60
19 -100 44 -307 116 -451 156 -136 38 -324 67 -555 85 -65 6 -85 11 -89 24
-79 247 -193 416 -329 487 -123 66 -244 82 -614 83 -866 3 -1345 -100 -1800
-387 l-95 -60 -39 21 c-21 12 -94 64 -162 115 l-125 93 -104 158 c-284 429
-341 623 -370 1271 l-6 135 48 19 c138 56 260 159 390 329 163 216 226 282
369 395 16 13 0 4 -34 -20 -89 -59 -200 -173 -317 -323 -128 -166 -194 -236
-271 -291 -62 -44 -171 -100 -180 -91 -8 8 17 107 28 107 21 0 149 83 202 131
54 49 140 166 166 226 11 24 24 33 60 42 101 26 196 118 226 219 19 61 18 158
-2 216 l-16 47 29 37 c84 104 319 240 553 320 63 22 231 85 372 141 225 89
330 126 403 144 31 8 117 -3 152 -20z m-2517 -97 c96 -14 228 -30 293 -37
l117 -11 0 -47 c0 -25 4 -62 10 -80 9 -34 8 -36 -53 -93 -34 -32 -66 -58 -72
-58 -5 0 -82 31 -170 69 -88 38 -215 86 -282 107 -97 31 -121 42 -117 54 4 8
13 41 22 73 15 58 15 59 46 54 17 -3 110 -17 206 -31z m8157 -18 c46 -17 85
-33 88 -38 2 -4 -48 -59 -113 -121 -94 -91 -137 -124 -212 -166 -163 -88 -384
-156 -550 -168 -52 -4 -114 -10 -137 -14 -39 -8 -42 -7 -32 11 21 39 197 205
266 251 152 101 551 291 588 280 11 -3 57 -19 102 -35z m1497 -14 c9 -4 21
-15 27 -25 11 -22 17 -11 -139 -236 -51 -73 -92 -135 -92 -137 0 -8 -61 -95
-71 -101 -5 -4 -7 -11 -4 -16 4 -5 -1 -12 -9 -15 -9 -3 -13 -10 -10 -15 3 -5
0 -9 -5 -9 -6 0 -11 -5 -11 -10 0 -21 -51 -87 -76 -99 -33 -14 -123 -14 -150
2 -12 7 -50 46 -84 87 -99 119 -177 205 -287 315 -57 56 -103 108 -103 115 0
6 16 30 35 53 19 22 35 44 35 49 0 16 28 7 67 -21 23 -16 44 -27 47 -24 3 4 6
1 6 -5 0 -6 16 -16 35 -23 19 -7 35 -17 35 -23 0 -5 3 -7 6 -4 3 4 22 -5 41
-18 20 -13 41 -24 48 -24 7 0 24 -9 39 -21 14 -11 26 -18 26 -14 0 3 12 -2 28
-12 15 -10 39 -25 55 -33 15 -7 27 -20 27 -27 0 -10 7 -8 22 6 12 12 30 23 40
27 10 3 18 10 18 15 0 5 6 9 14 9 8 0 21 6 28 13 22 22 137 97 148 97 5 0 10
5 10 10 0 6 5 10 11 10 6 0 28 13 49 30 30 23 118 79 127 80 1 0 9 -3 17 -6z
m2154 -35 c116 -57 146 -207 59 -306 -39 -45 -82 -63 -147 -63 -110 0 -192 82
-192 189 1 85 40 147 117 182 53 25 109 24 163 -2z m-3448 -39 c22 -11 40 -24
40 -29 0 -5 -95 -102 -212 -216 -198 -193 -214 -207 -243 -202 -98 17 -228 37
-279 42 l-58 7 103 34 c57 19 163 64 236 99 122 61 139 73 245 175 62 60 117
109 121 110 4 0 26 -9 47 -20z m-1003 -42 c17 -18 38 -47 47 -64 l15 -32 -39
-26 c-42 -27 -188 -155 -276 -241 -46 -45 -60 -53 -135 -71 -46 -12 -91 -24
-100 -28 -13 -5 -23 4 -42 38 l-25 45 33 25 c18 14 39 31 47 39 7 7 43 34 80
60 85 60 274 215 312 256 17 17 35 31 41 31 6 0 25 -15 42 -32z m-7512 -53
c55 -18 129 -47 165 -64 60 -29 62 -31 26 -25 -73 11 -210 55 -291 94 -71 35
-76 39 -40 34 22 -4 85 -21 140 -39z m705 41 c0 -3 -4 -8 -10 -11 -5 -3 -10
-1 -10 4 0 6 5 11 10 11 6 0 10 -2 10 -4z m-12 -38 c-3 -7 -15 -43 -27 -80
-18 -54 -27 -68 -43 -68 -14 0 -18 5 -14 16 3 9 9 33 12 55 4 21 12 39 19 39
6 0 18 11 25 25 14 25 36 36 28 13z m-2202 -61 c13 -36 -91 -262 -168 -366
-57 -76 -201 -233 -251 -274 l-43 -35 -90 51 c-156 88 -303 142 -447 162 l-48
6 17 27 c34 55 126 178 164 221 l39 45 58 -29 c113 -55 265 -44 367 27 26 18
81 57 122 87 42 30 97 62 123 72 56 22 149 25 157 6z m1588 -76 c193 -57 681
-161 759 -161 75 -1 165 -72 186 -147 17 -60 13 -95 -16 -154 -61 -120 -198
-151 -316 -71 -144 98 -568 314 -729 372 -54 19 -98 39 -98 45 0 5 12 45 26
88 19 58 30 77 40 73 8 -3 75 -23 148 -45z m12946 -47 c-16 -42 -65 -107 -114
-152 -54 -50 -56 -50 -190 -1 -118 44 -117 41 -39 81 103 53 237 94 320 97 31
1 32 0 23 -25z m-1428 -33 c61 -66 111 -97 188 -116 36 -9 82 -21 104 -26 l39
-10 -39 -42 -39 -42 40 38 c37 34 85 50 85 28 0 -4 -45 -45 -100 -90 -55 -45
-100 -79 -100 -76 0 4 -18 -7 -39 -24 -45 -36 -51 -37 -92 -16 -45 24 -190
130 -218 159 -25 26 -25 26 -8 79 16 48 109 187 126 187 5 0 28 -22 53 -49z
m-12127 -27 c256 -24 425 -64 592 -140 82 -37 283 -153 283 -163 0 -3 -16 -30
-36 -59 -43 -64 -148 -177 -256 -274 -89 -80 -70 -74 -343 -113 -432 -61 -619
-55 -896 29 -190 58 -279 95 -279 117 0 10 13 60 30 111 56 176 139 273 380
445 l105 75 130 -7 c72 -3 202 -13 290 -21z m12824 -6 c86 -28 211 -86 211
-98 0 -15 -35 -80 -59 -110 l-20 -25 -43 35 c-65 51 -157 144 -152 152 3 5 1
8 -5 8 -19 0 9 49 28 50 3 0 21 -5 40 -12z m-13809 -319 c0 -27 -44 -144 -158
-419 -109 -261 -111 -265 -149 -282 -126 -57 -283 46 -283 188 0 43 24 81 89
138 36 33 153 142 259 243 l193 183 24 -17 c13 -10 25 -25 25 -34z m-885 15
c71 -18 150 -46 208 -75 70 -35 207 -114 207 -119 0 -3 -31 -36 -68 -73 l-68
-68 -70 12 c-126 22 -424 12 -569 -17 l-29 -7 32 37 c18 20 49 69 68 109 20
40 57 107 82 150 l45 79 51 -7 c28 -4 78 -13 111 -21z m14789 -22 c4 -7 -109
-83 -201 -136 -32 -18 -7 19 63 93 l76 81 28 -15 c16 -8 31 -19 34 -23z
m-16304 -37 c0 -12 -350 -105 -529 -140 -97 -19 -271 -34 -271 -23 0 5 10 8
23 8 27 0 151 26 357 76 85 20 211 47 280 59 148 27 140 26 140 20z m21139
-117 c61 -185 90 -382 68 -463 -8 -29 -10 -27 -37 44 -16 40 -38 103 -49 140
-21 68 -62 128 -81 116 -6 -3 -10 -1 -10 6 0 14 -47 59 -54 52 -3 -3 -13 0
-22 8 -11 8 -19 10 -21 4 -2 -6 -23 -10 -48 -9 -25 1 -45 -1 -45 -5 0 -3 -14
-6 -30 -6 -21 0 -29 4 -25 13 3 8 5 19 5 26 0 6 21 21 48 31 26 11 97 45 157
77 61 32 111 58 112 58 1 0 15 -42 32 -92z m-734 -259 c-9 -35 -18 -66 -20
-68 -2 -2 -34 18 -71 44 l-67 48 84 21 c46 12 85 21 87 20 2 -1 -4 -30 -13
-65z m-9350 30 c39 -6 102 -20 140 -31 74 -21 234 -84 248 -97 13 -13 -163
-127 -244 -159 -232 -92 -438 -139 -692 -158 l-89 -7 27 54 c53 105 97 169
126 185 49 25 109 85 134 133 47 93 130 112 350 80z m-10125 -224 c-54 -312
-310 -763 -629 -1105 l-51 -55 5 95 c14 228 41 385 95 554 100 313 266 521
517 652 l68 36 3 -54 c2 -29 -2 -84 -8 -123z m1697 136 c100 -17 241 -36 313
-42 98 -10 130 -16 130 -26 0 -18 -21 -157 -25 -161 -1 -1 -60 5 -131 14 -92
12 -217 17 -437 18 l-308 1 33 24 c18 14 74 66 123 117 52 53 96 90 105 88 8
-2 97 -17 197 -33z m-1607 -226 c-28 -158 -126 -374 -260 -573 -174 -259 -510
-628 -730 -804 -44 -35 -110 -73 -110 -64 0 3 98 103 218 223 389 389 590 648
737 948 67 138 102 233 132 355 l18 75 3 -45 c2 -25 -2 -76 -8 -115z m2388 40
c53 -8 115 -18 137 -24 39 -9 39 -9 8 -10 -43 -1 -248 27 -276 39 -21 8 -21 9
6 9 15 1 71 -6 125 -14z m-297 -109 c144 -33 291 -85 241 -86 -66 0 -260 33
-411 71 -85 22 -157 42 -160 45 -14 16 224 -7 330 -30z m6274 -174 c-14 -21
-45 -83 -70 -137 l-44 -99 -22 48 c-33 75 -12 116 94 185 34 23 63 41 65 41 1
0 -9 -17 -23 -38z m11231 -230 c39 -151 55 -283 45 -382 -9 -83 -9 -85 -52
-122 -24 -21 -84 -65 -132 -99 -76 -53 -87 -58 -82 -37 3 13 16 82 30 153 13
72 50 247 82 389 65 294 59 288 109 98z m-10181 11 c113 -190 247 -466 294
-606 52 -158 71 -254 71 -360 -1 -94 -11 -148 -42 -214 -26 -55 -90 -123 -96
-102 -20 77 -94 98 -222 62 -33 -9 -62 -14 -65 -11 -15 15 -59 391 -75 638
-15 227 -1 459 41 658 6 28 13 52 17 52 4 0 39 -53 77 -117z m10402 -485 c-3
-35 -18 -97 -33 -138 -24 -65 -40 -87 -114 -164 -98 -102 -311 -269 -324 -255
-5 5 11 261 20 311 5 33 13 41 62 69 71 40 197 127 276 190 41 34 69 49 89 49
l30 0 -6 -62z m-16410 -5 c53 -156 139 -363 279 -670 21 -48 22 -54 8 -68 -9
-9 -15 -18 -13 -19 7 -7 321 -181 431 -240 l107 -57 -20 -43 c-10 -25 -22 -65
-25 -91 -6 -37 -10 -45 -23 -40 -54 21 -421 91 -581 111 -67 8 -100 24 -134
64 -34 41 -40 67 -70 325 -29 242 -70 462 -114 600 l-28 90 81 26 c98 33 94
33 102 12z m2329 -588 c162 -28 220 -45 621 -185 123 -43 280 -125 357 -186
38 -30 65 -54 59 -54 -6 0 -53 20 -104 44 -177 84 -208 89 -579 91 l-325 2
310 -7 c274 -6 319 -9 390 -29 78 -21 245 -95 195 -86 -51 9 -550 64 -685 76
-77 6 -214 12 -305 12 -206 0 -278 -15 -535 -112 l-184 -70 -103 10 c-57 5
-116 12 -133 15 -16 3 -48 8 -70 10 -76 7 -258 56 -278 74 -12 11 178 147 299
214 154 87 353 152 548 181 130 18 413 19 522 0z m-470 -460 c4 -9 -4 -66 -16
-128 -27 -132 -59 -196 -127 -254 -45 -38 -112 -78 -117 -71 -2 2 -13 24 -25
50 -26 55 -124 150 -210 203 -34 21 -61 41 -61 44 0 7 358 135 435 156 69 19
114 19 121 0z m-1162 -226 l39 -11 -67 -41 c-38 -23 -114 -74 -170 -113 -87
-61 -213 -134 -231 -134 -8 0 112 112 235 219 111 96 121 100 194 80z m318
-66 c-21 -47 -26 -73 -27 -138 0 -92 16 -131 84 -204 23 -24 40 -45 39 -47 -9
-8 -502 -224 -542 -238 -27 -9 -77 -16 -111 -16 -50 0 -69 5 -106 29 -88 57
-159 152 -159 214 0 35 6 46 46 84 77 74 191 138 409 230 43 18 365 135 392
142 1 1 -10 -25 -25 -56z m-190 24 c29 -12 27 -13 -84 -53 -62 -23 -138 -51
-168 -63 -53 -21 -54 -21 -30 -1 14 11 65 47 115 81 94 63 99 64 167 36z m446
-174 c5 -17 -26 -29 -40 -15 -6 6 -7 15 -3 22 9 14 37 9 43 -7z m-2073 -1029
c17 -34 20 -59 20 -204 0 -150 -2 -171 -24 -230 -35 -93 -109 -189 -225 -288
-56 -48 -108 -93 -116 -101 -28 -27 -235 -158 -419 -265 -407 -237 -748 -384
-1046 -451 -181 -40 -195 -33 -82 41 101 67 217 155 317 239 198 169 594 536
705 655 142 152 384 370 411 370 7 0 109 74 132 97 58 57 271 185 297 179 6
-1 19 -20 30 -42z m716 -280 c29 -54 114 -189 188 -299 153 -228 209 -317 222
-354 8 -24 6 -23 -22 9 -61 69 -228 297 -294 400 -130 205 -241 460 -212 489
9 9 18 -8 38 -67 15 -43 50 -123 80 -178z m-135 51 c57 -176 145 -345 354
-680 212 -339 256 -438 248 -557 -5 -80 -33 -138 -104 -217 -378 -417 -1136
-428 -2004 -27 -139 64 -490 262 -490 276 0 3 33 18 73 34 227 91 872 454
1012 569 17 14 71 56 120 95 50 38 184 156 299 263 115 107 229 210 255 229
25 19 80 64 121 99 l75 65 12 -50 c7 -27 20 -71 29 -99z m-1788 -1380 c33 -14
133 -61 222 -105 558 -279 1038 -391 1446 -335 114 15 186 31 293 64 82 26 64
4 -29 -34 -155 -65 -321 -95 -525 -95 -269 1 -531 50 -897 171 -286 94 -464
168 -537 223 -73 55 -95 128 -40 135 3 1 33 -10 67 -24z"/>
<path d="M15869 12673 c-13 -16 -12 -17 4 -4 9 7 17 15 17 17 0 8 -8 3 -21
-13z"/>
<path d="M16600 12390 c0 -11 2 -20 4 -20 2 0 6 9 9 20 3 11 1 20 -4 20 -5 0
-9 -9 -9 -20z"/>
<path d="M16586 12329 c-3 -18 -4 -34 -2 -36 2 -3 7 10 11 27 4 17 5 34 2 36
-2 3 -7 -10 -11 -27z"/>
<path d="M15954 12278 l-19 -23 25 20 c14 11 27 21 29 22 2 2 0 3 -6 3 -5 0
-18 -10 -29 -22z"/>
<path d="M16552 12213 c-6 -20 -10 -39 -8 -41 2 -2 9 13 16 33 7 20 10 38 8
41 -3 2 -10 -13 -16 -33z"/>
<path d="M16486 12045 c-9 -26 -7 -32 5 -12 6 10 9 21 6 23 -2 3 -7 -2 -11
-11z"/>
<path d="M16457 11975 c-24 -50 -20 -58 4 -12 11 22 19 41 17 43 -3 2 -12 -12
-21 -31z"/>
<path d="M14220 10990 c-9 -6 -10 -10 -3 -10 6 0 15 5 18 10 8 12 4 12 -15 0z"/>
<path d="M15323 6995 c-3 -9 -3 -19 1 -22 3 -4 6 1 6 11 0 9 5 14 10 11 6 -3
10 -1 10 4 0 17 -20 13 -27 -4z"/>
<path d="M22248 5953 c7 -3 16 -2 19 1 4 3 -2 6 -13 5 -11 0 -14 -3 -6 -6z"/>
<path d="M22198 5943 c6 -2 18 -2 25 0 6 3 1 5 -13 5 -14 0 -19 -2 -12 -5z"/>
<path d="M22148 5933 c7 -3 16 -2 19 1 4 3 -2 6 -13 5 -11 0 -14 -3 -6 -6z"/>
<path d="M22078 5923 c6 -2 18 -2 25 0 6 3 1 5 -13 5 -14 0 -19 -2 -12 -5z"/>
<path d="M22013 5913 c9 -2 23 -2 30 0 6 3 -1 5 -18 5 -16 0 -22 -2 -12 -5z"/>
<path d="M21933 5903 c9 -2 25 -2 35 0 9 3 1 5 -18 5 -19 0 -27 -2 -17 -5z"/>
<path d="M21838 5893 c12 -2 32 -2 45 0 12 2 2 4 -23 4 -25 0 -35 -2 -22 -4z"/>
<path d="M21740 4160 c-19 -11 -30 -19 -25 -19 6 0 26 8 45 19 19 11 31 19 25
19 -5 0 -26 -8 -45 -19z"/>
<path d="M21660 4125 c-14 -8 -20 -14 -15 -14 6 0 21 6 35 14 14 8 21 14 15
14 -5 0 -21 -6 -35 -14z"/>
<path d="M21590 4095 c-14 -8 -20 -14 -15 -14 6 0 21 6 35 14 14 8 21 14 15
14 -5 0 -21 -6 -35 -14z"/>
<path d="M21530 4070 c-8 -5 -10 -10 -5 -10 6 0 17 5 25 10 8 5 11 10 5 10 -5
0 -17 -5 -25 -10z"/>
<path d="M20663 4015 c17 -16 27 -34 23 -44 -3 -9 -14 -43 -25 -76 -11 -33
-26 -86 -33 -119 -6 -32 -19 -68 -29 -79 -15 -19 -21 -20 -53 -10 -20 6 -34 7
-30 2 3 -5 9 -9 14 -9 5 0 54 -28 110 -61 135 -82 241 -119 340 -118 81 0 185
16 123 18 -63 2 -98 94 -91 245 5 123 24 140 228 205 114 37 94 33 -110 -20
-189 -50 -225 -49 -344 10 -45 22 -97 50 -116 62 l-35 22 28 -28z"/>
<path d="M22120 3970 c-9 -6 -10 -10 -3 -10 6 0 15 5 18 10 8 12 4 12 -15 0z"/>
<path d="M22030 3930 c-9 -6 -10 -10 -3 -10 6 0 15 5 18 10 8 12 4 12 -15 0z"/>
<path d="M21148 3523 c7 -3 16 -2 19 1 4 3 -2 6 -13 5 -11 0 -14 -3 -6 -6z"/>
<path d="M8200 6675 c-30 -7 -46 -13 -35 -13 11 -1 47 5 80 12 33 8 49 14 35
14 -14 0 -50 -6 -80 -13z"/>
<path d="M8108 6653 c6 -2 18 -2 25 0 6 3 1 5 -13 5 -14 0 -19 -2 -12 -5z"/>
<path d="M8058 6643 c6 -2 18 -2 25 0 6 3 1 5 -13 5 -14 0 -19 -2 -12 -5z"/>
<path d="M8008 6633 c6 -2 18 -2 25 0 6 3 1 5 -13 5 -14 0 -19 -2 -12 -5z"/>
<path d="M7958 6623 c6 -2 18 -2 25 0 6 3 1 5 -13 5 -14 0 -19 -2 -12 -5z"/>
<path d="M7835 6590 c-13 -5 -14 -9 -5 -9 8 0 24 4 35 9 13 5 14 9 5 9 -8 0
-24 -4 -35 -9z"/>
<path d="M7735 6555 c-25 -12 -26 -14 -5 -9 28 7 60 23 45 23 -5 0 -23 -6 -40
-14z"/>
<path d="M7640 6520 c-8 -5 -10 -10 -5 -10 6 0 17 5 25 10 8 5 11 10 5 10 -5
0 -17 -5 -25 -10z"/>
<path d="M7570 6490 c-8 -5 -10 -10 -5 -10 6 0 17 5 25 10 8 5 11 10 5 10 -5
0 -17 -5 -25 -10z"/>
<path d="M7383 6394 c-24 -14 -43 -27 -43 -30 0 -6 67 33 85 48 17 15 1 8 -42
-18z"/>
<path d="M17815 6430 c-21 -22 -36 -42 -34 -45 3 -2 22 16 43 40 46 56 42 58
-9 5z"/>
<path d="M8733 3813 c20 -2 54 -2 75 0 20 2 3 4 -38 4 -41 0 -58 -2 -37 -4z"/>
<path d="M8603 3803 c15 -2 37 -2 50 0 12 2 0 4 -28 4 -27 0 -38 -2 -22 -4z"/>
<path d="M8508 3793 c12 -2 30 -2 40 0 9 3 -1 5 -23 4 -22 0 -30 -2 -17 -4z"/>
<path d="M8418 3783 c12 -2 30 -2 40 0 9 3 -1 5 -23 4 -22 0 -30 -2 -17 -4z"/>
<path d="M8343 3773 c9 -2 25 -2 35 0 9 3 1 5 -18 5 -19 0 -27 -2 -17 -5z"/>
<path d="M8283 3763 c9 -2 23 -2 30 0 6 3 -1 5 -18 5 -16 0 -22 -2 -12 -5z"/>
<path d="M8218 3753 c6 -2 18 -2 25 0 6 3 1 5 -13 5 -14 0 -19 -2 -12 -5z"/>
<path d="M8163 3743 c9 -2 23 -2 30 0 6 3 -1 5 -18 5 -16 0 -22 -2 -12 -5z"/>
<path d="M8118 3733 c7 -3 16 -2 19 1 4 3 -2 6 -13 5 -11 0 -14 -3 -6 -6z"/>
<path d="M8068 3723 c6 -2 18 -2 25 0 6 3 1 5 -13 5 -14 0 -19 -2 -12 -5z"/>
<path d="M8028 3713 c7 -3 16 -2 19 1 4 3 -2 6 -13 5 -11 0 -14 -3 -6 -6z"/>
<path d="M7935 3695 c-54 -17 -33 -18 30 -1 28 8 41 14 30 14 -11 0 -38 -5
-60 -13z"/>
<path d="M7868 3673 c7 -3 16 -2 19 1 4 3 -2 6 -13 5 -11 0 -14 -3 -6 -6z"/>
<path d="M2178 14963 c7 -3 16 -2 19 1 4 3 -2 6 -13 5 -11 0 -14 -3 -6 -6z"/>
<path d="M2105 14945 c-39 -17 -21 -18 25 0 19 7 28 14 20 14 -8 0 -28 -6 -45
-14z"/>
<path d="M2040 14920 c-8 -5 -10 -10 -5 -10 6 0 17 5 25 10 8 5 11 10 5 10 -5
0 -17 -5 -25 -10z"/>
<path d="M1975 14890 c-3 -6 1 -7 9 -4 18 7 21 14 7 14 -6 0 -13 -4 -16 -10z"/>
<path d="M1559 14613 c-13 -16 -12 -17 4 -4 9 7 17 15 17 17 0 8 -8 3 -21 -13z"/>
<path d="M1519 14583 c-13 -16 -12 -17 4 -4 9 7 17 15 17 17 0 8 -8 3 -21 -13z"/>
<path d="M1409 14493 c-13 -16 -12 -17 4 -4 16 13 21 21 13 21 -2 0 -10 -8
-17 -17z"/>
<path d="M1334 14428 l-19 -23 23 19 c12 11 22 21 22 23 0 8 -8 2 -26 -19z"/>
<path d="M1279 14373 l-24 -28 28 24 c25 23 32 31 24 31 -2 0 -14 -12 -28 -27z"/>
<path d="M1219 14313 l-24 -28 28 24 c25 23 32 31 24 31 -2 0 -14 -12 -28 -27z"/>
<path d="M1114 14198 l-19 -23 23 19 c21 18 27 26 19 26 -2 0 -12 -10 -23 -22z"/>
<path d="M960 11455 c0 -5 5 -17 10 -25 5 -8 10 -10 10 -5 0 6 -5 17 -10 25
-5 8 -10 11 -10 5z"/>
<path d="M1030 11271 c0 -6 4 -13 10 -16 6 -3 7 1 4 9 -7 18 -14 21 -14 7z"/>
<path d="M1030 9365 c-28 -41 -48 -75 -46 -75 3 0 28 34 56 75 28 41 48 75 46
75 -3 0 -28 -34 -56 -75z"/>
<path d="M940 9235 c-17 -25 -29 -45 -26 -45 3 0 19 20 36 45 17 25 29 45 26
45 -3 0 -19 -20 -36 -45z"/>
<path d="M880 9150 c-12 -16 -19 -30 -16 -30 2 0 14 14 26 30 12 17 19 30 16
30 -2 0 -14 -13 -26 -30z"/>
<path d="M820 9065 c-17 -25 -29 -45 -26 -45 3 0 19 20 36 45 17 25 29 45 26
45 -3 0 -19 -20 -36 -45z"/>
<path d="M750 8968 c-19 -24 -26 -37 -17 -29 19 15 61 71 54 71 -2 0 -19 -19
-37 -42z"/>
<path d="M632 8803 c-85 -128 -101 -154 -85 -138 16 16 174 255 168 255 -2 0
-40 -53 -83 -117z"/>
<path d="M497 8598 c-45 -72 -93 -155 -80 -143 14 14 124 195 118 195 -2 0
-19 -24 -38 -52z"/>
<path d="M385 8410 c-9 -16 -13 -30 -11 -30 3 0 12 14 21 30 9 17 13 30 11 30
-3 0 -12 -13 -21 -30z"/>
<path d="M355 8359 c-4 -6 -5 -12 -2 -15 2 -3 7 2 10 11 7 17 1 20 -8 4z"/>
<path d="M330 8310 c-6 -11 -8 -20 -6 -20 3 0 10 9 16 20 6 11 8 20 6 20 -3 0
-10 -9 -16 -20z"/>
<path d="M236 8125 c-9 -26 -7 -32 5 -12 6 10 9 21 6 23 -2 3 -7 -2 -11 -11z"/>
<path d="M31 7504 c0 -11 3 -14 6 -6 3 7 2 16 -1 19 -3 4 -6 -2 -5 -13z"/>
<path d="M21 7444 c0 -11 3 -14 6 -6 3 7 2 16 -1 19 -3 4 -6 -2 -5 -13z"/>
<path d="M12 7380 c0 -14 2 -19 5 -12 2 6 2 18 0 25 -3 6 -5 1 -5 -13z"/>
<path d="M3 7250 c0 -36 2 -50 4 -32 2 17 2 47 0 65 -2 17 -4 3 -4 -33z"/>
<path d="M3 7105 c0 -44 2 -61 4 -37 2 23 2 59 0 80 -2 20 -4 1 -4 -43z"/>
<path d="M23485 6484 l-30 -26 33 22 c17 12 32 23 32 26 0 7 -4 5 -35 -22z"/>
<path d="M23304 6364 c-18 -14 -18 -15 4 -4 12 6 22 13 22 15 0 8 -5 6 -26
-11z"/>
<path d="M23254 6334 c-18 -14 -18 -15 4 -4 12 6 22 13 22 15 0 8 -5 6 -26
-11z"/>
<path d="M2150 5680 c-6 -11 -8 -20 -6 -20 3 0 10 9 16 20 6 11 8 20 6 20 -3
0 -10 -9 -16 -20z"/>
<path d="M2076 5535 c-9 -26 -7 -32 5 -12 6 10 9 21 6 23 -2 3 -7 -2 -11 -11z"/>
<path d="M2036 5435 c-9 -26 -7 -32 5 -12 6 10 9 21 6 23 -2 3 -7 -2 -11 -11z"/>
<path d="M1991 5294 c0 -11 3 -14 6 -6 3 7 2 16 -1 19 -3 4 -6 -2 -5 -13z"/>
<path d="M1981 5254 c0 -11 3 -14 6 -6 3 7 2 16 -1 19 -3 4 -6 -2 -5 -13z"/>
<path d="M1961 5174 c0 -11 3 -14 6 -6 3 7 2 16 -1 19 -3 4 -6 -2 -5 -13z"/>
<path d="M1952 5130 c0 -14 2 -19 5 -12 2 6 2 18 0 25 -3 6 -5 1 -5 -13z"/>
<path d="M1942 5080 c0 -14 2 -19 5 -12 2 6 2 18 0 25 -3 6 -5 1 -5 -13z"/>
<path d="M1932 5025 c0 -16 2 -22 5 -12 2 9 2 23 0 30 -3 6 -5 -1 -5 -18z"/>
</g>
</svg>
