<?xml version="1.0" encoding="utf-8"?>
<!-- Generator: Adobe Illustrator 22.1.0, SVG Export Plug-In . SVG Version: 6.00 Build 0)  -->
<svg version="1.1" id="Layer_1" xmlns="http://www.w3.org/2000/svg" xmlns:xlink="http://www.w3.org/1999/xlink" x="0px" y="0px"
	 viewBox="0 0 435 435" style="enable-background:new 0 0 435 435;" xml:space="preserve">
<g>
	<g>
		<g>
			<path d="M93.9,84.2v10.6h13.3V84.2c0-1.7,1.3-2.4,2.8-2.4c1.5,0,2.8,0.8,2.8,2.4v27.3c0,1.7-1.3,2.4-2.8,2.4
				c-1.5,0-2.8-0.8-2.8-2.4v-12H93.9v12c0,1.7-1.3,2.4-2.8,2.4c-1.5,0-2.8-0.8-2.8-2.4V84.2c0-1.7,1.3-2.4,2.8-2.4
				C92.6,81.7,93.9,82.5,93.9,84.2z"/>
		</g>
		<g>
			<path d="M139.1,82c1.3,0,2,1.1,2,2.4c0,1.2-0.6,2.4-2,2.4h-13.3v8.4h12.4c1.3,0,1.9,1.1,1.9,2.3c0,1.2-0.6,2.3-1.9,2.3h-12.4v9.2
				h13.6c1.3,0,2,1.1,2,2.4c0,1.3-0.6,2.4-2,2.4h-15.5c-2.8,0-3.8-0.9-3.8-3.7V85.7c0-2.8,0.9-3.7,3.8-3.7H139.1z"/>
		</g>
		<g>
			<path d="M162.4,84.3l10,25.8c0.7,1.7-0.1,3.1-1.6,3.5c-1.5,0.4-3.1,0.3-3.8-1.6l-2.6-7.1h-11.2l-2.6,7.3
				c-0.6,1.7-2.1,1.9-3.6,1.4c-1.4-0.5-2.2-1.6-1.6-3.3l10-26c0.8-2,2-2.6,3.4-2.6C160.4,81.7,161.6,82.3,162.4,84.3z M157.3,93.8
				l-2.4,6.5h7.8l-2.3-6.5c-0.8-2.1-1.2-3.4-1.6-4.9C158.3,90.6,158,91.7,157.3,93.8z"/>
		</g>
		<g>
			<path d="M189,82c9.2,0,14,4.2,14,15v1.6c0,10.8-4.8,15-14,15h-7.3c-2.8,0-3.8-0.9-3.8-3.7V85.7c0-2.8,0.9-3.7,3.8-3.7H189z
				 M183.6,108.8h4.7c6.5,0,9-2.6,9-10.6v-0.8c0-8-2.5-10.6-9-10.6h-4.7V108.8z"/>
		</g>
		<g>
			<path d="M214.8,84.2v27.3c0,1.7-1.3,2.4-2.8,2.4c-1.5,0-2.8-0.8-2.8-2.4V84.2c0-1.7,1.3-2.4,2.8-2.4
				C213.4,81.7,214.8,82.5,214.8,84.2z"/>
		</g>
		<g>
			<path d="M246.9,84v26c0,2.8-0.9,3.7-3.8,3.7c-2.2,0-3-0.4-5.3-4.5l-8.4-15c-0.9-1.6-1.6-3.1-2.1-5.1v22.5c0,1.6-1.3,2.3-2.6,2.3
				s-2.6-0.7-2.6-2.3v-26c0-2.8,0.9-3.7,3.8-3.7c2.2,0,3,0.5,5.3,4.5l8.4,15c0.9,1.6,1.6,3.1,2.1,5.1V84c0-1.6,1.3-2.3,2.6-2.3
				S246.9,82.4,246.9,84z"/>
		</g>
		<g>
			<path d="M276.4,83.9c1.3,0.9,1.4,2.4,0.6,3.6s-2.2,1.5-3.3,0.8c-1.7-1.1-3.8-1.7-6.5-1.7c-6,0-8.5,2.5-8.5,10.7v0.9
				c0,8.2,2.4,10.7,8.8,10.7c2.2,0,3.7-0.3,5.3-0.9v-7.4h-5c-1.4,0-2-1.1-2-2.4c0-1.2,0.6-2.4,2-2.4h6.9c2.8,0,3.8,0.9,3.8,3.7v8.8
				c0,2.3-0.7,3.4-2.6,4.2c-2.4,1-5.5,1.6-8.6,1.6c-9.3,0-14.4-4.1-14.4-15.4v-1.8c0-11.3,5.1-15.4,14.3-15.4
				C271.3,81.5,274.3,82.5,276.4,83.9z"/>
		</g>
	</g>
	<g>
		<path d="M394.5,411.5h-354c-7.2,0-13-5.8-13-13v-354c0-7.2,5.8-13,13-13h354c7.2,0,13,5.8,13,13v354
			C407.5,405.7,401.7,411.5,394.5,411.5z M47.5,391.5h340v-340h-340V391.5z"/>
	</g>
	<g>
		<path d="M397.5,170.5h-360c-5.5,0-10-4.5-10-10s4.5-10,10-10h360c5.5,0,10,4.5,10,10S403,170.5,397.5,170.5z"/>
	</g>
	<g>
		<g>
			<path d="M337.5,231h-240c-3.9,0-7-3.1-7-7s3.1-7,7-7h240c3.9,0,7,3.1,7,7S341.4,231,337.5,231z"/>
		</g>
		<g>
			<path d="M337.5,288h-240c-3.9,0-7-3.1-7-7s3.1-7,7-7h240c3.9,0,7,3.1,7,7S341.4,288,337.5,288z"/>
		</g>
		<g>
			<path d="M217.5,345h-120c-3.9,0-7-3.1-7-7s3.1-7,7-7h120c3.9,0,7,3.1,7,7S221.4,345,217.5,345z"/>
		</g>
	</g>
</g>
</svg>
