<?xml version="1.0" encoding="utf-8"?>
<!-- Generator: Adobe Illustrator 22.1.0, SVG Export Plug-In . SVG Version: 6.00 Build 0)  -->
<svg version="1.1" id="Layer_1" xmlns="http://www.w3.org/2000/svg" xmlns:xlink="http://www.w3.org/1999/xlink" x="0px" y="0px"
	 viewBox="0 0 435 435" style="enable-background:new 0 0 435 435;" xml:space="preserve">
<g>
	<g>
		<g>
			<path d="M50.2,118.9v19h23.9v-19c0-3,2.4-4.4,5.1-4.4c2.7,0,5.1,1.4,5.1,4.4v49c0,3-2.4,4.4-5.1,4.4c-2.7,0-5.1-1.4-5.1-4.4
				v-21.5H50.2v21.5c0,3-2.4,4.4-5.1,4.4s-5.1-1.4-5.1-4.4v-49c0-3,2.4-4.4,5.1-4.4S50.2,115.8,50.2,118.9z"/>
		</g>
		<g>
			<path d="M131.3,115c2.4,0,3.5,1.9,3.5,4.2c0,2.2-1.1,4.2-3.5,4.2h-23.9v15.1h22.3c2.3,0,3.4,1.9,3.4,4.2c0,2.2-1.1,4.2-3.4,4.2
				h-22.3v16.5h24.4c2.4,0,3.5,2,3.5,4.2c0,2.3-1.1,4.2-3.5,4.2H104c-5.1,0-6.8-1.6-6.8-6.6v-43.5c0-5,1.7-6.6,6.8-6.6H131.3z"/>
		</g>
		<g>
			<path d="M173,119.2l18,46.3c1.2,3-0.2,5.5-2.9,6.3c-2.6,0.8-5.6,0.6-6.8-2.9l-4.6-12.8h-20.1l-4.7,13.1c-1.1,3.1-3.8,3.4-6.4,2.6
				c-2.6-0.9-3.9-3-2.8-5.9l18-46.7c1.4-3.7,3.5-4.7,6.2-4.7C169.5,114.5,171.6,115.5,173,119.2z M163.9,136.1l-4.2,11.6h14.1
				l-4.2-11.6c-1.4-3.8-2.1-6.1-2.9-8.9C165.8,130.4,165.1,132.4,163.9,136.1z"/>
		</g>
		<g>
			<path d="M220.9,115c16.5,0,25.2,7.6,25.2,26.9v3c0,19.3-8.6,26.9-25.2,26.9h-13.2c-5.1,0-6.8-1.6-6.8-6.6v-43.5
				c0-5,1.7-6.6,6.8-6.6H220.9z M211.1,163.1h8.5c11.7,0,16.2-4.7,16.2-19.1v-1.4c0-14.4-4.6-19.1-16.2-19.1h-8.5V163.1z"/>
		</g>
		<g>
			<path d="M267.1,118.9v49c0,3-2.4,4.4-5.1,4.4s-5.1-1.4-5.1-4.4v-49c0-3,2.4-4.4,5.1-4.4S267.1,115.8,267.1,118.9z"/>
		</g>
		<g>
			<path d="M324.7,118.6v46.6c0,5-1.7,6.6-6.8,6.6c-3.9,0-5.4-0.8-9.5-8.1l-15.1-27c-1.6-2.9-2.9-5.6-3.8-9.2v40.4
				c0,2.9-2.3,4.2-4.7,4.2s-4.7-1.3-4.7-4.2v-46.6c0-5,1.7-6.6,6.8-6.6c3.9,0,5.4,0.9,9.5,8.1l15.1,27c1.6,2.9,2.9,5.6,3.8,9.2
				v-40.4c0-2.9,2.3-4.2,4.7-4.2S324.7,115.7,324.7,118.6z"/>
		</g>
		<g>
			<path d="M377.6,118.4c2.4,1.7,2.6,4.4,1,6.6c-1.5,2.2-3.9,2.7-5.9,1.4c-3-1.9-6.8-3-11.7-3c-10.7,0-15.3,4.5-15.3,19.2v1.7
				c0,14.7,4.4,19.2,15.8,19.2c3.9,0,6.6-0.5,9.6-1.7v-13.3h-8.9c-2.5,0-3.6-2-3.6-4.3c0-2.2,1.1-4.2,3.6-4.2h12.3
				c5.1,0,6.8,1.6,6.8,6.6v15.8c0,4.1-1.2,6.1-4.6,7.5c-4.2,1.8-9.9,2.9-15.4,2.9c-16.7,0-25.8-7.4-25.8-27.6v-3.3
				c0-20.2,9.1-27.6,25.6-27.6C368.6,114.1,373.9,115.8,377.6,118.4z"/>
		</g>
	</g>
	<g>
		<path d="M393.5,229.2H41.1c-3.9,0-7-3.1-7-7s3.1-7,7-7h352.4c3.9,0,7,3.1,7,7S397.4,229.2,393.5,229.2z"/>
	</g>
	<g>
		<path d="M393.5,279.5H41.1c-3.9,0-7-3.1-7-7s3.1-7,7-7h352.4c3.9,0,7,3.1,7,7S397.4,279.5,393.5,279.5z"/>
	</g>
	<g>
		<path d="M210.7,329.8H41.3c-3.9,0-7-3.1-7-7s3.1-7,7-7h169.4c3.9,0,7,3.1,7,7S214.5,329.8,210.7,329.8z"/>
	</g>
</g>
</svg>
