<?xml version="1.0" standalone="no"?>
<!DOCTYPE svg PUBLIC "-//W3C//DTD SVG 20010904//EN"
 "http://www.w3.org/TR/2001/REC-SVG-20010904/DTD/svg10.dtd">
<svg version="1.0" xmlns="http://www.w3.org/2000/svg"
 width="200.000000pt" height="177.000000pt" viewBox="0 0 200.000000 177.000000"
 preserveAspectRatio="xMidYMid meet">

<g transform="translate(0.000000,177.000000) scale(0.100000,-0.100000)"
fill="#000000" stroke="none">
<path d="M1048 1593 c-14 -16 -134 -158 -268 -318 -134 -159 -248 -296 -255
-303 -9 -10 -30 17 -96 122 l-84 134 -123 4 c-67 2 -122 -1 -122 -5 0 -4 71
-92 158 -195 l159 -186 -51 -62 c-28 -34 -111 -132 -184 -218 l-132 -156 127
0 128 1 100 159 c55 88 103 158 106 157 3 -1 30 -31 60 -67 316 -375 515 -608
531 -625 23 -22 2 12 -159 260 -262 406 -317 492 -336 525 l-19 35 144 225
c79 124 190 296 246 383 56 86 100 157 99 157 -2 0 -15 -12 -29 -27z"/>
<path d="M836 1185 c-20 -30 -36 -58 -36 -61 0 -4 50 -4 112 -1 l112 7 -94
-97 c-52 -54 -114 -116 -138 -139 l-43 -42 73 -7 c197 -18 278 -71 278 -184 0
-111 -64 -190 -182 -225 l-37 -11 21 -34 21 -33 62 6 c187 19 288 123 289 296
0 86 -21 139 -76 185 -37 32 -124 75 -150 75 -10 0 -18 3 -18 7 0 4 69 76 152
160 l153 153 -231 0 -231 0 -37 -55z"/>
<path d="M1306 1180 l-59 -61 -3 -134 c-3 -132 -2 -135 27 -192 25 -49 30 -70
30 -135 0 -65 -4 -88 -27 -135 -15 -32 -28 -69 -28 -83 l-1 -25 150 -1 c183
-2 245 6 324 42 77 34 150 111 183 192 20 50 23 75 23 192 0 128 -1 138 -29
198 -37 81 -116 155 -189 178 -34 10 -103 17 -197 20 l-145 5 -59 -61z m285
-61 c78 -17 139 -82 164 -172 46 -171 -17 -378 -141 -457 -38 -24 -133 -50
-182 -50 -9 0 -12 89 -12 345 l0 345 60 0 c32 0 82 -5 111 -11z"/>
<path d="M745 390 c28 -12 37 -12 30 0 -3 6 -16 10 -28 9 -21 0 -21 -1 -2 -9z"/>
</g>
</svg>
