<?xml version="1.0" encoding="utf-8"?>
<!-- Generator: Adobe Illustrator 22.1.0, SVG Export Plug-In . SVG Version: 6.00 Build 0)  -->
<svg version="1.1" id="Layer_1" xmlns="http://www.w3.org/2000/svg" xmlns:xlink="http://www.w3.org/1999/xlink" x="0px" y="0px"
	 viewBox="0 0 435 435" style="enable-background:new 0 0 435 435;" xml:space="preserve">
<g>
	<path d="M390.5,408.5h-34v-14h34V408.5z M325.5,408.5h-34v-14h34V408.5z M260.5,408.5h-34v-14h34V408.5z M195.5,408.5h-34v-14h34
		V408.5z M130.5,408.5h-34v-14h34V408.5z M65.5,408.5h-14c-6.6,0-12.9-3.1-16.8-8.4l-4.2-5.6l11.2-8.4l4.2,5.6
		c1.3,1.8,3.4,2.8,5.6,2.8h14V408.5z M404.5,385.5h-14v-34h14V385.5z M44.5,358.5h-14v-34h14V358.5z M404.5,320.5h-14v-34h14V320.5z
		 M44.5,293.5h-14v-34h14V293.5z M404.5,255.5h-14v-34h14V255.5z M44.5,228.5h-14v-34h14V228.5z M404.5,190.5h-14v-34h14V190.5z
		 M44.5,163.5h-14v-34h14V163.5z M404.5,125.5h-14v-34h14V125.5z M44.5,98.5h-14v-34h14V98.5z M391.4,61.4l-1-6.9
		c-0.5-3.4-3.5-6-6.9-6h-7v-14h7c10.4,0,19.3,7.7,20.8,18l1,6.9L391.4,61.4z M345.5,48.5h-34v-14h34V48.5z M280.5,48.5h-34v-14h34
		V48.5z M215.5,48.5h-34v-14h34V48.5z M150.5,48.5h-34v-14h34V48.5z M85.5,48.5h-34v-14h34V48.5z"/>
</g>
<g>
	<path d="M217.5,408.5c-3.9,0-7-3.1-7-7v-360c0-3.9,3.1-7,7-7s7,3.1,7,7v360C224.5,405.4,221.4,408.5,217.5,408.5z"/>
</g>
<g>
	<path d="M397.5,228.5h-360c-3.9,0-7-3.1-7-7s3.1-7,7-7h360c3.9,0,7,3.1,7,7S401.4,228.5,397.5,228.5z"/>
</g>
</svg>
