<?xml version="1.0" encoding="utf-8"?>
<!-- Generator: Adobe Illustrator 22.1.0, SVG Export Plug-In . SVG Version: 6.00 Build 0)  -->
<svg version="1.1" id="Layer_1" xmlns="http://www.w3.org/2000/svg" xmlns:xlink="http://www.w3.org/1999/xlink" x="0px" y="0px"
	 viewBox="0 0 435 435" style="enable-background:new 0 0 435 435;" xml:space="preserve">
<g>
	<g>
		<path d="M367.5,357.6H67.5c-5.5,0-10-4.5-10-10s4.5-10,10-10h299.9c5.5,0,10,4.5,10,10S373,357.6,367.5,357.6z"/>
	</g>
	<g>
		<g>
			<path d="M95.7,304.8c-5.5,0-10-4.5-10-10v-42.1c0-5.5,4.5-10,10-10s10,4.5,10,10v42.1C105.7,300.3,101.2,304.8,95.7,304.8z"/>
		</g>
		<g>
			<path d="M136.3,304.8c-5.5,0-10-4.5-10-10v-68.3c0-5.5,4.5-10,10-10s10,4.5,10,10v68.3C146.3,300.3,141.8,304.8,136.3,304.8z"/>
		</g>
		<g>
			<path d="M176.9,304.8c-5.5,0-10-4.5-10-10V184.9c0-5.5,4.5-10,10-10s10,4.5,10,10v109.8C186.9,300.3,182.4,304.8,176.9,304.8z"/>
		</g>
		<g>
			<path d="M217.5,304.8c-5.5,0-10-4.5-10-10V95.4c0-5.5,4.5-10,10-10s10,4.5,10,10v199.3C227.5,300.3,223,304.8,217.5,304.8z"/>
		</g>
		<g>
			<path d="M258.1,304.8c-5.5,0-10-4.5-10-10V139.5c0-5.5,4.5-10,10-10s10,4.5,10,10v155.2C268.1,300.3,263.6,304.8,258.1,304.8z"/>
		</g>
		<g>
			<path d="M298.7,304.8c-5.5,0-10-4.5-10-10V184.9c0-5.5,4.5-10,10-10s10,4.5,10,10v109.8C308.7,300.3,304.2,304.8,298.7,304.8z"/>
		</g>
		<g>
			<path d="M339.3,304.8c-5.5,0-10-4.5-10-10v-42.1c0-5.5,4.5-10,10-10s10,4.5,10,10v42.1C349.3,300.3,344.8,304.8,339.3,304.8z"/>
		</g>
	</g>
</g>
</svg>
