<?xml version="1.0" encoding="utf-8"?>
<!-- Generator: Adobe Illustrator 22.1.0, SVG Export Plug-In . SVG Version: 6.00 Build 0)  -->
<svg version="1.1" id="Layer_1" xmlns="http://www.w3.org/2000/svg" xmlns:xlink="http://www.w3.org/1999/xlink" x="0px" y="0px"
	 viewBox="0 0 435 435" style="enable-background:new 0 0 435 435;" xml:space="preserve">
<g>
	<g>
		<path d="M68.3,48.2v36.5c0,12.2-6.5,17.3-17.9,17.3c-4.2,0-8.7-1.4-11.3-3.1c-2.1-1.4-2.2-3.9-1-6.2c1.3-2.2,3.4-2.9,5.8-1.7
			c2.1,1,4,1.6,6.5,1.6c5.3,0,7.7-2.6,7.7-10.4v-34c0-3,2.4-4.4,5.1-4.4S68.3,45.2,68.3,48.2z"/>
	</g>
	<g>
		<path d="M114.8,46.4c2.3,1.2,3,3.8,1.8,6.2c-1.3,2.4-3.4,3-5.7,2c-3.4-1.4-6.2-2-10.4-2c-6.9,0-10.6,3.6-10.6,6.9v0.5
			c0,4,2.2,5.8,12,7.8c13.3,2.7,18.6,8.1,18.6,16.6v0.7c0,10.9-7.3,16.9-21.2,16.9c-6.6,0-13.3-1.8-17.5-4.5
			c-2.6-1.6-2.7-4.4-1.3-6.6c1.5-2.3,3.8-2.9,6.2-1.5c3.8,2.2,8.3,3.4,13.1,3.4c7.3,0,10.5-3,10.5-6.9v-0.6c0-4.5-3.3-6.7-10.9-8.2
			c-13.4-2.6-19.6-6.3-19.6-16.9v-0.6c0-8.9,7.2-16.2,20.6-16.2C106.1,43.4,110.9,44.4,114.8,46.4z"/>
	</g>
	<g>
		<path d="M164.2,64.4c3.1-4.4,7-6.7,13.7-6.7c8.1,0,15.2,5.6,15.2,16.6v23c0,2.9-2.4,4.2-5,4.2c-2.6,0-5-1.4-5-4.2V76.4
			c0-7.9-3.8-9.7-8-9.7c-3.9,0-8.1,2.1-8.1,9.4v21.2c0,2.9-2.4,4.2-5,4.2c-2.6,0-5-1.4-5-4.2V76.2c0-7.4-3.5-9.6-8-9.6
			c-4.7,0-8.1,3-8.1,9v21.6c0,2.9-2.4,4.2-5,4.2c-2.6,0-5-1.4-5-4.2V62.3c0-2.8,2.3-4.1,4.7-4.1c2.5,0,4.8,1.3,4.8,4.1v2.2
			c2.3-4.3,6.6-6.8,12.2-6.8C157.9,57.7,162.6,60.4,164.2,64.4z"/>
	</g>
	<g>
		<path d="M243.5,78.7v2c0,13.7-7.7,21-20.6,21c-12.9,0-20.6-7.3-20.6-21v-2c0-13.7,7.7-21,20.6-21C235.8,57.7,243.5,65,243.5,78.7z
			 M212.4,78.9v1.7c0,8.6,3.3,12.4,10.5,12.4c7.2,0,10.5-3.8,10.5-12.4v-1.7c0-8.6-3.3-12.4-10.5-12.4
			C215.7,66.5,212.4,70.3,212.4,78.9z"/>
	</g>
	<g>
		<path d="M263.2,46.1v51.1c0,3-2.4,4.3-5,4.3s-5-1.4-5-4.3V46.1c0-3,2.4-4.3,5-4.3S263.2,43.2,263.2,46.1z"/>
	</g>
</g>
<g>
	<g>
		<path d="M329.1,309.4C329.1,309.4,329.1,309.4,329.1,309.4l-87.4-0.1c-3.6,0-6.9-1.9-8.7-5l-43.6-75.7c-2.8-4.8-1.1-10.9,3.7-13.7
			c4.8-2.8,10.9-1.1,13.7,3.7l40.7,70.7l75.8,0.1l38-65.6L323.5,158l-81.6-0.1c-5.5,0-10-4.5-10-10c0-5.5,4.5-10,10-10c0,0,0,0,0,0
			l87.4,0.1c3.6,0,6.9,1.9,8.7,5l43.6,75.7c1.8,3.1,1.8,6.9,0,10l-43.8,75.6C336,307.5,332.7,309.4,329.1,309.4z"/>
	</g>
	<g>
		<path d="M329.2,158c-1.7,0-3.4-0.4-5-1.3c-4.8-2.8-6.4-8.9-3.6-13.7l43.8-75.6c2.8-4.8,8.9-6.4,13.7-3.6c4.8,2.8,6.4,8.9,3.6,13.7
			L337.9,153C336,156.2,332.7,158,329.2,158z"/>
	</g>
	<g>
		<path d="M372.7,385.1c-3.5,0-6.8-1.8-8.7-5l-43.6-75.7c-2.8-4.8-1.1-10.9,3.7-13.7s10.9-1.1,13.7,3.7l43.6,75.7
			c2.8,4.8,1.1,10.9-3.7,13.7C376.1,384.6,374.4,385.1,372.7,385.1z"/>
	</g>
	<g>
		<path d="M198.2,233.5C198.2,233.5,198.1,233.5,198.2,233.5l-87.4-0.1c-5.5,0-10-4.5-10-10c0-5.5,4.5-10,10-10c0,0,0,0,0,0
			l87.4,0.1c5.5,0,10,4.5,10,10C208.1,229,203.7,233.5,198.2,233.5z"/>
	</g>
	<g>
		<circle cx="373" cy="72.4" r="22.5"/>
	</g>
	<g>
		<circle cx="329.2" cy="148" r="30.7"/>
	</g>
	<g>
		<circle cx="329.1" cy="299.4" r="30.7"/>
	</g>
	<g>
		<circle cx="372.7" cy="375" r="22.5"/>
	</g>
	<g>
		<circle cx="112.5" cy="224.4" r="22.5"/>
	</g>
	<g>
		<circle cx="372.8" cy="223.8" r="22.5"/>
	</g>
	<g>
		<circle cx="241.8" cy="148" r="22.5"/>
	</g>
	<g>
		<circle cx="198.1" cy="223.6" r="30.7"/>
	</g>
</g>
</svg>
