<?xml version="1.0" encoding="utf-8"?>
<!-- Generator: Adobe Illustrator 22.1.0, SVG Export Plug-In . SVG Version: 6.00 Build 0)  -->
<svg version="1.1" id="Layer_1" xmlns="http://www.w3.org/2000/svg" xmlns:xlink="http://www.w3.org/1999/xlink" x="0px" y="0px"
	 viewBox="0 0 435 435" style="enable-background:new 0 0 435 435;" xml:space="preserve">
<g>
	<g>
		<g>
			<path d="M129.3,383.2H32.1c-5.5,0-10-4.5-10-10V69.8c0-5.5,4.5-10,10-10h97.2c5.5,0,10,4.5,10,10v303.5
				C139.3,378.8,134.8,383.2,129.3,383.2z M36.1,369.2h89.2V73.8H36.1V369.2z"/>
		</g>
		<g>
			<path d="M97.9,381.2c-2.8,0-5-2.2-5-5V169.9c0-2.8,2.2-5,5-5s5,2.2,5,5v206.3C102.9,379,100.7,381.2,97.9,381.2z"/>
		</g>
		<g>
			<path d="M63.5,381.2c-2.8,0-5-2.2-5-5V169.9c0-2.8,2.2-5,5-5s5,2.2,5,5v206.3C68.5,379,66.3,381.2,63.5,381.2z"/>
		</g>
		<g>
			<path d="M97.9,176.9c-3.9,0-7-3.1-7-7V66.8c0-3.9,3.1-7,7-7s7,3.1,7,7v103.2C104.9,173.8,101.8,176.9,97.9,176.9z"/>
		</g>
		<g>
			<path d="M63.5,176.9c-3.9,0-7-3.1-7-7V66.8c0-3.9,3.1-7,7-7s7,3.1,7,7v103.2C70.5,173.8,67.4,176.9,63.5,176.9z"/>
		</g>
		<g>
			<path d="M132.3,176.9H29.1c-3.9,0-7-3.1-7-7s3.1-7,7-7h103.2c3.9,0,7,3.1,7,7S136.2,176.9,132.3,176.9z"/>
		</g>
		<g>
			<path d="M132.3,278.1H29.1c-2.8,0-5-2.2-5-5s2.2-5,5-5h103.2c2.8,0,5,2.2,5,5S135.1,278.1,132.3,278.1z"/>
		</g>
		<g>
			<path d="M115.1,149.1c-2.8,0-5-2.2-5-5V92.5c0-2.8,2.2-5,5-5s5,2.2,5,5v51.6C120.1,146.9,117.9,149.1,115.1,149.1z"/>
		</g>
		<g>
			<path d="M80.7,149.1c-2.8,0-5-2.2-5-5V92.5c0-2.8,2.2-5,5-5s5,2.2,5,5v51.6C85.7,146.9,83.5,149.1,80.7,149.1z"/>
		</g>
		<g>
			<path d="M46.3,149.1c-2.8,0-5-2.2-5-5V92.5c0-2.8,2.2-5,5-5s5,2.2,5,5v51.6C51.3,146.9,49.1,149.1,46.3,149.1z"/>
		</g>
	</g>
	<g>
		<g>
			<path d="M266.1,383.2h-97.2c-5.5,0-10-4.5-10-10V69.8c0-5.5,4.5-10,10-10h97.2c5.5,0,10,4.5,10,10v303.5
				C276.1,378.8,271.6,383.2,266.1,383.2z M172.9,369.2h89.2V73.8h-89.2V369.2z"/>
		</g>
		<g>
			<path d="M234.7,381.2c-2.8,0-5-2.2-5-5V169.9c0-2.8,2.2-5,5-5s5,2.2,5,5v206.3C239.7,379,237.5,381.2,234.7,381.2z"/>
		</g>
		<g>
			<path d="M200.3,381.2c-2.8,0-5-2.2-5-5V169.9c0-2.8,2.2-5,5-5s5,2.2,5,5v206.3C205.3,379,203.1,381.2,200.3,381.2z"/>
		</g>
		<g>
			<path d="M234.7,176.9c-3.9,0-7-3.1-7-7V66.8c0-3.9,3.1-7,7-7s7,3.1,7,7v103.2C241.7,173.8,238.6,176.9,234.7,176.9z"/>
		</g>
		<g>
			<path d="M200.3,176.9c-3.9,0-7-3.1-7-7V66.8c0-3.9,3.1-7,7-7s7,3.1,7,7v103.2C207.3,173.8,204.2,176.9,200.3,176.9z"/>
		</g>
		<g>
			<path d="M269.1,176.9H165.9c-3.9,0-7-3.1-7-7s3.1-7,7-7h103.2c3.9,0,7,3.1,7,7S272.9,176.9,269.1,176.9z"/>
		</g>
		<g>
			<path d="M269.1,278.1H165.9c-2.8,0-5-2.2-5-5s2.2-5,5-5h103.2c2.8,0,5,2.2,5,5S271.8,278.1,269.1,278.1z"/>
		</g>
		<g>
			<path d="M251.9,149.1c-2.8,0-5-2.2-5-5V92.5c0-2.8,2.2-5,5-5s5,2.2,5,5v51.6C256.9,146.9,254.7,149.1,251.9,149.1z"/>
		</g>
		<g>
			<path d="M217.5,149.1c-2.8,0-5-2.2-5-5V92.5c0-2.8,2.2-5,5-5s5,2.2,5,5v51.6C222.5,146.9,220.3,149.1,217.5,149.1z"/>
		</g>
		<g>
			<path d="M183.1,149.1c-2.8,0-5-2.2-5-5V92.5c0-2.8,2.2-5,5-5s5,2.2,5,5v51.6C188.1,146.9,185.9,149.1,183.1,149.1z"/>
		</g>
	</g>
	<g>
		<g>
			<path d="M402.9,383.2h-97.2c-5.5,0-10-4.5-10-10V69.8c0-5.5,4.5-10,10-10h97.2c5.5,0,10,4.5,10,10v303.5
				C412.9,378.8,408.4,383.2,402.9,383.2z M309.7,369.2h89.2V73.8h-89.2V369.2z"/>
		</g>
		<g>
			<path d="M371.5,381.2c-2.8,0-5-2.2-5-5V169.9c0-2.8,2.2-5,5-5s5,2.2,5,5v206.3C376.5,379,374.2,381.2,371.5,381.2z"/>
		</g>
		<g>
			<path d="M337.1,381.2c-2.8,0-5-2.2-5-5V169.9c0-2.8,2.2-5,5-5s5,2.2,5,5v206.3C342.1,379,339.8,381.2,337.1,381.2z"/>
		</g>
		<g>
			<path d="M371.5,176.9c-3.9,0-7-3.1-7-7V66.8c0-3.9,3.1-7,7-7s7,3.1,7,7v103.2C378.5,173.8,375.3,176.9,371.5,176.9z"/>
		</g>
		<g>
			<path d="M337.1,176.9c-3.9,0-7-3.1-7-7V66.8c0-3.9,3.1-7,7-7s7,3.1,7,7v103.2C344.1,173.8,341,176.9,337.1,176.9z"/>
		</g>
		<g>
			<path d="M405.9,176.9H302.7c-3.9,0-7-3.1-7-7s3.1-7,7-7h103.2c3.9,0,7,3.1,7,7S409.7,176.9,405.9,176.9z"/>
		</g>
		<g>
			<path d="M405.9,278.1H302.7c-2.8,0-5-2.2-5-5s2.2-5,5-5h103.2c2.8,0,5,2.2,5,5S408.6,278.1,405.9,278.1z"/>
		</g>
		<g>
			<path d="M388.7,149.1c-2.8,0-5-2.2-5-5V92.5c0-2.8,2.2-5,5-5s5,2.2,5,5v51.6C393.7,146.9,391.4,149.1,388.7,149.1z"/>
		</g>
		<g>
			<path d="M354.3,149.1c-2.8,0-5-2.2-5-5V92.5c0-2.8,2.2-5,5-5s5,2.2,5,5v51.6C359.3,146.9,357,149.1,354.3,149.1z"/>
		</g>
		<g>
			<path d="M319.9,149.1c-2.8,0-5-2.2-5-5V92.5c0-2.8,2.2-5,5-5s5,2.2,5,5v51.6C324.9,146.9,322.7,149.1,319.9,149.1z"/>
		</g>
	</g>
</g>
</svg>
