<?xml version="1.0" encoding="utf-8"?>
<!-- Generator: Adobe Illustrator 22.1.0, SVG Export Plug-In . SVG Version: 6.00 Build 0)  -->
<svg version="1.1" id="Layer_1" xmlns="http://www.w3.org/2000/svg" xmlns:xlink="http://www.w3.org/1999/xlink" x="0px" y="0px"
	 viewBox="0 0 435 435" style="enable-background:new 0 0 435 435;" xml:space="preserve">
<g id="Kitware">
	<g>
		<g>
			<path d="M143.5,75.4l-3.3,15.7h-8.3l8.8-41.4h11c5.5,0,9.4,1,11.8,3.1c2.4,2.1,3.2,5.3,2.3,9.6c-0.9,4.1-2.9,7.3-6.1,9.6
				c-3.2,2.3-7.2,3.4-11.9,3.4C147.7,75.4,143.5,75.4,143.5,75.4z M144.9,68.9h3.4c2.3,0,4.2-0.5,5.8-1.7c1.6-1.1,2.6-2.7,3-4.8
				c0.4-1.9,0-3.3-1.1-4.5c-1.2-1.1-2.8-1.7-5-1.7h-3.4L144.9,68.9z"/>
		</g>
		<g>
			<path d="M184.2,86.1c-1.7,2.2-3.5,3.7-5.4,4.5s-3.7,1.2-5.3,1.2c-3.2,0-5.6-0.9-7.1-2.6c-1.6-1.8-2.1-3.9-1.6-6.4
				c0.8-3.4,2.5-6.1,5.4-7.8c2.9-1.8,6.8-2.7,11.7-2.7h4.9l0.2-0.6c0.5-2.1,0.2-3.7-0.8-4.6c-1-0.9-2.6-1.3-4.8-1.3
				c-1.7,0-3.4,0.3-5.2,1c-1.8,0.6-3.4,1.5-4.8,2.5l1.2-6.9c1.1-0.5,2.9-1.1,5.3-1.6s4.4-0.8,6-0.8c4.6,0,7.7,1.1,9.4,3.2
				s1.9,5.5,0.9,10.2l-1.7,8.2c-0.6,2.7-1,5-1.2,6.9c-0.3,1.9-0.4,2.9-0.3,2.9h-7.1c-0.1,0-0.1-0.5,0.1-1.5
				C183.6,88.7,183.8,87.5,184.2,86.1z M185.6,77.5l0.1-0.5h-3.6c-3,0.1-5.2,0.5-6.8,1.3s-2.5,2.1-2.8,3.8c-0.3,1.2-0.1,2.2,0.6,2.9
				c0.7,0.7,1.9,1,3.5,1c2.3,0,4.3-0.8,5.9-2.5C184,81.8,185.1,79.8,185.6,77.5z"/>
		</g>
		<g>
			<path d="M205.9,91.1H198l6.5-30.6h7l-1.5,7c1.3-2.7,3-4.7,4.8-5.9c1.9-1.2,3.7-1.8,5.5-1.8l2.2,0.2l-1.7,8
				c-0.3-0.2-0.7-0.3-1.2-0.4c-0.5-0.2-1.2-0.2-2.1-0.2c-2.3,0-4.1,1-5.6,2.9c-1.5,1.9-2.6,4.6-3.3,8L205.9,91.1z"/>
		</g>
		<g>
			<path d="M240.3,86.1c-1.7,2.2-3.5,3.7-5.4,4.5s-3.7,1.2-5.3,1.2c-3.2,0-5.6-0.9-7.1-2.6c-1.6-1.8-2.1-3.9-1.6-6.4
				c0.8-3.4,2.5-6.1,5.4-7.8c2.9-1.8,6.8-2.7,11.7-2.7h4.9l0.2-0.6c0.5-2.1,0.2-3.7-0.8-4.6c-1-0.9-2.6-1.3-4.8-1.3
				c-1.7,0-3.4,0.3-5.2,1c-1.8,0.6-3.4,1.5-4.8,2.5l1.2-6.9c1.1-0.5,2.9-1.1,5.3-1.6s4.4-0.8,6-0.8c4.6,0,7.7,1.1,9.4,3.2
				s1.9,5.5,0.9,10.2l-1.7,8.2c-0.6,2.7-1,5-1.2,6.9c-0.3,1.9-0.4,2.9-0.3,2.9h-7.1c-0.1,0-0.1-0.5,0.1-1.5
				C239.7,88.7,239.9,87.5,240.3,86.1z M241.7,77.5l0.1-0.5h-3.6c-3,0.1-5.2,0.5-6.8,1.3s-2.5,2.1-2.8,3.8c-0.3,1.2-0.1,2.2,0.6,2.9
				s1.9,1,3.5,1c2.3,0,4.3-0.8,5.9-2.5C240.1,81.8,241.2,79.8,241.7,77.5z"/>
		</g>
		<g>
			<path d="M289.4,49.7h8.3l-22.7,41.4h-10.2l-5.4-41.4h8.9l3.7,32.8L289.4,49.7z"/>
		</g>
		<g>
			<path d="M301.7,91.1h-8l6.5-30.6h8L301.7,91.1z M301.4,54.9l1.6-7.6h8l-1.6,7.6H301.4z"/>
		</g>
		<g>
			<path d="M334.9,89.4c-1.5,0.8-3.1,1.3-4.9,1.8s-3.7,0.6-5.6,0.6c-5.3,0-9.1-1.4-11.3-4.1c-2.3-2.8-2.8-6.8-1.7-11.9
				c1-4.8,3.1-8.7,6.3-11.6c3.2-2.9,6.9-4.4,11.2-4.4c5.2,0,8.5,1.6,10.1,4.7c1.6,3.1,1.7,7.7,0.5,13.8h-21.2c-0.1,2.2,0.3,3.8,1,5
				c1.2,1.8,3.2,2.7,6.2,2.7c2.1,0,4.3-0.4,6.4-1.2c2.1-0.8,3.6-1.5,4.4-1.9L334.9,89.4z M319.4,72.8h13.7c0.4-2.3,0.1-4.1-0.8-5.3
				s-2.3-1.9-4.3-1.9c-2.3,0-4.3,0.9-6,2.7C321,69.4,320.2,70.9,319.4,72.8z"/>
		</g>
		<g>
			<path d="M376.8,60.5l1.9,22.8l11.2-22.8h7.6l-15.8,30.6h-9.5l-1.6-23.6L359,91.1h-9.1l-3.8-30.6h8.4l2,22.8l11.1-22.8L376.8,60.5
				z"/>
		</g>
	</g>
	<g>
		<polygon points="57.6,99.1 37.5,99.1 54,36.5 74.2,36.5 		"/>
	</g>
	<g>
		<polygon points="82.6,99.1 62.5,99.1 79,36.5 99.1,36.5 		"/>
	</g>
	<g>
		<polygon points="107.6,99.1 87.5,99.1 104,36.5 124.2,36.5 		"/>
	</g>
</g>
<g>
	<g>
		<path d="M217.5,270.4c-1.9,0-3.7-0.5-5.3-1.5l-108.1-68c-2.9-1.8-4.7-5-4.7-8.5s1.8-6.6,4.7-8.5l108.1-68c3.3-2.1,7.4-2.1,10.7,0
			l108.1,68c2.9,1.8,4.7,5,4.7,8.5s-1.8,6.6-4.7,8.5l-108.1,68C221.2,269.9,219.4,270.4,217.5,270.4z M128.2,192.4l89.3,56.2
			l89.3-56.2l-89.3-56.2L128.2,192.4z"/>
	</g>
	<g>
		<path d="M109.4,338.5c-5.5,0-10-4.5-10-10V192.4c0-5.5,4.5-10,10-10s10,4.5,10,10v136.1C119.4,334,115,338.5,109.4,338.5z"/>
	</g>
	<g>
		<path d="M325.6,338.5c-5.5,0-10-4.5-10-10V192.4c0-5.5,4.5-10,10-10s10,4.5,10,10v136.1C335.6,334,331.1,338.5,325.6,338.5z"/>
	</g>
	<g>
		<path d="M217.5,406.5c-5.5,0-10-4.5-10-10V260.4c0-5.5,4.5-10,10-10s10,4.5,10,10v136.1C227.5,402,223,406.5,217.5,406.5z"/>
	</g>
	<g>
		<path d="M109.4,334.5c-2,0-3.9-1-5.1-2.8c-1.8-2.8-0.9-6.5,1.9-8.3l108.1-68c2.8-1.8,6.5-0.9,8.3,1.9c1.8,2.8,0.9,6.5-1.9,8.3
			l-108.1,68C111.6,334.2,110.5,334.5,109.4,334.5z"/>
	</g>
	<g>
		<path d="M325.6,334.5c-1.1,0-2.2-0.3-3.2-0.9l-108.1-68c-2.8-1.8-3.6-5.5-1.9-8.3c1.8-2.8,5.5-3.6,8.3-1.9l108.1,68
			c2.8,1.8,3.6,5.5,1.9,8.3C329.5,333.5,327.5,334.5,325.6,334.5z"/>
	</g>
	<g>
		<path d="M217.5,406.5c-3.3,0-6.6-1.7-8.5-4.7c-2.9-4.7-1.5-10.8,3.1-13.8l108.1-68c4.7-2.9,10.8-1.5,13.8,3.1
			c2.9,4.7,1.5,10.8-3.1,13.8l-108.1,68C221.2,406,219.3,406.5,217.5,406.5z"/>
	</g>
	<g>
		<path d="M217.5,311.8c-1.1,0-2.2-0.3-3.2-0.9l-108.1-68c-2.8-1.8-3.6-5.5-1.9-8.3c1.8-2.8,5.5-3.6,8.3-1.9l108.1,68
			c2.8,1.8,3.6,5.5,1.9,8.3C221.4,310.8,219.5,311.8,217.5,311.8z"/>
	</g>
	<g>
		<path d="M217.5,357.1c-1.1,0-2.2-0.3-3.2-0.9l-108.1-68c-2.8-1.8-3.6-5.5-1.9-8.3c1.8-2.8,5.5-3.6,8.3-1.9l108.1,68
			c2.8,1.8,3.6,5.5,1.9,8.3C221.4,356.1,219.5,357.1,217.5,357.1z"/>
	</g>
	<g>
		<path d="M217.5,311.8c-2,0-3.9-1-5.1-2.8c-1.8-2.8-0.9-6.5,1.9-8.3l108.1-68c2.8-1.8,6.5-0.9,8.3,1.9c1.8,2.8,0.9,6.5-1.9,8.3
			l-108.1,68C219.7,311.5,218.6,311.8,217.5,311.8z"/>
	</g>
	<g>
		<path d="M217.5,357.1c-2,0-3.9-1-5.1-2.8c-1.8-2.8-0.9-6.5,1.9-8.3l108.1-68c2.8-1.8,6.5-0.9,8.3,1.9c1.8,2.8,0.9,6.5-1.9,8.3
			l-108.1,68C219.7,356.8,218.6,357.1,217.5,357.1z"/>
	</g>
	<g>
		<path d="M217.5,406.5c-1.8,0-3.7-0.5-5.3-1.5l-108.1-68c-4.7-2.9-6.1-9.1-3.1-13.8c2.9-4.7,9.1-6.1,13.8-3.1l108.1,68
			c4.7,2.9,6.1,9.1,3.1,13.8C224.1,404.8,220.8,406.5,217.5,406.5z"/>
	</g>
	<g>
		<path d="M253.5,379.8c-3.3,0-6-2.7-6-6V237.7c0-3.3,2.7-6,6-6s6,2.7,6,6v136.1C259.5,377.1,256.8,379.8,253.5,379.8z"/>
	</g>
	<g>
		<path d="M289.5,357.1c-3.3,0-6-2.7-6-6V215c0-3.3,2.7-6,6-6s6,2.7,6,6v136.1C295.5,354.4,292.9,357.1,289.5,357.1z"/>
	</g>
	<g>
		<path d="M145.5,358.1c-3.3,0-6-2.7-6-6V215c0-3.3,2.7-6,6-6s6,2.7,6,6v137.1C151.5,355.5,148.8,358.1,145.5,358.1z"/>
	</g>
	<g>
		<path d="M181.5,379.8c-3.3,0-6-2.7-6-6V237.7c0-3.3,2.7-6,6-6s6,2.7,6,6v136.1C187.5,377.1,184.8,379.8,181.5,379.8z"/>
	</g>
	<g>
		<g>
			<path d="M289.5,221c-1.1,0-2.2-0.3-3.2-0.9l-108.1-68c-2.8-1.8-3.6-5.5-1.9-8.3c1.8-2.8,5.5-3.6,8.3-1.9l108.1,68
				c2.8,1.8,3.6,5.5,1.9,8.3C293.5,220,291.5,221,289.5,221z"/>
		</g>
		<g>
			<path d="M253.5,243.7c-1.1,0-2.2-0.3-3.2-0.9l-108.1-68c-2.8-1.8-3.6-5.5-1.9-8.3c1.8-2.8,5.5-3.6,8.3-1.9l108.1,68
				c2.8,1.8,3.6,5.5,1.9,8.3C257.5,242.7,255.5,243.7,253.5,243.7z"/>
		</g>
	</g>
	<g>
		<g>
			<path d="M145.5,221c-2,0-3.9-1-5.1-2.8c-1.8-2.8-0.9-6.5,1.9-8.3l108.1-68c2.8-1.8,6.5-0.9,8.3,1.9c1.8,2.8,0.9,6.5-1.9,8.3
				l-108.1,68C147.7,220.7,146.6,221,145.5,221z"/>
		</g>
		<g>
			<path d="M181.5,243.7c-2,0-3.9-1-5.1-2.8c-1.8-2.8-0.9-6.5,1.9-8.3l108.1-68c2.8-1.8,6.5-0.9,8.3,1.9c1.8,2.8,0.9,6.5-1.9,8.3
				l-108.1,68C183.7,243.4,182.6,243.7,181.5,243.7z"/>
		</g>
	</g>
</g>
</svg>
