<?xml version="1.0" encoding="utf-8"?>
<!-- Generator: Adobe Illustrator 22.1.0, SVG Export Plug-In . SVG Version: 6.00 Build 0)  -->
<svg version="1.1" id="Layer_1" xmlns="http://www.w3.org/2000/svg" xmlns:xlink="http://www.w3.org/1999/xlink" x="0px" y="0px"
	 viewBox="0 0 435 435" style="enable-background:new 0 0 435 435;" xml:space="preserve">
<g>
	<path d="M397.5,408.5h-354c-7.2,0-13-5.8-13-13v-354c0-7.2,5.8-13,13-13h354c7.2,0,13,5.8,13,13v354
		C410.5,402.7,404.7,408.5,397.5,408.5z M50.5,388.5h340v-340h-340V388.5z"/>
</g>
<g>
	<path d="M360.5,362h-280c-3.9,0-7-3.1-7-7V82c0-3.9,3.1-7,7-7h280c3.9,0,7,3.1,7,7v273C367.5,358.9,364.4,362,360.5,362z M87.5,348
		h266V89h-266V348z"/>
</g>
<g>
	<path d="M206.5,187.1v49c0,3-2.4,4.4-5.1,4.4s-5.1-1.4-5.1-4.4v-41.4l-10.3,5.9c-2.6,1.5-5.2,0.3-6.5-2c-1.2-2.2-0.9-5,1.6-6.3
		l13.5-7.5c2.8-1.5,4.6-2.1,6.5-2.1C204.2,182.7,206.5,184,206.5,187.1z"/>
	<path d="M263.2,196.9v0.9c0,6.1-3,11.7-8.3,17L238,231.5h24.2c2.5,0,3.6,1.9,3.6,4.2s-1.1,4.2-3.6,4.2h-30.4c-5,0-7.2-1.8-7.2-5.5
		c0-1.7,1-3.1,2.6-4.9l18.5-18.7c5.9-5.9,7.1-8.9,7.1-13v-0.4c0-3.5-2.7-6.1-8.2-6.1c-4.7,0-7.7,1.8-10.5,5.4c-1.5,2-4,2.4-6.1,0.9
		c-2.1-1.5-3-3.9-1.4-6.3c3.5-5.2,9.3-9.1,17.7-9.1C257.5,182.3,263.2,189.1,263.2,196.9z"/>
</g>
</svg>
