<?xml version="1.0" encoding="utf-8"?>
<!-- Generator: Adobe Illustrator 22.1.0, SVG Export Plug-In . SVG Version: 6.00 Build 0)  -->
<svg version="1.1" id="Layer_1" xmlns="http://www.w3.org/2000/svg" xmlns:xlink="http://www.w3.org/1999/xlink" x="0px" y="0px"
	 viewBox="0 0 435 435" style="enable-background:new 0 0 435 435;" xml:space="preserve">
<g>
	<path d="M358.2,361h-71.5c-3.9,0-7-3.1-7-7v-71.2c0-3.9,3.1-7,7-7s7,3.1,7,7V347h57.5V88h-57.5v64.5c0,3.9-3.1,7-7,7s-7-3.1-7-7V81
		c0-3.9,3.1-7,7-7h71.5c3.9,0,7,3.1,7,7v273C365.2,357.9,362.1,361,358.2,361z"/>
</g>
<g>
	<path d="M149.8,361H78.2c-3.9,0-7-3.1-7-7V81c0-3.9,3.1-7,7-7h71.5c3.9,0,7,3.1,7,7v71.5c0,3.9-3.1,7-7,7s-7-3.1-7-7V88H85.2v259
		h57.5v-64.2c0-3.9,3.1-7,7-7s7,3.1,7,7V354C156.8,357.9,153.6,361,149.8,361z"/>
</g>
<g>
	<path d="M254,361h-71.5c-3.9,0-7-3.1-7-7v-71.2c0-3.9,3.1-7,7-7s7,3.1,7,7V347H247v-64.2c0-3.9,3.1-7,7-7s7,3.1,7,7V354
		C261,357.9,257.8,361,254,361z"/>
</g>
<g>
	<path d="M254,159.5c-3.9,0-7-3.1-7-7V88h-57.5v64.5c0,3.9-3.1,7-7,7s-7-3.1-7-7V81c0-3.9,3.1-7,7-7H254c3.9,0,7,3.1,7,7v71.5
		C261,156.4,257.8,159.5,254,159.5z"/>
</g>
<g>
	<path d="M395.2,407.5h-354c-7.2,0-13-5.8-13-13v-354c0-7.2,5.8-13,13-13h354c7.2,0,13,5.8,13,13v354
		C408.2,401.7,402.4,407.5,395.2,407.5z M48.2,387.5h340v-340h-340V387.5z"/>
</g>
<g>
	<g>
		<path d="M154.5,188.9L133.6,219h16.5v-13.1c0-3,2.4-4.3,5-4.3c2.6,0,5,1.4,5,4.3V219h4.9c2.5,0,3.4,1.9,3.4,4.2
			c0,2.2-1,4.1-3.4,4.1h-4.9v7.9c0,3-2.4,4.3-5,4.3c-2.6,0-5-1.4-5-4.3v-7.9h-22.4c-4.4,0-6.3-1.6-6.3-5c0-1.1,0.2-2.1,2.5-5.4
			l22.9-33.2c1.6-2.3,4.2-2.5,6.3-1.2C155.4,183.8,156.3,186.2,154.5,188.9z"/>
	</g>
	<g>
		<path d="M189.6,197.3c0,3.6-2.7,6.3-6.3,6.3s-6.3-2.7-6.3-6.3c0-3.6,2.7-6.3,6.3-6.3S189.6,193.7,189.6,197.3z M189.6,228.4
			c0,3.6-2.7,6.3-6.3,6.3s-6.3-2.7-6.3-6.3c0-3.6,2.7-6.3,6.3-6.3S189.6,224.8,189.6,228.4z"/>
	</g>
	<g>
		<path d="M232,188.9L211.1,219h16.5v-13.1c0-3,2.4-4.3,5-4.3c2.6,0,5,1.4,5,4.3V219h4.9c2.5,0,3.4,1.9,3.4,4.2c0,2.2-1,4.1-3.4,4.1
			h-4.9v7.9c0,3-2.4,4.3-5,4.3c-2.6,0-5-1.4-5-4.3v-7.9h-22.4c-4.4,0-6.3-1.6-6.3-5c0-1.1,0.2-2.1,2.5-5.4l22.9-33.2
			c1.6-2.3,4.2-2.5,6.3-1.2C232.9,183.8,233.8,186.2,232,188.9z"/>
	</g>
	<g>
		<path d="M267,197.3c0,3.6-2.7,6.3-6.3,6.3s-6.3-2.7-6.3-6.3c0-3.6,2.7-6.3,6.3-6.3S267,193.7,267,197.3z M267,228.4
			c0,3.6-2.7,6.3-6.3,6.3s-6.3-2.7-6.3-6.3c0-3.6,2.7-6.3,6.3-6.3S267,224.8,267,228.4z"/>
	</g>
	<g>
		<path d="M309.5,188.9L288.6,219h16.5v-13.1c0-3,2.4-4.3,5-4.3c2.6,0,5,1.4,5,4.3V219h4.9c2.5,0,3.4,1.9,3.4,4.2
			c0,2.2-1,4.1-3.4,4.1h-4.9v7.9c0,3-2.4,4.3-5,4.3c-2.6,0-5-1.4-5-4.3v-7.9h-22.4c-4.4,0-6.3-1.6-6.3-5c0-1.1,0.2-2.1,2.5-5.4
			l22.9-33.2c1.6-2.3,4.2-2.5,6.3-1.2C310.3,183.8,311.3,186.2,309.5,188.9z"/>
	</g>
</g>
</svg>
