<?xml version="1.0" encoding="utf-8"?>
<!-- Generator: Adobe Illustrator 22.1.0, SVG Export Plug-In . SVG Version: 6.00 Build 0)  -->
<svg version="1.1" id="Layer_1" xmlns="http://www.w3.org/2000/svg" xmlns:xlink="http://www.w3.org/1999/xlink" x="0px" y="0px"
	 viewBox="0 0 25.6 20" style="enable-background:new 0 0 25.6 20;" xml:space="preserve">
<style type="text/css">
	.st0{fill:#C2C5C7;}
	.st1{fill:#466CBC;}
</style>
<g>
	<path class="st0" d="M12.8,0C5.7,0,0,3.9,0,8.6s5.7,8.6,12.8,8.6c7.1,0,12.8-3.9,12.8-8.6S19.9,0,12.8,0z M15.2,15.3
		C9.9,15.3,5,12.7,5,9.4c0-3.3,4.9-5.9,10.2-5.9c5.3,0,9,2.7,9,5.9C24.2,12.7,20.5,15.3,15.2,15.3z"/>
	<path class="st1" d="M22.2,15.5L22.2,15.5c-0.7-1.3-2-2.1-3.5-2.1c0,0,0,0,0,0v0h0h0.8c2.2,0,4-1.8,4-4c0-2.2-1.8-4-4-4h-8.9v4.8
		v3.1V20H15v-5.7h1.3c0.5,0.3,0.9,0.8,1.2,1.3l2.2,4.4h5L22.2,15.5z M17.8,11.1h-2.8V8.5h2.8c0.7,0,1.3,0.6,1.3,1.3
		C19,10.5,18.5,11.1,17.8,11.1z"/>
</g>
</svg>
