<?xml version="1.0" encoding="utf-8"?>
<!-- Generator: Adobe Illustrator 22.1.0, SVG Export Plug-In . SVG Version: 6.00 Build 0)  -->
<svg version="1.1" id="Layer_1" xmlns="http://www.w3.org/2000/svg" xmlns:xlink="http://www.w3.org/1999/xlink" x="0px" y="0px"
	 viewBox="0 0 25.6 20" style="enable-background:new 0 0 25.6 20;" xml:space="preserve">
<style type="text/css">
	.st0{fill:#F3F3F3;}
	.st1{fill:#D3D3D3;}
	.st2{fill:#BABABA;}
	.st3{fill:#79D3DC;}
	.st4{fill:#41B879;}
	.st5{fill:#AEDF1D;}
</style>
<g>
	<polygon class="st0" points="1,14.9 24.6,2.2 24.6,19 1,19 	"/>
	<g>
		<g>
			<path class="st1" d="M1,15.5c-0.2,0-0.4-0.1-0.5-0.3c-0.1-0.3,0-0.6,0.2-0.7l23.6-13c0.3-0.1,0.6,0,0.7,0.2
				c0.1,0.3,0,0.6-0.2,0.7l-23.6,13C1.2,15.4,1.1,15.5,1,15.5z"/>
		</g>
		<g>
			<path class="st2" d="M24.6,19.6H1c-0.3,0-0.5-0.2-0.5-0.5s0.2-0.5,0.5-0.5h23.6c0.3,0,0.5,0.2,0.5,0.5S24.9,19.6,24.6,19.6z"/>
		</g>
		<g>
			<circle class="st3" cx="3.5" cy="11" r="1.2"/>
		</g>
		<g>
			<circle class="st3" cx="5.5" cy="7.4" r="1.2"/>
		</g>
		<g>
			<circle class="st4" cx="21.7" cy="7.6" r="1.2"/>
		</g>
		<g>
			<circle class="st5" cx="19.1" cy="1.9" r="1.2"/>
		</g>
		<g>
			<circle class="st3" cx="22.9" cy="3.1" r="1.2"/>
		</g>
		<g>
			<circle class="st5" cx="10" cy="12.1" r="1.7"/>
		</g>
		<g>
			<circle class="st5" cx="13" cy="2.2" r="1.7"/>
		</g>
		<g>
			<circle class="st5" cx="18.4" cy="11.5" r="1.7"/>
		</g>
		<g>
			<circle class="st4" cx="14.2" cy="9.4" r="1.7"/>
		</g>
		<g>
			<circle class="st4" cx="16.5" cy="6.4" r="1.7"/>
		</g>
		<g>
			<circle class="st4" cx="11.1" cy="7.1" r="2.4"/>
		</g>
	</g>
</g>
</svg>
