<?xml version="1.0" encoding="utf-8"?>
<!-- Generator: Adobe Illustrator 23.0.1, SVG Export Plug-In . SVG Version: 6.00 Build 0)  -->
<svg version="1.1" id="Layer_1" xmlns="http://www.w3.org/2000/svg" xmlns:xlink="http://www.w3.org/1999/xlink" x="0px" y="0px"
	 viewBox="0 0 21.06 22.27" style="enable-background:new 0 0 21.06 22.27;" xml:space="preserve">
<style type="text/css">
	.st0{fill:#41B879;}
	.st1{fill:#017598;}
	.st2{fill:#79D3DC;}
	.st3{fill:#AEDF1D;}
</style>
<g>
	<g>
		<path class="st0" d="M19.45,6.38V2.22l-1.18,0.68l-0.45-0.75l1.74-0.97h0.82v5.2H19.45z"/>
		<path class="st0" d="M19.29,11.22c0.15-0.15,0.27-0.29,0.35-0.4s0.15-0.22,0.19-0.31c0.04-0.09,0.07-0.17,0.08-0.25
			c0.01-0.08,0.01-0.15,0.01-0.22V9.97c0-0.14-0.06-0.27-0.17-0.38c-0.11-0.11-0.3-0.17-0.57-0.17c-0.1,0-0.19,0.01-0.29,0.03
			c-0.09,0.02-0.19,0.06-0.28,0.11c-0.09,0.05-0.18,0.13-0.27,0.22c-0.09,0.1-0.18,0.22-0.26,0.37L17.4,9.69
			c0.06-0.11,0.14-0.23,0.23-0.36s0.21-0.25,0.35-0.36c0.14-0.11,0.31-0.2,0.5-0.27c0.2-0.07,0.42-0.11,0.69-0.11
			c0.29,0,0.55,0.04,0.76,0.11c0.21,0.07,0.39,0.17,0.52,0.29c0.14,0.12,0.24,0.26,0.3,0.43c0.07,0.16,0.1,0.33,0.1,0.51V10
			c0,0.28-0.06,0.55-0.19,0.81c-0.13,0.26-0.31,0.51-0.56,0.75l-1.53,1.54h2.47v0.76h-3.68v-0.69L19.29,11.22z"/>
		<path class="st0" d="M17.49,16.85c0.17-0.23,0.38-0.41,0.62-0.54c0.24-0.14,0.55-0.21,0.92-0.21c0.25,0,0.47,0.03,0.66,0.09
			s0.37,0.15,0.5,0.26c0.14,0.11,0.25,0.25,0.32,0.41c0.08,0.16,0.12,0.34,0.12,0.53v0.07c0,0.1-0.01,0.21-0.03,0.33
			s-0.06,0.23-0.12,0.34s-0.13,0.21-0.23,0.3c-0.1,0.09-0.22,0.17-0.37,0.22c0.35,0.06,0.6,0.2,0.76,0.41
			c0.16,0.21,0.25,0.47,0.25,0.76v0.11c0,0.2-0.04,0.39-0.12,0.57c-0.08,0.18-0.19,0.34-0.35,0.48c-0.16,0.14-0.35,0.25-0.59,0.33
			s-0.52,0.13-0.83,0.13c-0.3,0-0.59-0.05-0.88-0.14s-0.54-0.24-0.79-0.44l0.45-0.72c0.12,0.09,0.24,0.17,0.34,0.23
			c0.1,0.06,0.2,0.11,0.3,0.15c0.1,0.04,0.19,0.06,0.28,0.08c0.09,0.01,0.19,0.02,0.3,0.02c0.33,0,0.57-0.06,0.72-0.19
			s0.23-0.31,0.23-0.54V19.8c0-0.25-0.07-0.44-0.22-0.56c-0.15-0.12-0.39-0.18-0.72-0.18h-0.7v-0.79h0.62c0.16,0,0.3-0.02,0.4-0.05
			c0.1-0.04,0.18-0.09,0.24-0.15c0.06-0.07,0.1-0.14,0.12-0.24s0.03-0.2,0.03-0.31v-0.06c0-0.2-0.06-0.34-0.19-0.43
			c-0.13-0.09-0.3-0.13-0.52-0.13c-0.22,0-0.4,0.04-0.54,0.12c-0.14,0.08-0.26,0.18-0.38,0.31L17.49,16.85z"/>
	</g>
	<rect class="st1" width="14.66" height="7.42"/>
	<rect y="7.42" class="st2" width="10.99" height="7.42"/>
	<rect y="14.85" class="st3" width="7.33" height="7.42"/>
</g>
</svg>
