<?xml version="1.0" encoding="utf-8"?>
<!-- Generator: Adobe Illustrator 22.1.0, SVG Export Plug-In . SVG Version: 6.00 Build 0)  -->
<svg version="1.1" id="Layer_1" xmlns="http://www.w3.org/2000/svg" xmlns:xlink="http://www.w3.org/1999/xlink" x="0px" y="0px"
	 viewBox="0 0 25.6 20" style="enable-background:new 0 0 25.6 20;" xml:space="preserve">
<style type="text/css">
	.st0{fill:#E8C934;}
	.st1{fill:#5376A5;}
</style>
<g>
	<path class="st0" d="M22.8,8.2c-0.1-0.8-0.4-1.5-0.8-2.1c-0.4-0.6-0.9-1-1.7-1c-0.6-0.1-1.2,0-1.8,0c-0.2,0-0.1,0.1-0.1,0.2
		c0,0.8,0,1.5,0,2.3c0,0.7-0.3,1.3-0.7,1.8c-0.6,0.7-1.4,1-2.3,1c-1.7,0-3.4,0-5.1,0c-1.2,0-2,0.7-2.3,1.9C8,12.6,7.9,13,7.9,13.4
		C8,14.7,8,16,8,17.3c0,0.6,0.2,1.1,0.7,1.5c0.5,0.4,1.1,0.7,1.7,0.8c1.5,0.4,3.1,0.4,4.7,0.1c0.7-0.1,1.4-0.4,2-0.8
		c0.4-0.3,0.7-0.8,0.7-1.4c0-0.6,0-1.3,0-1.9c0-0.2,0-0.2-0.2-0.2c-1.4,0-2.8,0-4.1,0c-0.5,0-0.5,0-0.5-0.5c0-0.2,0.1-0.2,0.2-0.2
		c1.1,0,2.3,0,3.4,0c1.1,0,2.2,0,3.3,0c0.5,0,0.9-0.1,1.4-0.4c0.9-0.5,1.3-1.3,1.5-2.2C23.1,10.9,23.1,9.5,22.8,8.2z M15.6,16.7
		c0.5,0,0.9,0.4,0.9,0.9c0,0.5-0.4,0.9-0.9,0.9c-0.5,0-0.9-0.4-0.9-0.9C14.7,17.1,15.1,16.7,15.6,16.7z"/>
	<path class="st1" d="M17.7,6.5c0-1.3-0.1-2.6-0.1-3.9c0-0.5-0.2-0.9-0.6-1.3c-0.5-0.5-1.1-0.8-1.8-0.9c-1.6-0.4-3.1-0.4-4.7-0.1
		C9.9,0.3,9.3,0.5,8.8,0.9C8.2,1.3,7.9,1.8,8,2.4C8,3,8,3.6,8,4.3C8,4.5,8,4.5,8.3,4.5c1.4,0,2.7,0,4.1,0c0.5,0,0.5,0,0.5,0.5
		c0,0.2,0,0.2-0.2,0.2c-1.2,0-2.3,0-3.5,0c-1.1,0-2.2,0-3.3,0c-0.7,0-1.2,0.2-1.7,0.6c-0.7,0.5-1,1.3-1.2,2.1
		c-0.3,1.2-0.3,2.5-0.1,3.7c0.1,0.8,0.3,1.6,0.8,2.3c0.4,0.6,1,1,1.7,1.1c0.6,0,1.2,0,1.8,0c0.2,0,0.1-0.1,0.1-0.2
		c0-0.8,0-1.6,0-2.3c0-0.2,0-0.5,0.1-0.7c0.4-1.2,1.6-2.1,2.9-2.1c1.7,0,3.4,0,5.1,0c1.3,0,2.1-0.7,2.4-1.9
		C17.7,7.3,17.7,6.9,17.7,6.5z M10,3.3c-0.5,0-0.9-0.4-0.9-0.9c0-0.5,0.4-0.9,0.9-0.9c0.5,0,0.9,0.4,0.9,0.9
		C10.9,2.9,10.5,3.3,10,3.3z"/>
</g>
</svg>
