<?xml version="1.0" encoding="utf-8"?>
<!-- Generator: Adobe Illustrator 22.1.0, SVG Export Plug-In . SVG Version: 6.00 Build 0)  -->
<svg version="1.1" id="Layer_1" xmlns="http://www.w3.org/2000/svg" xmlns:xlink="http://www.w3.org/1999/xlink" x="0px" y="0px"
	 viewBox="0 0 9.1 10.4" style="enable-background:new 0 0 9.1 10.4;" xml:space="preserve">
<style type="text/css">
	.st0{fill:#AEB5B7;}
</style>
<g>
	<path class="st0" d="M3,5.9H2.2C2.1,5.9,2,5.8,2,5.6V4.8c0-0.1,0.1-0.2,0.2-0.2H3c0.1,0,0.2,0.1,0.2,0.2v0.8C3.3,5.8,3.1,5.9,3,5.9
		z M5.2,5.6V4.8c0-0.1-0.1-0.2-0.2-0.2H4.2C4,4.6,3.9,4.7,3.9,4.8v0.8c0,0.1,0.1,0.2,0.2,0.2H5C5.1,5.9,5.2,5.8,5.2,5.6z M7.2,5.6
		V4.8c0-0.1-0.1-0.2-0.2-0.2H6.1C6,4.6,5.9,4.7,5.9,4.8v0.8c0,0.1,0.1,0.2,0.2,0.2h0.8C7.1,5.9,7.2,5.8,7.2,5.6z M5.2,7.6V6.8
		c0-0.1-0.1-0.2-0.2-0.2H4.2C4,6.5,3.9,6.6,3.9,6.8v0.8c0,0.1,0.1,0.2,0.2,0.2H5C5.1,7.8,5.2,7.7,5.2,7.6z M3.3,7.6V6.8
		c0-0.1-0.1-0.2-0.2-0.2H2.2C2.1,6.5,2,6.6,2,6.8v0.8c0,0.1,0.1,0.2,0.2,0.2H3C3.1,7.8,3.3,7.7,3.3,7.6z M7.2,7.6V6.8
		c0-0.1-0.1-0.2-0.2-0.2H6.1C6,6.5,5.9,6.6,5.9,6.8v0.8c0,0.1,0.1,0.2,0.2,0.2h0.8C7.1,7.8,7.2,7.7,7.2,7.6z M9.1,2.3v7.2
		c0,0.5-0.4,1-1,1H1c-0.5,0-1-0.4-1-1V2.3c0-0.5,0.4-1,1-1h1V0.2C2,0.1,2.1,0,2.2,0H3c0.1,0,0.2,0.1,0.2,0.2v1.1h2.6V0.2
		C5.9,0.1,6,0,6.1,0h0.8c0.1,0,0.2,0.1,0.2,0.2v1.1h1C8.7,1.3,9.1,1.7,9.1,2.3z M8.1,9.3V3.3H1v6.1C1,9.4,1,9.4,1.1,9.4H8
		C8.1,9.4,8.1,9.4,8.1,9.3z"/>
</g>
</svg>
