<?xml version="1.0" encoding="utf-8"?>
<!-- Generator: Adobe Illustrator 23.0.1, SVG Export Plug-In . SVG Version: 6.00 Build 0)  -->
<svg version="1.1" id="Layer_1" xmlns="http://www.w3.org/2000/svg" xmlns:xlink="http://www.w3.org/1999/xlink" x="0px" y="0px"
	 viewBox="0 0 108 108" style="enable-background:new 0 0 108 108;" xml:space="preserve">
<style type="text/css">
	.st0{fill:#FFFFFF;}
	.st1{fill:#BABABA;}
	.st2{fill:#EAEAEA;}
	.st3{fill:#72BA97;}
	.st4{fill:#5787FB;}
</style>
<g>
	<g>
		<rect x="1.5" y="1.5" class="st0" width="105" height="105"/>
		<path class="st1" d="M108,108H0V0h108V108z M3,105h102V3H3V105z"/>
	</g>
	<g>
		<rect x="70" y="1.5" class="st2" width="3" height="105"/>
	</g>
	<g>
		<rect x="35" y="1.5" class="st2" width="3" height="105"/>
	</g>
	<g>
		<rect x="1.5" y="35" class="st2" width="105" height="3"/>
	</g>
	<g>
		<rect x="1.5" y="70" class="st2" width="105" height="3"/>
	</g>
	<g>
		<circle class="st0" cx="15.61" cy="14.14" r="3.55"/>
		<path class="st3" d="M15.61,18.18c-2.23,0-4.05-1.82-4.05-4.05c0-2.23,1.82-4.05,4.05-4.05c2.23,0,4.05,1.82,4.05,4.05
			C19.66,16.37,17.84,18.18,15.61,18.18z M15.61,11.09c-1.68,0-3.05,1.37-3.05,3.05c0,1.68,1.37,3.05,3.05,3.05
			c1.68,0,3.05-1.37,3.05-3.05C18.66,12.46,17.29,11.09,15.61,11.09z"/>
	</g>
	<g>
		<circle class="st0" cx="17.66" cy="20.8" r="3.55"/>
		<path class="st3" d="M17.66,24.84c-2.23,0-4.05-1.82-4.05-4.05s1.82-4.05,4.05-4.05c2.23,0,4.05,1.82,4.05,4.05
			S19.89,24.84,17.66,24.84z M17.66,17.75c-1.68,0-3.05,1.37-3.05,3.05s1.37,3.05,3.05,3.05c1.68,0,3.05-1.37,3.05-3.05
			S19.34,17.75,17.66,17.75z"/>
	</g>
	<g>
		<circle class="st0" cx="17.66" cy="25.61" r="3.55"/>
		<path class="st3" d="M17.66,29.66c-2.23,0-4.05-1.82-4.05-4.05c0-2.23,1.82-4.05,4.05-4.05c2.23,0,4.05,1.82,4.05,4.05
			C21.71,27.84,19.89,29.66,17.66,29.66z M17.66,22.56c-1.68,0-3.05,1.37-3.05,3.05c0,1.68,1.37,3.05,3.05,3.05
			c1.68,0,3.05-1.37,3.05-3.05C20.71,23.93,19.34,22.56,17.66,22.56z"/>
	</g>
	<g>
		<circle class="st0" cx="15.61" cy="29.96" r="3.55"/>
		<path class="st3" d="M15.61,34c-2.23,0-4.05-1.82-4.05-4.05c0-2.23,1.82-4.05,4.05-4.05c2.23,0,4.05,1.82,4.05,4.05
			C19.66,32.19,17.84,34,15.61,34z M15.61,26.91c-1.68,0-3.05,1.37-3.05,3.05c0,1.68,1.37,3.05,3.05,3.05
			c1.68,0,3.05-1.37,3.05-3.05C18.66,28.28,17.29,26.91,15.61,26.91z"/>
	</g>
	<g>
		<circle class="st0" cx="14.11" cy="34.14" r="3.55"/>
		<path class="st3" d="M14.11,38.18c-2.23,0-4.05-1.82-4.05-4.05c0-2.23,1.82-4.05,4.05-4.05c2.23,0,4.05,1.82,4.05,4.05
			C18.16,36.37,16.34,38.18,14.11,38.18z M14.11,31.09c-1.68,0-3.05,1.37-3.05,3.05c0,1.68,1.37,3.05,3.05,3.05
			c1.68,0,3.05-1.37,3.05-3.05C17.16,32.46,15.79,31.09,14.11,31.09z"/>
	</g>
	<g>
		<circle class="st0" cx="15.1" cy="37.68" r="3.55"/>
		<path class="st3" d="M15.1,41.73c-2.23,0-4.05-1.82-4.05-4.05c0-2.23,1.82-4.05,4.05-4.05c2.23,0,4.05,1.82,4.05,4.05
			C19.14,39.92,17.33,41.73,15.1,41.73z M15.1,34.64c-1.68,0-3.05,1.37-3.05,3.05c0,1.68,1.37,3.05,3.05,3.05
			c1.68,0,3.05-1.37,3.05-3.05C18.14,36,16.78,34.64,15.1,34.64z"/>
	</g>
	<g>
		<circle class="st0" cx="15.61" cy="42.73" r="3.55"/>
		<path class="st3" d="M15.61,46.77c-2.23,0-4.05-1.82-4.05-4.05c0-2.23,1.82-4.05,4.05-4.05c2.23,0,4.05,1.82,4.05,4.05
			C19.66,44.96,17.84,46.77,15.61,46.77z M15.61,39.68c-1.68,0-3.05,1.37-3.05,3.05c0,1.68,1.37,3.05,3.05,3.05
			c1.68,0,3.05-1.37,3.05-3.05C18.66,41.05,17.29,39.68,15.61,39.68z"/>
	</g>
	<g>
		<circle class="st0" cx="15.61" cy="52.39" r="3.55"/>
		<path class="st3" d="M15.61,56.44c-2.23,0-4.05-1.82-4.05-4.05c0-2.23,1.82-4.05,4.05-4.05c2.23,0,4.05,1.82,4.05,4.05
			C19.66,54.62,17.84,56.44,15.61,56.44z M15.61,49.34c-1.68,0-3.05,1.37-3.05,3.05c0,1.68,1.37,3.05,3.05,3.05
			c1.68,0,3.05-1.37,3.05-3.05C18.66,50.71,17.29,49.34,15.61,49.34z"/>
	</g>
	<g>
		<circle class="st0" cx="15.61" cy="17.88" r="3.55"/>
		<path class="st3" d="M15.61,21.92c-2.23,0-4.05-1.82-4.05-4.05c0-2.23,1.82-4.05,4.05-4.05c2.23,0,4.05,1.82,4.05,4.05
			C19.66,20.11,17.84,21.92,15.61,21.92z M15.61,14.83c-1.68,0-3.05,1.37-3.05,3.05c0,1.68,1.37,3.05,3.05,3.05
			c1.68,0,3.05-1.37,3.05-3.05C18.66,16.2,17.29,14.83,15.61,14.83z"/>
	</g>
	<g>
		<circle class="st0" cx="34.53" cy="27.97" r="3.55"/>
		<path class="st3" d="M34.53,32.02c-2.23,0-4.05-1.82-4.05-4.05c0-2.23,1.82-4.05,4.05-4.05c2.23,0,4.05,1.82,4.05,4.05
			C38.57,30.2,36.76,32.02,34.53,32.02z M34.53,24.92c-1.68,0-3.05,1.37-3.05,3.05c0,1.68,1.37,3.05,3.05,3.05
			c1.68,0,3.05-1.37,3.05-3.05C37.57,26.29,36.21,24.92,34.53,24.92z"/>
	</g>
	<g>
		<circle class="st0" cx="35.61" cy="33.57" r="3.55"/>
		<path class="st3" d="M35.61,37.61c-2.23,0-4.05-1.82-4.05-4.05c0-2.23,1.82-4.05,4.05-4.05s4.05,1.82,4.05,4.05
			C39.66,35.8,37.85,37.61,35.61,37.61z M35.61,30.52c-1.68,0-3.05,1.37-3.05,3.05c0,1.68,1.37,3.05,3.05,3.05s3.05-1.37,3.05-3.05
			C38.66,31.89,37.29,30.52,35.61,30.52z"/>
	</g>
	<g>
		<circle class="st0" cx="34.53" cy="13.1" r="3.55"/>
		<path class="st3" d="M34.53,17.14c-2.23,0-4.05-1.82-4.05-4.05c0-2.23,1.82-4.05,4.05-4.05c2.23,0,4.05,1.82,4.05,4.05
			C38.57,15.33,36.76,17.14,34.53,17.14z M34.53,10.05c-1.68,0-3.05,1.37-3.05,3.05c0,1.68,1.37,3.05,3.05,3.05
			c1.68,0,3.05-1.37,3.05-3.05C37.57,11.42,36.21,10.05,34.53,10.05z"/>
	</g>
	<g>
		<circle class="st0" cx="34.69" cy="20.89" r="3.55"/>
		<path class="st3" d="M34.69,24.94c-2.23,0-4.05-1.82-4.05-4.05c0-2.23,1.82-4.05,4.05-4.05s4.05,1.82,4.05,4.05
			C38.74,23.12,36.93,24.94,34.69,24.94z M34.69,17.84c-1.68,0-3.05,1.37-3.05,3.05c0,1.68,1.37,3.05,3.05,3.05s3.05-1.37,3.05-3.05
			C37.74,19.21,36.37,17.84,34.69,17.84z"/>
	</g>
	<g>
		<circle class="st0" cx="35.61" cy="39.18" r="3.55"/>
		<path class="st3" d="M35.61,43.23c-2.23,0-4.05-1.82-4.05-4.05s1.82-4.05,4.05-4.05s4.05,1.82,4.05,4.05S37.85,43.23,35.61,43.23z
			 M35.61,36.13c-1.68,0-3.05,1.37-3.05,3.05s1.37,3.05,3.05,3.05s3.05-1.37,3.05-3.05S37.29,36.13,35.61,36.13z"/>
	</g>
	<g>
		<circle class="st0" cx="38.24" cy="36.5" r="3.55"/>
		<path class="st3" d="M38.24,40.55c-2.23,0-4.05-1.82-4.05-4.05c0-2.23,1.82-4.05,4.05-4.05c2.23,0,4.05,1.82,4.05,4.05
			C42.29,38.73,40.47,40.55,38.24,40.55z M38.24,33.45c-1.68,0-3.05,1.37-3.05,3.05c0,1.68,1.37,3.05,3.05,3.05
			c1.68,0,3.05-1.37,3.05-3.05C41.29,34.82,39.92,33.45,38.24,33.45z"/>
	</g>
	<g>
		<circle class="st0" cx="36.38" cy="45.87" r="3.55"/>
		<path class="st3" d="M36.38,49.91c-2.23,0-4.05-1.82-4.05-4.05c0-2.23,1.82-4.05,4.05-4.05c2.23,0,4.05,1.82,4.05,4.05
			C40.43,48.1,38.62,49.91,36.38,49.91z M36.38,42.82c-1.68,0-3.05,1.37-3.05,3.05c0,1.68,1.37,3.05,3.05,3.05
			c1.68,0,3.05-1.37,3.05-3.05C39.43,44.19,38.06,42.82,36.38,42.82z"/>
	</g>
	<g>
		<circle class="st0" cx="36.38" cy="50.45" r="3.55"/>
		<path class="st3" d="M36.38,54.5c-2.23,0-4.05-1.82-4.05-4.05c0-2.23,1.82-4.05,4.05-4.05c2.23,0,4.05,1.82,4.05,4.05
			C40.43,52.68,38.62,54.5,36.38,54.5z M36.38,47.41c-1.68,0-3.05,1.37-3.05,3.05c0,1.68,1.37,3.05,3.05,3.05
			c1.68,0,3.05-1.37,3.05-3.05C39.43,48.77,38.06,47.41,36.38,47.41z"/>
	</g>
	<g>
		<circle class="st0" cx="37.25" cy="60.46" r="3.55"/>
		<path class="st3" d="M37.25,64.5c-2.23,0-4.05-1.82-4.05-4.05c0-2.23,1.82-4.05,4.05-4.05c2.23,0,4.05,1.82,4.05,4.05
			C41.29,62.69,39.48,64.5,37.25,64.5z M37.25,57.41c-1.68,0-3.05,1.37-3.05,3.05c0,1.68,1.37,3.05,3.05,3.05
			c1.68,0,3.05-1.37,3.05-3.05C40.29,58.78,38.93,57.41,37.25,57.41z"/>
	</g>
	<g>
		<circle class="st0" cx="38.07" cy="64.76" r="3.55"/>
		<path class="st3" d="M38.07,68.81c-2.23,0-4.05-1.82-4.05-4.05c0-2.23,1.82-4.05,4.05-4.05c2.23,0,4.05,1.82,4.05,4.05
			C42.12,66.99,40.31,68.81,38.07,68.81z M38.07,61.72c-1.68,0-3.05,1.37-3.05,3.05s1.37,3.05,3.05,3.05c1.68,0,3.05-1.37,3.05-3.05
			S39.75,61.72,38.07,61.72z"/>
	</g>
	<g>
		<circle class="st0" cx="32.84" cy="16.69" r="3.55"/>
		<path class="st3" d="M32.84,20.74c-2.23,0-4.05-1.82-4.05-4.05s1.82-4.05,4.05-4.05c2.23,0,4.05,1.82,4.05,4.05
			S35.07,20.74,32.84,20.74z M32.84,13.64c-1.68,0-3.05,1.37-3.05,3.05s1.37,3.05,3.05,3.05c1.68,0,3.05-1.37,3.05-3.05
			S34.52,13.64,32.84,13.64z"/>
	</g>
	<g>
		<circle class="st0" cx="34.69" cy="25.13" r="3.55"/>
		<path class="st3" d="M34.69,29.17c-2.23,0-4.05-1.82-4.05-4.05c0-2.23,1.82-4.05,4.05-4.05s4.05,1.82,4.05,4.05
			C38.74,27.36,36.93,29.17,34.69,29.17z M34.69,22.08c-1.68,0-3.05,1.37-3.05,3.05c0,1.68,1.37,3.05,3.05,3.05s3.05-1.37,3.05-3.05
			C37.74,23.45,36.37,22.08,34.69,22.08z"/>
	</g>
	<g>
		<circle class="st0" cx="58.09" cy="15.67" r="3.55"/>
		<path class="st3" d="M58.09,19.71c-2.23,0-4.05-1.82-4.05-4.05c0-2.23,1.82-4.05,4.05-4.05s4.05,1.82,4.05,4.05
			C62.14,17.9,60.32,19.71,58.09,19.71z M58.09,12.62c-1.68,0-3.05,1.37-3.05,3.05c0,1.68,1.37,3.05,3.05,3.05s3.05-1.37,3.05-3.05
			C61.14,13.99,59.77,12.62,58.09,12.62z"/>
	</g>
	<g>
		<circle class="st0" cx="61.64" cy="42.47" r="3.55"/>
		<path class="st3" d="M61.64,46.52c-2.23,0-4.05-1.82-4.05-4.05c0-2.23,1.82-4.05,4.05-4.05c2.23,0,4.05,1.82,4.05,4.05
			C65.69,44.7,63.87,46.52,61.64,46.52z M61.64,39.43c-1.68,0-3.05,1.37-3.05,3.05c0,1.68,1.37,3.05,3.05,3.05
			c1.68,0,3.05-1.37,3.05-3.05C64.69,40.79,63.32,39.43,61.64,39.43z"/>
	</g>
	<g>
		<circle class="st0" cx="63.89" cy="46.72" r="3.55"/>
		<path class="st3" d="M63.89,50.77c-2.23,0-4.05-1.82-4.05-4.05s1.82-4.05,4.05-4.05c2.23,0,4.05,1.82,4.05,4.05
			S66.12,50.77,63.89,50.77z M63.89,43.68c-1.68,0-3.05,1.37-3.05,3.05s1.37,3.05,3.05,3.05c1.68,0,3.05-1.37,3.05-3.05
			S65.57,43.68,63.89,43.68z"/>
	</g>
	<g>
		<circle class="st0" cx="65.19" cy="51.34" r="3.55"/>
		<path class="st3" d="M65.19,55.39c-2.23,0-4.05-1.82-4.05-4.05c0-2.23,1.82-4.05,4.05-4.05c2.23,0,4.05,1.82,4.05,4.05
			C69.23,53.57,67.42,55.39,65.19,55.39z M65.19,48.29c-1.68,0-3.05,1.37-3.05,3.05c0,1.68,1.37,3.05,3.05,3.05s3.05-1.37,3.05-3.05
			C68.23,49.66,66.87,48.29,65.19,48.29z"/>
	</g>
	<g>
		<circle class="st0" cx="63.89" cy="63.19" r="3.55"/>
		<path class="st3" d="M63.89,67.24c-2.23,0-4.05-1.82-4.05-4.05s1.82-4.05,4.05-4.05c2.23,0,4.05,1.82,4.05,4.05
			S66.12,67.24,63.89,67.24z M63.89,60.15c-1.68,0-3.05,1.37-3.05,3.05s1.37,3.05,3.05,3.05c1.68,0,3.05-1.37,3.05-3.05
			S65.57,60.15,63.89,60.15z"/>
	</g>
	<g>
		<circle class="st0" cx="67.44" cy="67.55" r="3.55"/>
		<path class="st3" d="M67.44,71.6c-2.23,0-4.05-1.82-4.05-4.05s1.82-4.05,4.05-4.05s4.05,1.82,4.05,4.05S69.67,71.6,67.44,71.6z
			 M67.44,64.5c-1.68,0-3.05,1.37-3.05,3.05s1.37,3.05,3.05,3.05c1.68,0,3.05-1.37,3.05-3.05S69.12,64.5,67.44,64.5z"/>
	</g>
	<g>
		<circle class="st0" cx="66.33" cy="78.74" r="3.55"/>
		<path class="st3" d="M66.33,82.79c-2.23,0-4.05-1.82-4.05-4.05s1.82-4.05,4.05-4.05c2.23,0,4.05,1.82,4.05,4.05
			S68.56,82.79,66.33,82.79z M66.33,75.7c-1.68,0-3.05,1.37-3.05,3.05s1.37,3.05,3.05,3.05s3.05-1.37,3.05-3.05
			S68.01,75.7,66.33,75.7z"/>
	</g>
	<g>
		<circle class="st0" cx="61.29" cy="33.21" r="3.55"/>
		<path class="st3" d="M61.29,37.26c-2.23,0-4.05-1.82-4.05-4.05c0-2.23,1.82-4.05,4.05-4.05c2.23,0,4.05,1.82,4.05,4.05
			C65.34,35.44,63.52,37.26,61.29,37.26z M61.29,30.16c-1.68,0-3.05,1.37-3.05,3.05c0,1.68,1.37,3.05,3.05,3.05
			c1.68,0,3.05-1.37,3.05-3.05C64.34,31.53,62.97,30.16,61.29,30.16z"/>
	</g>
	<g>
		<circle class="st0" cx="62.78" cy="29.16" r="3.55"/>
		<path class="st3" d="M62.78,33.2c-2.23,0-4.05-1.82-4.05-4.05c0-2.23,1.82-4.05,4.05-4.05s4.05,1.82,4.05,4.05
			C66.83,31.39,65.01,33.2,62.78,33.2z M62.78,26.11c-1.68,0-3.05,1.37-3.05,3.05c0,1.68,1.37,3.05,3.05,3.05s3.05-1.37,3.05-3.05
			C65.83,27.48,64.46,26.11,62.78,26.11z"/>
	</g>
	<g>
		<circle class="st0" cx="61.29" cy="24.44" r="3.55"/>
		<path class="st3" d="M61.29,28.48c-2.23,0-4.05-1.82-4.05-4.05c0-2.23,1.82-4.05,4.05-4.05c2.23,0,4.05,1.82,4.05,4.05
			C65.34,26.67,63.52,28.48,61.29,28.48z M61.29,21.39c-1.68,0-3.05,1.37-3.05,3.05c0,1.68,1.37,3.05,3.05,3.05
			c1.68,0,3.05-1.37,3.05-3.05C64.34,22.76,62.97,21.39,61.29,21.39z"/>
	</g>
	<g>
		<circle class="st0" cx="58.09" cy="11.93" r="3.55"/>
		<path class="st3" d="M58.09,15.98c-2.23,0-4.05-1.82-4.05-4.05c0-2.23,1.82-4.05,4.05-4.05s4.05,1.82,4.05,4.05
			C62.14,14.16,60.32,15.98,58.09,15.98z M58.09,8.88c-1.68,0-3.05,1.37-3.05,3.05c0,1.68,1.37,3.05,3.05,3.05s3.05-1.37,3.05-3.05
			C61.14,10.25,59.77,8.88,58.09,8.88z"/>
	</g>
	<g>
		<circle class="st0" cx="58.99" cy="18.93" r="3.55"/>
		<path class="st3" d="M58.99,22.98c-2.23,0-4.05-1.82-4.05-4.05c0-2.23,1.82-4.05,4.05-4.05c2.23,0,4.05,1.82,4.05,4.05
			C63.04,21.16,61.22,22.98,58.99,22.98z M58.99,15.88c-1.68,0-3.05,1.37-3.05,3.05c0,1.68,1.37,3.05,3.05,3.05
			c1.68,0,3.05-1.37,3.05-3.05C62.04,17.25,60.67,15.88,58.99,15.88z"/>
	</g>
	<g>
		<circle class="st0" cx="62.78" cy="14.14" r="3.55"/>
		<path class="st3" d="M62.78,18.18c-2.23,0-4.05-1.82-4.05-4.05c0-2.23,1.82-4.05,4.05-4.05s4.05,1.82,4.05,4.05
			C66.83,16.37,65.01,18.18,62.78,18.18z M62.78,11.09c-1.68,0-3.05,1.37-3.05,3.05c0,1.68,1.37,3.05,3.05,3.05s3.05-1.37,3.05-3.05
			C65.83,12.46,64.46,11.09,62.78,11.09z"/>
	</g>
	<g>
		<circle class="st0" cx="62.78" cy="37.68" r="3.55"/>
		<path class="st3" d="M62.78,41.73c-2.23,0-4.05-1.82-4.05-4.05c0-2.23,1.82-4.05,4.05-4.05s4.05,1.82,4.05,4.05
			C66.83,39.92,65.01,41.73,62.78,41.73z M62.78,34.64c-1.68,0-3.05,1.37-3.05,3.05c0,1.68,1.37,3.05,3.05,3.05s3.05-1.37,3.05-3.05
			C65.83,36,64.46,34.64,62.78,34.64z"/>
	</g>
	<g>
		<circle class="st0" cx="82.07" cy="8.38" r="3.55"/>
		<path class="st3" d="M82.07,12.43c-2.23,0-4.05-1.82-4.05-4.05c0-2.23,1.82-4.05,4.05-4.05s4.05,1.82,4.05,4.05
			C86.12,10.61,84.3,12.43,82.07,12.43z M82.07,5.34c-1.68,0-3.05,1.37-3.05,3.05c0,1.68,1.37,3.05,3.05,3.05s3.05-1.37,3.05-3.05
			C85.12,6.7,83.75,5.34,82.07,5.34z"/>
	</g>
	<g>
		<circle class="st0" cx="87.34" cy="22.57" r="3.55"/>
		<path class="st3" d="M87.34,26.62c-2.23,0-4.05-1.82-4.05-4.05c0-2.23,1.82-4.05,4.05-4.05s4.05,1.82,4.05,4.05
			C91.39,24.8,89.57,26.62,87.34,26.62z M87.34,19.52c-1.68,0-3.05,1.37-3.05,3.05c0,1.68,1.37,3.05,3.05,3.05s3.05-1.37,3.05-3.05
			C90.39,20.89,89.02,19.52,87.34,19.52z"/>
	</g>
	<g>
		<circle class="st0" cx="90.89" cy="60.46" r="3.55"/>
		<path class="st3" d="M90.89,64.5c-2.23,0-4.05-1.82-4.05-4.05c0-2.23,1.82-4.05,4.05-4.05s4.05,1.82,4.05,4.05
			C94.94,62.69,93.12,64.5,90.89,64.5z M90.89,57.41c-1.68,0-3.05,1.37-3.05,3.05c0,1.68,1.37,3.05,3.05,3.05s3.05-1.37,3.05-3.05
			C93.94,58.78,92.57,57.41,90.89,57.41z"/>
	</g>
	<g>
		<circle class="st0" cx="94.44" cy="57.45" r="3.55"/>
		<path class="st3" d="M94.44,61.49c-2.23,0-4.05-1.82-4.05-4.05c0-2.23,1.82-4.05,4.05-4.05c2.23,0,4.05,1.82,4.05,4.05
			C98.48,59.68,96.67,61.49,94.44,61.49z M94.44,54.4c-1.68,0-3.05,1.37-3.05,3.05c0,1.68,1.37,3.05,3.05,3.05s3.05-1.37,3.05-3.05
			C97.48,55.77,96.12,54.4,94.44,54.4z"/>
	</g>
	<g>
		<circle class="st0" cx="88.39" cy="45.87" r="3.55"/>
		<path class="st3" d="M88.39,49.91c-2.23,0-4.05-1.82-4.05-4.05c0-2.23,1.82-4.05,4.05-4.05s4.05,1.82,4.05,4.05
			C92.43,48.1,90.62,49.91,88.39,49.91z M88.39,42.82c-1.68,0-3.05,1.37-3.05,3.05c0,1.68,1.37,3.05,3.05,3.05s3.05-1.37,3.05-3.05
			C91.43,44.19,90.07,42.82,88.39,42.82z"/>
	</g>
	<g>
		<circle class="st0" cx="89.54" cy="50.45" r="3.55"/>
		<path class="st3" d="M89.54,54.5c-2.23,0-4.05-1.82-4.05-4.05c0-2.23,1.82-4.05,4.05-4.05s4.05,1.82,4.05,4.05
			C93.58,52.68,91.77,54.5,89.54,54.5z M89.54,47.41c-1.68,0-3.05,1.37-3.05,3.05c0,1.68,1.37,3.05,3.05,3.05s3.05-1.37,3.05-3.05
			C92.58,48.77,91.22,47.41,89.54,47.41z"/>
	</g>
	<g>
		<circle class="st0" cx="84.84" cy="29.16" r="3.55"/>
		<path class="st3" d="M84.84,33.2c-2.23,0-4.05-1.82-4.05-4.05c0-2.23,1.82-4.05,4.05-4.05c2.23,0,4.05,1.82,4.05,4.05
			C88.89,31.39,87.07,33.2,84.84,33.2z M84.84,26.11c-1.68,0-3.05,1.37-3.05,3.05c0,1.68,1.37,3.05,3.05,3.05s3.05-1.37,3.05-3.05
			C87.89,27.48,86.52,26.11,84.84,26.11z"/>
	</g>
	<g>
		<circle class="st0" cx="82.44" cy="13.72" r="3.55"/>
		<path class="st3" d="M82.44,17.77c-2.23,0-4.05-1.82-4.05-4.05c0-2.23,1.82-4.05,4.05-4.05c2.23,0,4.05,1.82,4.05,4.05
			C86.49,15.95,84.67,17.77,82.44,17.77z M82.44,10.67c-1.68,0-3.05,1.37-3.05,3.05c0,1.68,1.37,3.05,3.05,3.05s3.05-1.37,3.05-3.05
			C85.49,12.04,84.12,10.67,82.44,10.67z"/>
	</g>
	<g>
		<circle class="st0" cx="87.34" cy="11.93" r="3.55"/>
		<path class="st3" d="M87.34,15.98c-2.23,0-4.05-1.82-4.05-4.05c0-2.23,1.82-4.05,4.05-4.05s4.05,1.82,4.05,4.05
			C91.39,14.16,89.57,15.98,87.34,15.98z M87.34,8.88c-1.68,0-3.05,1.37-3.05,3.05c0,1.68,1.37,3.05,3.05,3.05s3.05-1.37,3.05-3.05
			C90.39,10.25,89.02,8.88,87.34,8.88z"/>
	</g>
	<g>
		<circle class="st0" cx="89.54" cy="26.99" r="3.55"/>
		<path class="st3" d="M89.54,31.04c-2.23,0-4.05-1.82-4.05-4.05c0-2.23,1.82-4.05,4.05-4.05s4.05,1.82,4.05,4.05
			C93.58,29.22,91.77,31.04,89.54,31.04z M89.54,23.95c-1.68,0-3.05,1.37-3.05,3.05c0,1.68,1.37,3.05,3.05,3.05s3.05-1.37,3.05-3.05
			C92.58,25.31,91.22,23.95,89.54,23.95z"/>
	</g>
	<g>
		<circle class="st0" cx="87.34" cy="40.05" r="3.55"/>
		<path class="st3" d="M87.34,44.09c-2.23,0-4.05-1.82-4.05-4.05c0-2.23,1.82-4.05,4.05-4.05s4.05,1.82,4.05,4.05
			C91.39,42.28,89.57,44.09,87.34,44.09z M87.34,37c-1.68,0-3.05,1.37-3.05,3.05c0,1.68,1.37,3.05,3.05,3.05s3.05-1.37,3.05-3.05
			C90.39,38.37,89.02,37,87.34,37z"/>
	</g>
	<g>
		<circle class="st0" cx="84.47" cy="36.43" r="3.55"/>
		<path class="st3" d="M84.47,40.48c-2.23,0-4.05-1.82-4.05-4.05c0-2.23,1.82-4.05,4.05-4.05s4.05,1.82,4.05,4.05
			C88.51,38.66,86.7,40.48,84.47,40.48z M84.47,33.38c-1.68,0-3.05,1.37-3.05,3.05c0,1.68,1.37,3.05,3.05,3.05s3.05-1.37,3.05-3.05
			C87.51,34.75,86.15,33.38,84.47,33.38z"/>
	</g>
	<g>
		<circle class="st0" cx="88.39" cy="33.57" r="3.55"/>
		<path class="st3" d="M88.39,37.61c-2.23,0-4.05-1.82-4.05-4.05c0-2.23,1.82-4.05,4.05-4.05s4.05,1.82,4.05,4.05
			C92.43,35.8,90.62,37.61,88.39,37.61z M88.39,30.52c-1.68,0-3.05,1.37-3.05,3.05c0,1.68,1.37,3.05,3.05,3.05s3.05-1.37,3.05-3.05
			C91.43,31.89,90.07,30.52,88.39,30.52z"/>
	</g>
	<g>
		<path class="st1" d="M108,108H0V0h108V108z M3,105h102V3H3V105z"/>
	</g>
	<g>
		<path class="st4" d="M45.64,25.38L8.59,25.34c-0.55,0-1-0.45-1-1s0.45-1,1-1c0,0,0,0,0,0l36.95,0.04l55.73-5.17
			c0.55-0.05,1.04,0.35,1.09,0.9c0.05,0.55-0.35,1.04-0.9,1.09L45.64,25.38z"/>
	</g>
</g>
</svg>
