<?xml version="1.0" encoding="utf-8"?>
<!-- Generator: Adobe Illustrator 23.0.1, SVG Export Plug-In . SVG Version: 6.00 Build 0)  -->
<svg version="1.1" id="Layer_1" xmlns="http://www.w3.org/2000/svg" xmlns:xlink="http://www.w3.org/1999/xlink" x="0px" y="0px"
	 viewBox="0 0 108 108" style="enable-background:new 0 0 108 108;" xml:space="preserve">
<style type="text/css">
	.st0{fill:#FFFFFF;}
	.st1{fill:#BABABA;}
	.st2{fill:#EAEAEA;}
	.st3{fill:#72BA97;}
	.st4{fill:#5787FB;}
</style>
<g>
	<g>
		<rect x="1.5" y="1.5" class="st0" width="105" height="105"/>
		<path class="st1" d="M108,108H0V0h108V108z M3,105h102V3H3V105z"/>
	</g>
	<g>
		<rect x="70" y="1.5" class="st2" width="3" height="105"/>
	</g>
	<g>
		<rect x="35" y="1.5" class="st2" width="3" height="105"/>
	</g>
	<g>
		<rect x="1.5" y="35" class="st2" width="105" height="3"/>
	</g>
	<g>
		<rect x="1.5" y="70" class="st2" width="105" height="3"/>
	</g>
	<g>
		<circle class="st0" cx="21.21" cy="83.43" r="3.55"/>
		<path class="st3" d="M21.21,87.48c-2.23,0-4.05-1.82-4.05-4.05c0-2.23,1.82-4.05,4.05-4.05c2.23,0,4.05,1.82,4.05,4.05
			C25.25,85.67,23.44,87.48,21.21,87.48z M21.21,80.39c-1.68,0-3.05,1.37-3.05,3.05s1.37,3.05,3.05,3.05c1.68,0,3.05-1.37,3.05-3.05
			S22.89,80.39,21.21,80.39z"/>
	</g>
	<g>
		<circle class="st0" cx="16.37" cy="84.8" r="3.55"/>
		<path class="st3" d="M16.37,88.84c-2.23,0-4.05-1.82-4.05-4.05c0-2.23,1.82-4.05,4.05-4.05c2.23,0,4.05,1.82,4.05,4.05
			C20.42,87.03,18.61,88.84,16.37,88.84z M16.37,81.75c-1.68,0-3.05,1.37-3.05,3.05s1.37,3.05,3.05,3.05c1.68,0,3.05-1.37,3.05-3.05
			S18.05,81.75,16.37,81.75z"/>
	</g>
	<g>
		<circle class="st0" cx="39.16" cy="64.76" r="3.55"/>
		<path class="st3" d="M39.16,68.81c-2.23,0-4.05-1.82-4.05-4.05c0-2.23,1.82-4.05,4.05-4.05c2.23,0,4.05,1.82,4.05,4.05
			C43.21,66.99,41.39,68.81,39.16,68.81z M39.16,61.72c-1.68,0-3.05,1.37-3.05,3.05s1.37,3.05,3.05,3.05c1.68,0,3.05-1.37,3.05-3.05
			S40.84,61.72,39.16,61.72z"/>
	</g>
	<g>
		<circle class="st0" cx="36.38" cy="69.5" r="3.55"/>
		<path class="st3" d="M36.38,73.55c-2.23,0-4.05-1.82-4.05-4.05s1.82-4.05,4.05-4.05c2.23,0,4.05,1.82,4.05,4.05
			S38.62,73.55,36.38,73.55z M36.38,66.46c-1.68,0-3.05,1.37-3.05,3.05s1.37,3.05,3.05,3.05c1.68,0,3.05-1.37,3.05-3.05
			S38.06,66.46,36.38,66.46z"/>
	</g>
	<g>
		<circle class="st0" cx="34.53" cy="74.64" r="3.55"/>
		<path class="st3" d="M34.53,78.69c-2.23,0-4.05-1.82-4.05-4.05c0-2.23,1.82-4.05,4.05-4.05c2.23,0,4.05,1.82,4.05,4.05
			C38.57,76.87,36.76,78.69,34.53,78.69z M34.53,71.6c-1.68,0-3.05,1.37-3.05,3.05s1.37,3.05,3.05,3.05c1.68,0,3.05-1.37,3.05-3.05
			S36.21,71.6,34.53,71.6z"/>
	</g>
	<g>
		<circle class="st0" cx="30.98" cy="78.74" r="3.55"/>
		<path class="st3" d="M30.98,82.79c-2.23,0-4.05-1.82-4.05-4.05s1.82-4.05,4.05-4.05c2.23,0,4.05,1.82,4.05,4.05
			S33.21,82.79,30.98,82.79z M30.98,75.7c-1.68,0-3.05,1.37-3.05,3.05s1.37,3.05,3.05,3.05c1.68,0,3.05-1.37,3.05-3.05
			S32.66,75.7,30.98,75.7z"/>
	</g>
	<g>
		<circle class="st0" cx="27.15" cy="82.29" r="3.55"/>
		<path class="st3" d="M27.15,86.34c-2.23,0-4.05-1.82-4.05-4.05c0-2.23,1.82-4.05,4.05-4.05c2.23,0,4.05,1.82,4.05,4.05
			C31.19,84.52,29.38,86.34,27.15,86.34z M27.15,79.24c-1.68,0-3.05,1.37-3.05,3.05s1.37,3.05,3.05,3.05c1.68,0,3.05-1.37,3.05-3.05
			S28.83,79.24,27.15,79.24z"/>
	</g>
	<g>
		<circle class="st0" cx="45.17" cy="51.34" r="3.55"/>
		<path class="st3" d="M45.17,55.39c-2.23,0-4.05-1.82-4.05-4.05c0-2.23,1.82-4.05,4.05-4.05c2.23,0,4.05,1.82,4.05,4.05
			C49.21,53.57,47.4,55.39,45.17,55.39z M45.17,48.29c-1.68,0-3.05,1.37-3.05,3.05c0,1.68,1.37,3.05,3.05,3.05
			c1.68,0,3.05-1.37,3.05-3.05C48.21,49.66,46.85,48.29,45.17,48.29z"/>
	</g>
	<g>
		<circle class="st0" cx="49.81" cy="49.41" r="3.55"/>
		<path class="st3" d="M49.81,53.46c-2.23,0-4.05-1.82-4.05-4.05c0-2.23,1.82-4.05,4.05-4.05c2.23,0,4.05,1.82,4.05,4.05
			C53.86,51.65,52.04,53.46,49.81,53.46z M49.81,46.37c-1.68,0-3.05,1.37-3.05,3.05c0,1.68,1.37,3.05,3.05,3.05
			c1.68,0,3.05-1.37,3.05-3.05C52.86,47.73,51.49,46.37,49.81,46.37z"/>
	</g>
	<g>
		<circle class="st0" cx="43.48" cy="56.1" r="3.55"/>
		<path class="st3" d="M43.48,60.15c-2.23,0-4.05-1.82-4.05-4.05s1.82-4.05,4.05-4.05c2.23,0,4.05,1.82,4.05,4.05
			S45.71,60.15,43.48,60.15z M43.48,53.05c-1.68,0-3.05,1.37-3.05,3.05s1.37,3.05,3.05,3.05c1.68,0,3.05-1.37,3.05-3.05
			S45.16,53.05,43.48,53.05z"/>
	</g>
	<g>
		<circle class="st0" cx="41.62" cy="60.46" r="3.55"/>
		<path class="st3" d="M41.62,64.5c-2.23,0-4.05-1.82-4.05-4.05c0-2.23,1.82-4.05,4.05-4.05c2.23,0,4.05,1.82,4.05,4.05
			C45.67,62.69,43.85,64.5,41.62,64.5z M41.62,57.41c-1.68,0-3.05,1.37-3.05,3.05c0,1.68,1.37,3.05,3.05,3.05
			c1.68,0,3.05-1.37,3.05-3.05C44.67,58.78,43.3,57.41,41.62,57.41z"/>
	</g>
	<g>
		<circle class="st0" cx="9.28" cy="91.89" r="3.55"/>
		<path class="st3" d="M9.28,95.94c-2.23,0-4.05-1.82-4.05-4.05s1.82-4.05,4.05-4.05c2.23,0,4.05,1.82,4.05,4.05
			S11.51,95.94,9.28,95.94z M9.28,88.84c-1.68,0-3.05,1.37-3.05,3.05s1.37,3.05,3.05,3.05c1.68,0,3.05-1.37,3.05-3.05
			S10.96,88.84,9.28,88.84z"/>
	</g>
	<g>
		<circle class="st0" cx="57.74" cy="44.78" r="3.55"/>
		<path class="st3" d="M57.74,48.82c-2.23,0-4.05-1.82-4.05-4.05c0-2.23,1.82-4.05,4.05-4.05c2.23,0,4.05,1.82,4.05,4.05
			C61.79,47.01,59.97,48.82,57.74,48.82z M57.74,41.73c-1.68,0-3.05,1.37-3.05,3.05c0,1.68,1.37,3.05,3.05,3.05
			c1.68,0,3.05-1.37,3.05-3.05C60.79,43.1,59.42,41.73,57.74,41.73z"/>
	</g>
	<g>
		<circle class="st0" cx="61.64" cy="41.23" r="3.55"/>
		<path class="st3" d="M61.64,45.28c-2.23,0-4.05-1.82-4.05-4.05c0-2.23,1.82-4.05,4.05-4.05c2.23,0,4.05,1.82,4.05,4.05
			C65.69,43.46,63.87,45.28,61.64,45.28z M61.64,38.18c-1.68,0-3.05,1.37-3.05,3.05c0,1.68,1.37,3.05,3.05,3.05
			c1.68,0,3.05-1.37,3.05-3.05C64.69,39.55,63.32,38.18,61.64,38.18z"/>
	</g>
	<g>
		<circle class="st0" cx="64.84" cy="38.93" r="3.55"/>
		<path class="st3" d="M64.84,42.97c-2.23,0-4.05-1.82-4.05-4.05c0-2.23,1.82-4.05,4.05-4.05s4.05,1.82,4.05,4.05
			C68.88,41.16,67.07,42.97,64.84,42.97z M64.84,35.88c-1.68,0-3.05,1.37-3.05,3.05c0,1.68,1.37,3.05,3.05,3.05
			c1.68,0,3.05-1.37,3.05-3.05C67.88,37.25,66.52,35.88,64.84,35.88z"/>
	</g>
	<g>
		<circle class="st0" cx="53.36" cy="46.91" r="3.55"/>
		<path class="st3" d="M53.36,50.95c-2.23,0-4.05-1.82-4.05-4.05c0-2.23,1.82-4.05,4.05-4.05c2.23,0,4.05,1.82,4.05,4.05
			C57.4,49.14,55.59,50.95,53.36,50.95z M53.36,43.86c-1.68,0-3.05,1.37-3.05,3.05c0,1.68,1.37,3.05,3.05,3.05
			c1.68,0,3.05-1.37,3.05-3.05C56.4,45.23,55.04,43.86,53.36,43.86z"/>
	</g>
	<g>
		<circle class="st0" cx="93.08" cy="12.12" r="3.55"/>
		<path class="st3" d="M93.08,16.17c-2.23,0-4.05-1.82-4.05-4.05c0-2.23,1.82-4.05,4.05-4.05s4.05,1.82,4.05,4.05
			C97.13,14.35,95.31,16.17,93.08,16.17z M93.08,9.07c-1.68,0-3.05,1.37-3.05,3.05c0,1.68,1.37,3.05,3.05,3.05s3.05-1.37,3.05-3.05
			C96.13,10.44,94.76,9.07,93.08,9.07z"/>
	</g>
	<g>
		<circle class="st0" cx="68.38" cy="36.76" r="3.55"/>
		<path class="st3" d="M68.38,40.8c-2.23,0-4.05-1.82-4.05-4.05c0-2.23,1.82-4.05,4.05-4.05c2.23,0,4.05,1.82,4.05,4.05
			C72.43,38.99,70.61,40.8,68.38,40.8z M68.38,33.71c-1.68,0-3.05,1.37-3.05,3.05c0,1.68,1.37,3.05,3.05,3.05s3.05-1.37,3.05-3.05
			C71.43,35.08,70.06,33.71,68.38,33.71z"/>
	</g>
	<g>
		<circle class="st0" cx="71.93" cy="32.95" r="3.55"/>
		<path class="st3" d="M71.93,37c-2.23,0-4.05-1.82-4.05-4.05c0-2.23,1.82-4.05,4.05-4.05c2.23,0,4.05,1.82,4.05,4.05
			C75.98,35.18,74.16,37,71.93,37z M71.93,29.91c-1.68,0-3.05,1.37-3.05,3.05c0,1.68,1.37,3.05,3.05,3.05s3.05-1.37,3.05-3.05
			C74.98,31.27,73.61,29.91,71.93,29.91z"/>
	</g>
	<g>
		<circle class="st0" cx="77.37" cy="24.44" r="3.55"/>
		<path class="st3" d="M77.38,28.48c-2.23,0-4.05-1.82-4.05-4.05c0-2.23,1.82-4.05,4.05-4.05c2.23,0,4.05,1.82,4.05,4.05
			C81.42,26.67,79.61,28.48,77.38,28.48z M77.38,21.39c-1.68,0-3.05,1.37-3.05,3.05c0,1.68,1.37,3.05,3.05,3.05s3.05-1.37,3.05-3.05
			C80.42,22.76,79.05,21.39,77.38,21.39z"/>
	</g>
	<g>
		<circle class="st0" cx="83.8" cy="17.88" r="3.55"/>
		<path class="st3" d="M83.8,21.92c-2.23,0-4.05-1.82-4.05-4.05c0-2.23,1.82-4.05,4.05-4.05c2.23,0,4.05,1.82,4.05,4.05
			C87.84,20.11,86.03,21.92,83.8,21.92z M83.8,14.83c-1.68,0-3.05,1.37-3.05,3.05c0,1.68,1.37,3.05,3.05,3.05s3.05-1.37,3.05-3.05
			C86.84,16.2,85.48,14.83,83.8,14.83z"/>
	</g>
	<g>
		<circle class="st0" cx="74.53" cy="29.16" r="3.55"/>
		<path class="st3" d="M74.53,33.2c-2.23,0-4.05-1.82-4.05-4.05c0-2.23,1.82-4.05,4.05-4.05c2.23,0,4.05,1.82,4.05,4.05
			C78.58,31.39,76.76,33.2,74.53,33.2z M74.53,26.11c-1.68,0-3.05,1.37-3.05,3.05c0,1.68,1.37,3.05,3.05,3.05s3.05-1.37,3.05-3.05
			C77.58,27.48,76.21,26.11,74.53,26.11z"/>
	</g>
	<g>
		<path class="st1" d="M108,108H0V0h108V108z M3,105h102V3H3V105z"/>
	</g>
	<g>
		<g>
			<path class="st1" d="M6.97,78.81c-0.15,0-0.3-0.07-0.4-0.2c-0.16-0.22-0.12-0.54,0.1-0.7l1.2-0.9c0.22-0.17,0.53-0.12,0.7,0.1
				c0.16,0.22,0.12,0.54-0.1,0.7l-1.2,0.9C7.18,78.77,7.07,78.81,6.97,78.81z"/>
		</g>
		<g>
			<path class="st1" d="M10.59,76.11c-0.15,0-0.3-0.07-0.4-0.2c-0.16-0.22-0.12-0.54,0.1-0.7l2.42-1.8c0.22-0.16,0.53-0.12,0.7,0.1
				c0.16,0.22,0.12,0.54-0.1,0.7l-2.42,1.8C10.8,76.08,10.69,76.11,10.59,76.11z M15.43,72.52c-0.15,0-0.3-0.07-0.4-0.2
				c-0.16-0.22-0.12-0.54,0.1-0.7l2.42-1.8c0.22-0.17,0.53-0.12,0.7,0.1c0.16,0.22,0.12,0.53-0.1,0.7l-2.42,1.8
				C15.63,72.48,15.53,72.52,15.43,72.52z M20.26,68.92c-0.15,0-0.3-0.07-0.4-0.2c-0.16-0.22-0.12-0.54,0.1-0.7l2.27-1.74
				c0.17-0.22,0.48-0.27,0.7-0.1c0.22,0.16,0.27,0.48,0.1,0.7l-0.12,0.16c-0.03,0.04-0.06,0.07-0.1,0.1l-2.26,1.68
				C20.47,68.89,20.37,68.92,20.26,68.92z M24.43,64.66c-0.1,0-0.21-0.03-0.3-0.1c-0.22-0.16-0.27-0.48-0.1-0.7l1.79-2.42
				c0.17-0.22,0.48-0.27,0.7-0.1c0.22,0.16,0.27,0.48,0.1,0.7l-1.79,2.42C24.74,64.59,24.58,64.66,24.43,64.66z M28.02,59.81
				c-0.1,0-0.21-0.03-0.3-0.1c-0.22-0.16-0.27-0.48-0.1-0.7l1.79-2.42c0.17-0.22,0.48-0.27,0.7-0.1c0.22,0.16,0.27,0.48,0.1,0.7
				l-1.79,2.42C28.32,59.74,28.17,59.81,28.02,59.81z M31.61,54.97c-0.1,0-0.21-0.03-0.3-0.1c-0.22-0.16-0.27-0.48-0.1-0.7L33,51.75
				c0.17-0.22,0.48-0.27,0.7-0.1c0.22,0.16,0.27,0.48,0.1,0.7l-1.79,2.42C31.91,54.9,31.76,54.97,31.61,54.97z M35.2,50.13
				c-0.1,0-0.21-0.03-0.3-0.1c-0.22-0.16-0.27-0.48-0.1-0.7l1.79-2.42c0.16-0.22,0.48-0.27,0.7-0.1c0.22,0.16,0.27,0.48,0.1,0.7
				l-1.79,2.42C35.5,50.06,35.35,50.13,35.2,50.13z M38.78,45.29c-0.1,0-0.21-0.03-0.3-0.1c-0.22-0.16-0.27-0.48-0.1-0.7l1.79-2.42
				c0.17-0.22,0.48-0.27,0.7-0.1c0.22,0.16,0.27,0.48,0.1,0.7l-1.79,2.42C39.09,45.22,38.94,45.29,38.78,45.29z M42.37,40.44
				c-0.1,0-0.21-0.03-0.3-0.1c-0.22-0.16-0.27-0.48-0.1-0.7l1.79-2.42c0.17-0.22,0.48-0.27,0.7-0.1c0.22,0.16,0.27,0.48,0.1,0.7
				l-1.79,2.42C42.68,40.37,42.53,40.44,42.37,40.44z M45.96,35.6c-0.1,0-0.21-0.03-0.3-0.1c-0.22-0.16-0.27-0.48-0.1-0.7l1.79-2.42
				c0.17-0.22,0.48-0.27,0.7-0.1c0.22,0.16,0.27,0.48,0.1,0.7l-1.79,2.42C46.26,35.53,46.11,35.6,45.96,35.6z M49.55,30.76
				c-0.1,0-0.21-0.03-0.3-0.1c-0.22-0.16-0.27-0.48-0.1-0.7l1.79-2.42c0.17-0.22,0.48-0.27,0.7-0.1c0.22,0.16,0.27,0.48,0.1,0.7
				l-1.79,2.42C49.85,30.69,49.7,30.76,49.55,30.76z M53.14,25.91c-0.1,0-0.21-0.03-0.3-0.1c-0.22-0.16-0.27-0.48-0.1-0.7l1.79-2.42
				c0.16-0.22,0.48-0.27,0.7-0.1c0.22,0.16,0.27,0.48,0.1,0.7l-1.79,2.42C53.44,25.84,53.29,25.91,53.14,25.91z M56.73,21.07
				c-0.1,0-0.21-0.03-0.3-0.1c-0.22-0.16-0.27-0.48-0.1-0.7l1.79-2.42c0.17-0.22,0.48-0.27,0.7-0.1c0.22,0.16,0.27,0.48,0.1,0.7
				l-1.79,2.42C57.03,21,56.88,21.07,56.73,21.07z M60.31,16.23c-0.1,0-0.21-0.03-0.3-0.1c-0.22-0.16-0.27-0.48-0.1-0.7l1.79-2.42
				c0.17-0.22,0.48-0.27,0.7-0.1c0.22,0.16,0.27,0.48,0.1,0.7l-1.79,2.42C60.62,16.16,60.47,16.23,60.31,16.23z M63.9,11.38
				c-0.1,0-0.21-0.03-0.3-0.1c-0.22-0.16-0.27-0.48-0.1-0.7l1.79-2.42c0.17-0.22,0.48-0.27,0.7-0.1c0.22,0.16,0.27,0.48,0.1,0.7
				l-1.79,2.42C64.21,11.31,64.06,11.38,63.9,11.38z"/>
		</g>
		<g>
			<path class="st1" d="M67.49,6.54c-0.1,0-0.21-0.03-0.3-0.1c-0.22-0.16-0.27-0.48-0.1-0.7l0.89-1.21c0.16-0.22,0.48-0.27,0.7-0.1
				c0.22,0.16,0.27,0.48,0.1,0.7l-0.89,1.21C67.79,6.47,67.64,6.54,67.49,6.54z"/>
		</g>
	</g>
	<g>
		<g>
			<path class="st1" d="M6.97,86.86c-0.14,0-0.27-0.06-0.37-0.17c-0.18-0.21-0.17-0.52,0.04-0.71l1.12-1
				c0.21-0.18,0.52-0.17,0.71,0.04c0.18,0.21,0.17,0.52-0.04,0.71l-1.12,1C7.21,86.82,7.09,86.86,6.97,86.86z"/>
		</g>
		<g>
			<path class="st1" d="M10.33,83.85c-0.14,0-0.27-0.06-0.37-0.17c-0.18-0.21-0.17-0.52,0.04-0.71l2.25-2.01
				c0.21-0.18,0.52-0.17,0.71,0.04c0.18,0.21,0.17,0.52-0.04,0.71l-2.25,2.01C10.57,83.81,10.45,83.85,10.33,83.85z M14.82,79.84
				c-0.14,0-0.27-0.06-0.37-0.17c-0.18-0.21-0.17-0.52,0.04-0.71l2.25-2.01c0.21-0.18,0.52-0.17,0.71,0.04
				c0.18,0.21,0.17,0.52-0.04,0.71l-2.25,2.01C15.06,79.8,14.94,79.84,14.82,79.84z M19.31,75.83c-0.14,0-0.27-0.06-0.37-0.17
				c-0.18-0.21-0.17-0.52,0.04-0.71l2.25-2.01c0.21-0.18,0.52-0.17,0.71,0.04c0.18,0.21,0.17,0.52-0.04,0.71l-2.25,2.01
				C19.55,75.79,19.43,75.83,19.31,75.83z M23.77,71.79c-0.11,0-0.22-0.04-0.32-0.11c-0.21-0.17-0.25-0.49-0.07-0.7l1.91-2.33
				c0.17-0.21,0.49-0.25,0.7-0.07c0.21,0.17,0.25,0.49,0.07,0.7l-1.91,2.33C24.06,71.72,23.92,71.79,23.77,71.79z M27.58,67.12
				c-0.11,0-0.22-0.04-0.32-0.11c-0.21-0.17-0.25-0.49-0.07-0.7l1.91-2.33c0.17-0.21,0.49-0.25,0.7-0.07
				c0.21,0.17,0.25,0.49,0.07,0.7l-1.91,2.33C27.87,67.06,27.73,67.12,27.58,67.12z M31.4,62.46c-0.11,0-0.22-0.04-0.32-0.11
				c-0.21-0.17-0.25-0.49-0.07-0.7l1.91-2.33c0.17-0.21,0.49-0.25,0.7-0.07c0.21,0.17,0.25,0.49,0.07,0.7l-1.91,2.33
				C31.69,62.4,31.54,62.46,31.4,62.46z M35.21,57.79c-0.11,0-0.22-0.04-0.32-0.11c-0.21-0.17-0.25-0.49-0.07-0.7l1.91-2.33
				c0.17-0.21,0.49-0.25,0.7-0.07c0.21,0.17,0.25,0.49,0.07,0.7l-1.91,2.33C35.5,57.73,35.35,57.79,35.21,57.79z M39.02,53.13
				c-0.11,0-0.22-0.04-0.32-0.11c-0.21-0.17-0.25-0.49-0.07-0.7l1.91-2.33c0.17-0.21,0.49-0.25,0.7-0.07
				c0.21,0.17,0.25,0.49,0.07,0.7l-1.91,2.33C39.31,53.07,39.16,53.13,39.02,53.13z M42.83,48.47c-0.11,0-0.22-0.04-0.32-0.11
				c-0.21-0.17-0.25-0.49-0.07-0.7l1.91-2.33c0.17-0.21,0.49-0.25,0.7-0.07c0.21,0.17,0.25,0.49,0.07,0.7l-1.91,2.33
				C43.12,48.41,42.97,48.47,42.83,48.47z M46.64,43.81c-0.11,0-0.22-0.04-0.32-0.11c-0.21-0.17-0.25-0.49-0.07-0.7l1.91-2.33
				c0.17-0.21,0.49-0.25,0.7-0.07c0.21,0.17,0.25,0.49,0.07,0.7l-1.91,2.33C46.93,43.74,46.79,43.81,46.64,43.81z M50.45,39.14
				c-0.11,0-0.22-0.04-0.32-0.11c-0.21-0.17-0.25-0.49-0.07-0.7l1.91-2.33c0.17-0.21,0.49-0.25,0.7-0.07
				c0.21,0.17,0.25,0.49,0.07,0.7l-1.91,2.33C50.74,39.08,50.6,39.14,50.45,39.14z M54.26,34.48c-0.11,0-0.22-0.04-0.32-0.11
				c-0.21-0.17-0.25-0.49-0.07-0.7l1.91-2.33c0.17-0.21,0.49-0.25,0.7-0.07c0.21,0.17,0.25,0.49,0.07,0.7l-1.91,2.33
				C54.55,34.42,54.41,34.48,54.26,34.48z M58.07,29.81c-0.11,0-0.22-0.04-0.32-0.11c-0.21-0.17-0.25-0.49-0.07-0.7l1.91-2.33
				c0.17-0.21,0.49-0.25,0.7-0.07c0.21,0.17,0.25,0.49,0.07,0.7l-1.91,2.33C58.36,29.75,58.22,29.81,58.07,29.81z M61.88,25.15
				c-0.11,0-0.22-0.04-0.32-0.11c-0.21-0.17-0.25-0.49-0.07-0.7L63.4,22c0.17-0.21,0.49-0.25,0.7-0.07c0.21,0.17,0.25,0.49,0.07,0.7
				l-1.91,2.33C62.17,25.09,62.03,25.15,61.88,25.15z M65.69,20.49c-0.11,0-0.22-0.04-0.32-0.11c-0.21-0.17-0.25-0.49-0.07-0.7
				l1.91-2.33c0.17-0.21,0.49-0.24,0.7-0.07c0.21,0.17,0.25,0.49,0.07,0.7l-1.91,2.33C65.98,20.43,65.84,20.49,65.69,20.49z
				 M69.51,15.82c-0.11,0-0.22-0.04-0.32-0.11c-0.21-0.17-0.25-0.49-0.07-0.7l1.91-2.33c0.17-0.21,0.49-0.25,0.7-0.07
				c0.21,0.17,0.25,0.49,0.07,0.7l-1.91,2.33C69.79,15.76,69.65,15.82,69.51,15.82z M73.32,11.16c-0.11,0-0.22-0.04-0.32-0.11
				c-0.21-0.17-0.25-0.49-0.07-0.7l1.91-2.33c0.17-0.21,0.49-0.24,0.7-0.07c0.21,0.17,0.25,0.49,0.07,0.7l-1.91,2.33
				C73.61,11.1,73.46,11.16,73.32,11.16z"/>
		</g>
		<g>
			<path class="st1" d="M77.13,6.5c-0.11,0-0.22-0.04-0.32-0.11c-0.21-0.17-0.25-0.49-0.07-0.7l0.95-1.16
				c0.17-0.21,0.49-0.25,0.7-0.07c0.21,0.17,0.25,0.49,0.07,0.7l-0.95,1.16C77.42,6.44,77.27,6.5,77.13,6.5z"/>
		</g>
	</g>
	<g>
		<path class="st4" d="M6.97,68.55c-0.34,0-0.68-0.18-0.87-0.5c-0.28-0.48-0.12-1.09,0.36-1.37l36.85-21.44L86.29,3.71
			c0.4-0.38,1.03-0.37,1.41,0.02c0.38,0.4,0.37,1.03-0.02,1.41L44.61,46.77c-0.06,0.06-0.12,0.1-0.19,0.15L7.47,68.41
			C7.31,68.51,7.14,68.55,6.97,68.55z"/>
	</g>
</g>
</svg>
