<?xml version="1.0" encoding="utf-8"?>
<!-- Generator: Adobe Illustrator 22.1.0, SVG Export Plug-In . SVG Version: 6.00 Build 0)  -->
<svg version="1.1" id="Layer_1" xmlns="http://www.w3.org/2000/svg" xmlns:xlink="http://www.w3.org/1999/xlink" x="0px" y="0px"
	 viewBox="0 0 10 10" style="enable-background:new 0 0 10 10;" xml:space="preserve">
<style type="text/css">
	.st0{fill:#FFFFFF;}
</style>
<path class="st0" d="M5,5.4L1.6,8.8C1.4,9.1,1,9.1,0.7,8.8L0.2,8.3c-0.2-0.2-0.2-0.6,0-0.8L2.6,5L0.2,2.6c-0.2-0.2-0.2-0.6,0-0.8
	l0.6-0.6c0.2-0.2,0.6-0.2,0.8,0L5,4.6C5.2,4.8,5.2,5.2,5,5.4z M9.8,4.6L6.4,1.2c-0.2-0.2-0.6-0.2-0.8,0L5,1.7C4.7,2,4.7,2.4,5,2.6
	L7.4,5L5,7.4C4.7,7.6,4.7,8,5,8.2l0.6,0.6C5.8,9,6.1,9,6.4,8.8l3.4-3.4C10,5.2,10,4.8,9.8,4.6L9.8,4.6z"/>
</svg>
