<?xml version="1.0" encoding="utf-8"?>
<!-- Generator: Adobe Illustrator 22.1.0, SVG Export Plug-In . SVG Version: 6.00 Build 0)  -->
<svg version="1.1" id="Layer_1" xmlns="http://www.w3.org/2000/svg" xmlns:xlink="http://www.w3.org/1999/xlink" x="0px" y="0px"
	 viewBox="0 0 10 10" style="enable-background:new 0 0 10 10;" xml:space="preserve">
<style type="text/css">
	.st0{fill:#AEB5B7;}
</style>
<path class="st0" d="M9.8,3.4L10,2.5c0-0.2-0.1-0.3-0.3-0.3H8.1l0.3-1.8C8.4,0.2,8.3,0,8.1,0H7.2C7.1,0,7,0.1,7,0.2L6.6,2.1H4.4
	l0.3-1.8C4.8,0.2,4.6,0,4.5,0H3.6C3.4,0,3.3,0.1,3.3,0.2L3,2.1H1.2C1.1,2.1,1,2.2,0.9,2.4L0.8,3.3c0,0.2,0.1,0.3,0.3,0.3h1.7
	L2.2,6.4H0.4c-0.1,0-0.2,0.1-0.3,0.2L0,7.5c0,0.2,0.1,0.3,0.3,0.3h1.7L1.6,9.7c0,0.2,0.1,0.3,0.3,0.3h0.9C2.9,10,3,9.9,3,9.8
	l0.3-1.9h2.2L5.3,9.7c0,0.2,0.1,0.3,0.3,0.3h0.9c0.1,0,0.2-0.1,0.3-0.2L7,7.9h1.8c0.1,0,0.2-0.1,0.3-0.2l0.2-0.9
	c0-0.2-0.1-0.3-0.3-0.3H7.3l0.5-2.9h1.8C9.7,3.6,9.8,3.5,9.8,3.4z M5.8,6.4H3.6l0.5-2.9h2.2L5.8,6.4z"/>
</svg>
