<?xml version="1.0" encoding="utf-8"?>
<!-- Generator: Adobe Illustrator 22.1.0, SVG Export Plug-In . SVG Version: 6.00 Build 0)  -->
<svg version="1.1" id="Layer_1" xmlns="http://www.w3.org/2000/svg" xmlns:xlink="http://www.w3.org/1999/xlink" x="0px" y="0px"
	 viewBox="0 0 10 10" style="enable-background:new 0 0 10 10;" xml:space="preserve">
<style type="text/css">
	.st0{fill:#FFFFFF;}
</style>
<path class="st0" d="M9.7,2.2L7.8,0.3C7.6,0.1,7.3,0,7.1,0h-6C0.5,0,0,0.5,0,1.1v7.9C0,9.5,0.5,10,1.1,10h7.9C9.5,10,10,9.5,10,8.9
	v-6C10,2.7,9.9,2.4,9.7,2.2L9.7,2.2z M5,8.6c-0.8,0-1.4-0.6-1.4-1.4S4.2,5.7,5,5.7s1.4,0.6,1.4,1.4S5.8,8.6,5,8.6z M7.1,1.8V4
	c0,0.1-0.1,0.3-0.3,0.3H1.7C1.5,4.3,1.4,4.2,1.4,4V1.7c0-0.1,0.1-0.3,0.3-0.3h5.1c0.1,0,0.1,0,0.2,0.1l0.1,0.1
	C7.1,1.6,7.1,1.7,7.1,1.8z"/>
</svg>
