<?xml version="1.0" encoding="utf-8"?>
<!-- Generator: Adobe Illustrator 23.0.1, SVG Export Plug-In . SVG Version: 6.00 Build 0)  -->
<svg version="1.1" id="Layer_1" xmlns="http://www.w3.org/2000/svg" xmlns:xlink="http://www.w3.org/1999/xlink" x="0px" y="0px"
	 viewBox="0 0 106.5 106.5" style="enable-background:new 0 0 106.5 106.5;" xml:space="preserve">
<style type="text/css">
	.st0{fill:#FFFFFF;}
	.st1{fill:#BABABA;}
	.st2{fill:#72BA97;}
	.st3{fill:#E6EAED;}
	.st4{fill:#5787FB;}
</style>
<g>
	<g>
		<rect x="1.5" y="0" class="st0" width="105" height="105"/>
	</g>
	<g>
		<polygon class="st1" points="106.5,106.5 0,106.5 0,0 3,0 3,103.5 106.5,103.5 		"/>
	</g>
	<g>
		<rect x="6.51" y="98.39" class="st2" width="15.68" height="1.9"/>
	</g>
	<g>
		<rect x="22.19" y="90.6" class="st3" width="15.68" height="9.69"/>
	</g>
	<g>
		<rect x="37.87" y="76.4" class="st2" width="15.68" height="23.9"/>
	</g>
	<g>
		<rect x="53.55" y="52.5" class="st3" width="15.68" height="47.79"/>
	</g>
	<g>
		<rect x="84.91" y="40.8" class="st3" width="15.68" height="59.5"/>
	</g>
	<g>
		<rect x="69.23" y="14.82" class="st2" width="15.68" height="85.47"/>
	</g>
	<g>
		<path class="st4" d="M6.51,99.39c-0.45,0-0.86-0.3-0.97-0.76c-0.13-0.54,0.19-1.08,0.73-1.21l12.64-3.14
			c12.09-3,23.35-9.01,32.58-17.37c0.86-0.78,1.61-1.66,2.25-2.63l7.81-11.91c4.23-6.45,12.42-8.85,19.47-5.69
			c3.01,1.35,5.47,3.56,7.13,6.41l13.31,22.87c0.28,0.48,0.12,1.09-0.36,1.37c-0.48,0.28-1.09,0.12-1.37-0.36L86.42,64.1
			c-1.44-2.48-3.59-4.41-6.21-5.59c-6.15-2.75-13.28-0.66-16.98,4.97l-7.81,11.91c-0.73,1.11-1.59,2.12-2.58,3.01
			c-9.47,8.58-21.04,14.75-33.44,17.83L6.75,99.36C6.67,99.38,6.59,99.39,6.51,99.39z"/>
	</g>
</g>
</svg>
