<?xml version="1.0" encoding="utf-8"?>
<!-- Generator: Adobe Illustrator 22.1.0, SVG Export Plug-In . SVG Version: 6.00 Build 0)  -->
<svg version="1.1" id="Layer_1" xmlns="http://www.w3.org/2000/svg" xmlns:xlink="http://www.w3.org/1999/xlink" x="0px" y="0px"
	 viewBox="0 0 10 10" style="enable-background:new 0 0 10 10;" xml:space="preserve">
<style type="text/css">
	.st0{fill:#79808C;}
</style>
<path class="st0" d="M6.5,5l2.3-2.3c0.3-0.3,0.3-0.7,0-1L8.3,1.2c-0.3-0.3-0.7-0.3-1,0L5,3.5L2.7,1.2c-0.3-0.3-0.7-0.3-1,0L1.2,1.7
	c-0.3,0.3-0.3,0.7,0,1L3.5,5L1.2,7.3c-0.3,0.3-0.3,0.7,0,1l0.5,0.5c0.3,0.3,0.7,0.3,1,0L5,6.5l2.3,2.3c0.3,0.3,0.7,0.3,1,0l0.5-0.5
	c0.3-0.3,0.3-0.7,0-1L6.5,5z"/>
</svg>
