<?xml version="1.0" encoding="utf-8"?>
<!-- Generator: Adobe Illustrator 22.1.0, SVG Export Plug-In . SVG Version: 6.00 Build 0)  -->
<svg version="1.1" id="Layer_1" xmlns="http://www.w3.org/2000/svg" xmlns:xlink="http://www.w3.org/1999/xlink" x="0px" y="0px"
	 viewBox="0 0 106.5 106.5" style="enable-background:new 0 0 106.5 106.5;" xml:space="preserve">
<style type="text/css">
	.st0{fill:#FFFFFF;stroke:#BABABA;stroke-width:3;stroke-miterlimit:10;}
	.st1{fill:none;stroke:#EAEAEA;stroke-width:3;stroke-miterlimit:10;}
	.st2{fill:#72BA97;}
	.st3{fill:#5787FB;}
	.st4{fill:none;stroke:#BABABA;stroke-width:3;stroke-miterlimit:10;}
</style>
<g>
	<rect x="1.5" y="1.5" class="st0" width="103.5" height="103.5"/>
	<line class="st1" x1="70.5" y1="1.5" x2="70.5" y2="105"/>
	<line class="st1" x1="36" y1="1.5" x2="36" y2="105"/>
	<line class="st1" x1="105" y1="36" x2="1.5" y2="36"/>
	<line class="st1" x1="105" y1="70.5" x2="1.5" y2="70.5"/>
	<circle class="st2" cx="15.8" cy="48.4" r="3.5"/>
	<circle class="st2" cx="25.6" cy="52.8" r="3.5"/>
	<circle class="st2" cx="26" cy="43.2" r="3.5"/>
	<circle class="st2" cx="45.6" cy="36" r="3.5"/>
	<circle class="st2" cx="49.1" cy="41.1" r="3.5"/>
	<circle class="st2" cx="39.5" cy="41.5" r="3.5"/>
	<circle class="st2" cx="40.8" cy="44.9" r="3.5"/>
	<circle class="st2" cx="58.2" cy="48.4" r="3.5"/>
	<circle class="st3" cx="21.7" cy="78.9" r="3.5"/>
	<circle class="st3" cx="36" cy="82.4" r="3.5"/>
	<circle class="st3" cx="33" cy="69.2" r="3.5"/>
	<circle class="st3" cx="38.6" cy="72" r="3.5"/>
	<circle class="st3" cx="38.6" cy="61.1" r="3.5"/>
	<circle class="st3" cx="45.2" cy="56.7" r="3.5"/>
	<circle class="st3" cx="47.2" cy="49.8" r="3.5"/>
	<circle class="st3" cx="71.8" cy="35.5" r="3.5"/>
	<circle class="st3" cx="65.2" cy="57.2" r="3.5"/>
	<circle class="st3" cx="53.6" cy="60.7" r="3.5"/>
	<circle class="st3" cx="65.2" cy="40.4" r="3.5"/>
	<circle class="st3" cx="63.3" cy="46.7" r="3.5"/>
	<circle class="st3" cx="78.2" cy="39.5" r="3.5"/>
	<circle class="st3" cx="79.4" cy="35.5" r="3.5"/>
	<circle class="st3" cx="89.9" cy="32.5" r="3.5"/>
	<circle class="st3" cx="89.3" cy="35.5" r="3.5"/>
	<circle class="st3" cx="94.1" cy="32.5" r="3.5"/>
	<circle class="st2" cx="68.3" cy="36" r="3.5"/>
	<circle class="st2" cx="74" cy="43" r="3.5"/>
	<circle class="st2" cx="87.1" cy="44.6" r="3.5"/>
	<circle class="st2" cx="91" cy="19.5" r="3.5"/>
	<circle class="st2" cx="97.1" cy="20.4" r="3.5"/>
	<circle class="st2" cx="99.2" cy="16" r="3.5"/>
	<rect x="1.5" y="1.5" class="st4" width="103.5" height="103.5"/>
</g>
</svg>
