<?xml version="1.0" encoding="utf-8"?>
<!-- Generator: Adobe Illustrator 22.1.0, SVG Export Plug-In . SVG Version: 6.00 Build 0)  -->
<svg version="1.1" id="Layer_1" xmlns="http://www.w3.org/2000/svg" xmlns:xlink="http://www.w3.org/1999/xlink" x="0px" y="0px"
	 viewBox="0 0 25.6 20" style="enable-background:new 0 0 25.6 20;" xml:space="preserve">
<style type="text/css">
	.st0{fill:#FFFFFF;}
	.st1{fill:#BABABA;}
	.st2{fill:#F3F3F3;}
	.st3{fill:#41B879;}
</style>
<g>
	<g>
		<g>
			<polygon class="st0" points="10.4,16.9 19.8,3.1 1,3.1 			"/>
			<path class="st1" d="M10.4,17.2c-0.1,0-0.2-0.1-0.3-0.1L0.7,3.3C0.6,3.2,0.6,3.1,0.7,3C0.7,2.9,0.9,2.8,1,2.8h18.8
				C19.9,2.8,20,2.9,20,3c0.1,0.1,0,0.2,0,0.3l-9.4,13.8C10.6,17.2,10.5,17.2,10.4,17.2z M1.6,3.4l8.8,12.9l8.8-12.9H1.6z"/>
		</g>
	</g>
	<g>
		<polygon class="st2" points="4.1,7.7 16.6,7.7 13.5,12.3 7.2,12.3 		"/>
		<path class="st1" d="M13.5,12.6H7.2c-0.1,0-0.2-0.1-0.3-0.1L3.8,7.9c-0.1-0.1-0.1-0.2,0-0.3C3.9,7.5,4,7.4,4.1,7.4h12.5
			c0.1,0,0.2,0.1,0.3,0.2c0.1,0.1,0,0.2,0,0.3l-3.1,4.6C13.7,12.6,13.6,12.6,13.5,12.6z M7.4,12h5.9L16,8H4.7L7.4,12z"/>
	</g>
	<g>
		<path class="st1" d="M23.6,17h-1.4c-1,0-2-0.5-2.7-1.3c-0.6-0.7-1.4-1.1-2.3-1.1h-6.8c-0.2,0-0.3-0.1-0.3-0.3
			c0-0.2,0.1-0.3,0.3-0.3h6.8c1,0,2,0.5,2.7,1.3c0.6,0.7,1.4,1.1,2.3,1.1h1.4c0.2,0,0.3,0.1,0.3,0.3S23.8,17,23.6,17z"/>
	</g>
	<g>
		<path class="st1" d="M17.2,6h-2.4c-0.2,0-0.3-0.1-0.3-0.3s0.1-0.3,0.3-0.3h2.4c0.8,0,1.6-0.4,2.3-1.1c0.7-0.9,1.7-1.3,2.7-1.3h1.4
			c0.2,0,0.3,0.1,0.3,0.3s-0.1,0.3-0.3,0.3h-1.4c-0.8,0-1.6,0.4-2.3,1.1C19.2,5.5,18.2,6,17.2,6z"/>
	</g>
	<g>
		<path class="st1" d="M23.6,10.3H12.7c-0.2,0-0.3-0.1-0.3-0.3c0-0.2,0.1-0.3,0.3-0.3h10.9c0.2,0,0.3,0.1,0.3,0.3
			C23.9,10.2,23.8,10.3,23.6,10.3z"/>
	</g>
	<g>
		<circle class="st3" cx="23.6" cy="3.2" r="1.3"/>
	</g>
	<g>
		<circle class="st3" cx="23.6" cy="10" r="1.3"/>
	</g>
	<g>
		<circle class="st3" cx="23.6" cy="16.8" r="1.3"/>
	</g>
</g>
</svg>
