<?xml version="1.0" encoding="utf-8"?>
<!-- Generator: Adobe Illustrator 22.1.0, SVG Export Plug-In . SVG Version: 6.00 Build 0)  -->
<svg version="1.1" id="Layer_1" xmlns="http://www.w3.org/2000/svg" xmlns:xlink="http://www.w3.org/1999/xlink" x="0px" y="0px"
	 viewBox="0 0 9.6 10" style="enable-background:new 0 0 9.6 10;" xml:space="preserve">
<style type="text/css">
	.st0{fill:#AEB5B7;}
</style>
<g>
	<path class="st0" d="M5.9,6.9H2.8L2.6,7.6C2.5,7.8,2.5,8,2.4,8.2S2.4,8.5,2.4,8.8c0,0.5,0.3,0.7,0.8,0.8V10H0V9.5
		c0.2,0,0.3-0.1,0.5-0.2c0.1-0.1,0.3-0.3,0.4-0.4C1,8.7,1.1,8.4,1.2,8.1l3-8.1h1.9l2.4,8.2c0.1,0.4,0.2,0.6,0.3,0.8
		C8.9,9.1,9,9.2,9.1,9.3c0.1,0.1,0.3,0.2,0.5,0.2V10h-4V9.5c0.3,0,0.4-0.1,0.6-0.2S6.4,9,6.4,8.8c0-0.2,0-0.3-0.1-0.5
		c0-0.2-0.1-0.4-0.2-0.7L5.9,6.9z M3.1,6.1h2.6L4.6,2L3.1,6.1z"/>
</g>
</svg>
