<?xml version="1.0" encoding="utf-8"?>
<!-- Generator: Adobe Illustrator 23.0.1, SVG Export Plug-In . SVG Version: 6.00 Build 0)  -->
<svg version="1.1" id="Layer_1" xmlns="http://www.w3.org/2000/svg" xmlns:xlink="http://www.w3.org/1999/xlink" x="0px" y="0px"
	 viewBox="0 0 108 108" style="enable-background:new 0 0 108 108;" xml:space="preserve">
<style type="text/css">
	.st0{fill:#FFFFFF;}
	.st1{fill:#BABABA;}
	.st2{fill:#EAEAEA;}
	.st3{fill:#72BA97;}
	.st4{fill:#5787FB;}
</style>
<g>
	<g>
		<rect x="1.5" y="1.5" class="st0" width="105" height="105"/>
		<path class="st1" d="M108,108H0V0h108V108z M3,105h102V3H3V105z"/>
	</g>
	<g>
		<rect x="70" y="1.5" class="st2" width="3" height="105"/>
	</g>
	<g>
		<rect x="35" y="1.5" class="st2" width="3" height="105"/>
	</g>
	<g>
		<rect x="1.5" y="35" class="st2" width="105" height="3"/>
	</g>
	<g>
		<rect x="1.5" y="70" class="st2" width="105" height="3"/>
	</g>
	<g>
		<g>
			<circle class="st0" cx="17.66" cy="33.23" r="3.55"/>
			<path class="st3" d="M17.66,37.28c-2.23,0-4.05-1.82-4.05-4.05c0-2.23,1.82-4.05,4.05-4.05s4.05,1.82,4.05,4.05
				C21.71,35.46,19.89,37.28,17.66,37.28z M17.66,30.19c-1.68,0-3.05,1.37-3.05,3.05c0,1.68,1.37,3.05,3.05,3.05
				s3.05-1.37,3.05-3.05C20.71,31.55,19.34,30.19,17.66,30.19z"/>
		</g>
		<g>
			<circle class="st0" cx="20.39" cy="40.33" r="3.55"/>
			<path class="st3" d="M20.4,44.37c-2.23,0-4.05-1.82-4.05-4.05c0-2.23,1.82-4.05,4.05-4.05c2.23,0,4.05,1.82,4.05,4.05
				C24.44,42.56,22.63,44.37,20.4,44.37z M20.4,37.28c-1.68,0-3.05,1.37-3.05,3.05c0,1.68,1.37,3.05,3.05,3.05
				c1.68,0,3.05-1.37,3.05-3.05C23.44,38.65,22.07,37.28,20.4,37.28z"/>
		</g>
		<g>
			<circle class="st0" cx="21.2" cy="44.55" r="3.55"/>
			<path class="st3" d="M21.21,48.6c-2.23,0-4.05-1.82-4.05-4.05c0-2.23,1.82-4.05,4.05-4.05c2.23,0,4.05,1.82,4.05,4.05
				C25.25,46.78,23.44,48.6,21.21,48.6z M21.21,41.51c-1.68,0-3.05,1.37-3.05,3.05c0,1.68,1.37,3.05,3.05,3.05
				c1.68,0,3.05-1.37,3.05-3.05C24.25,42.87,22.88,41.51,21.21,41.51z"/>
		</g>
		<g>
			<circle class="st0" cx="21.2" cy="48.84" r="3.55"/>
			<path class="st3" d="M21.21,52.89c-2.23,0-4.05-1.82-4.05-4.05c0-2.23,1.82-4.05,4.05-4.05c2.23,0,4.05,1.82,4.05,4.05
				C25.25,51.07,23.44,52.89,21.21,52.89z M21.21,45.8c-1.68,0-3.05,1.37-3.05,3.05c0,1.68,1.37,3.05,3.05,3.05
				c1.68,0,3.05-1.37,3.05-3.05C24.25,47.16,22.88,45.8,21.21,45.8z"/>
		</g>
		<g>
			<circle class="st0" cx="19.16" cy="36.78" r="3.55"/>
			<path class="st3" d="M19.16,40.83c-2.23,0-4.05-1.82-4.05-4.05s1.82-4.05,4.05-4.05c2.23,0,4.05,1.82,4.05,4.05
				S21.39,40.83,19.16,40.83z M19.16,33.73c-1.68,0-3.05,1.37-3.05,3.05s1.37,3.05,3.05,3.05c1.68,0,3.05-1.37,3.05-3.05
				S20.84,33.73,19.16,33.73z"/>
		</g>
		<g>
			<circle class="st0" cx="34.53" cy="38.63" r="3.55"/>
			<path class="st3" d="M34.53,42.68c-2.23,0-4.05-1.82-4.05-4.05c0-2.23,1.82-4.05,4.05-4.05c2.23,0,4.05,1.82,4.05,4.05
				C38.57,40.87,36.76,42.68,34.53,42.68z M34.53,35.59c-1.68,0-3.05,1.37-3.05,3.05c0,1.68,1.37,3.05,3.05,3.05
				c1.68,0,3.05-1.37,3.05-3.05C37.57,36.95,36.21,35.59,34.53,35.59z"/>
		</g>
		<g>
			<circle class="st0" cx="38.07" cy="42.66" r="3.55"/>
			<path class="st3" d="M38.07,46.71c-2.23,0-4.05-1.82-4.05-4.05c0-2.23,1.82-4.05,4.05-4.05c2.23,0,4.05,1.82,4.05,4.05
				C42.12,44.89,40.31,46.71,38.07,46.71z M38.07,39.62c-1.68,0-3.05,1.37-3.05,3.05c0,1.68,1.37,3.05,3.05,3.05
				c1.68,0,3.05-1.37,3.05-3.05C41.12,40.98,39.75,39.62,38.07,39.62z"/>
		</g>
		<g>
			<circle class="st0" cx="30.98" cy="30.85" r="3.55"/>
			<path class="st3" d="M30.98,34.9c-2.23,0-4.05-1.82-4.05-4.05c0-2.23,1.82-4.05,4.05-4.05c2.23,0,4.05,1.82,4.05,4.05
				C35.03,33.08,33.21,34.9,30.98,34.9z M30.98,27.81c-1.68,0-3.05,1.37-3.05,3.05c0,1.68,1.37,3.05,3.05,3.05
				c1.68,0,3.05-1.37,3.05-3.05C34.03,29.17,32.66,27.81,30.98,27.81z"/>
		</g>
		<g>
			<circle class="st0" cx="32.84" cy="35.01" r="3.55"/>
			<path class="st3" d="M32.84,39.05c-2.23,0-4.05-1.82-4.05-4.05c0-2.23,1.82-4.05,4.05-4.05c2.23,0,4.05,1.82,4.05,4.05
				C36.88,37.24,35.07,39.05,32.84,39.05z M32.84,31.96c-1.68,0-3.05,1.37-3.05,3.05c0,1.68,1.37,3.05,3.05,3.05
				c1.68,0,3.05-1.37,3.05-3.05C35.88,33.33,34.52,31.96,32.84,31.96z"/>
		</g>
		<g>
			<circle class="st0" cx="39.93" cy="39.34" r="3.55"/>
			<path class="st3" d="M39.93,43.38c-2.23,0-4.05-1.82-4.05-4.05c0-2.23,1.82-4.05,4.05-4.05c2.23,0,4.05,1.82,4.05,4.05
				C43.98,41.57,42.16,43.38,39.93,43.38z M39.93,36.29c-1.68,0-3.05,1.37-3.05,3.05c0,1.68,1.37,3.05,3.05,3.05
				c1.68,0,3.05-1.37,3.05-3.05C42.98,37.66,41.61,36.29,39.93,36.29z"/>
		</g>
		<g>
			<circle class="st0" cx="43.48" cy="43.37" r="3.55"/>
			<path class="st3" d="M43.48,47.41c-2.23,0-4.05-1.82-4.05-4.05c0-2.23,1.82-4.05,4.05-4.05c2.23,0,4.05,1.82,4.05,4.05
				C47.52,45.6,45.71,47.41,43.48,47.41z M43.48,40.32c-1.68,0-3.05,1.37-3.05,3.05c0,1.68,1.37,3.05,3.05,3.05
				c1.68,0,3.05-1.37,3.05-3.05C46.52,41.69,45.16,40.32,43.48,40.32z"/>
		</g>
		<g>
			<circle class="st0" cx="36.38" cy="31.55" r="3.55"/>
			<path class="st3" d="M36.38,35.6c-2.23,0-4.05-1.82-4.05-4.05c0-2.23,1.82-4.05,4.05-4.05c2.23,0,4.05,1.82,4.05,4.05
				C40.43,33.79,38.62,35.6,36.38,35.6z M36.38,28.51c-1.68,0-3.05,1.37-3.05,3.05c0,1.68,1.37,3.05,3.05,3.05
				c1.68,0,3.05-1.37,3.05-3.05C39.43,29.87,38.06,28.51,36.38,28.51z"/>
		</g>
		<g>
			<circle class="st0" cx="38.24" cy="35.71" r="3.55"/>
			<path class="st3" d="M38.24,39.76c-2.23,0-4.05-1.82-4.05-4.05c0-2.23,1.82-4.05,4.05-4.05c2.23,0,4.05,1.82,4.05,4.05
				C42.29,37.94,40.47,39.76,38.24,39.76z M38.24,32.66c-1.68,0-3.05,1.37-3.05,3.05c0,1.68,1.37,3.05,3.05,3.05
				c1.68,0,3.05-1.37,3.05-3.05C41.29,34.03,39.92,32.66,38.24,32.66z"/>
		</g>
		<g>
			<circle class="st0" cx="51.7" cy="28.01" r="3.55"/>
			<path class="st3" d="M51.7,32.05c-2.23,0-4.05-1.82-4.05-4.05c0-2.23,1.82-4.05,4.05-4.05s4.05,1.82,4.05,4.05
				C55.74,30.24,53.93,32.05,51.7,32.05z M51.7,24.96c-1.68,0-3.05,1.37-3.05,3.05c0,1.68,1.37,3.05,3.05,3.05s3.05-1.37,3.05-3.05
				C54.74,26.33,53.38,24.96,51.7,24.96z"/>
		</g>
		<g>
			<circle class="st0" cx="54.2" cy="31.46" r="3.55"/>
			<path class="st3" d="M54.2,35.51c-2.23,0-4.05-1.82-4.05-4.05s1.82-4.05,4.05-4.05c2.23,0,4.05,1.82,4.05,4.05
				S56.43,35.51,54.2,35.51z M54.2,28.41c-1.68,0-3.05,1.37-3.05,3.05s1.37,3.05,3.05,3.05c1.68,0,3.05-1.37,3.05-3.05
				S55.88,28.41,54.2,28.41z"/>
		</g>
		<g>
			<circle class="st0" cx="56.45" cy="35.71" r="3.55"/>
			<path class="st3" d="M56.45,39.76c-2.23,0-4.05-1.82-4.05-4.05c0-2.23,1.82-4.05,4.05-4.05s4.05,1.82,4.05,4.05
				C60.5,37.94,58.68,39.76,56.45,39.76z M56.45,32.66c-1.68,0-3.05,1.37-3.05,3.05c0,1.68,1.37,3.05,3.05,3.05s3.05-1.37,3.05-3.05
				C59.5,34.03,58.13,32.66,56.45,32.66z"/>
		</g>
		<g>
			<circle class="st0" cx="57.74" cy="40.33" r="3.55"/>
			<path class="st3" d="M57.74,44.37c-2.23,0-4.05-1.82-4.05-4.05c0-2.23,1.82-4.05,4.05-4.05c2.23,0,4.05,1.82,4.05,4.05
				C61.79,42.56,59.97,44.37,57.74,44.37z M57.74,37.28c-1.68,0-3.05,1.37-3.05,3.05c0,1.68,1.37,3.05,3.05,3.05
				c1.68,0,3.05-1.37,3.05-3.05C60.79,38.65,59.42,37.28,57.74,37.28z"/>
		</g>
		<g>
			<circle class="st0" cx="61.29" cy="43.87" r="3.55"/>
			<path class="st3" d="M61.29,47.92c-2.23,0-4.05-1.82-4.05-4.05c0-2.23,1.82-4.05,4.05-4.05c2.23,0,4.05,1.82,4.05,4.05
				C65.34,46.1,63.52,47.92,61.29,47.92z M61.29,40.83c-1.68,0-3.05,1.37-3.05,3.05c0,1.68,1.37,3.05,3.05,3.05
				c1.68,0,3.05-1.37,3.05-3.05C64.34,42.19,62.97,40.83,61.29,40.83z"/>
		</g>
		<g>
			<circle class="st0" cx="62.78" cy="39.82" r="3.55"/>
			<path class="st3" d="M62.78,43.87c-2.23,0-4.05-1.82-4.05-4.05c0-2.23,1.82-4.05,4.05-4.05c2.23,0,4.05,1.82,4.05,4.05
				C66.83,42.05,65.01,43.87,62.78,43.87z M62.78,36.77c-1.68,0-3.05,1.37-3.05,3.05c0,1.68,1.37,3.05,3.05,3.05
				c1.68,0,3.05-1.37,3.05-3.05C65.83,38.14,64.46,36.77,62.78,36.77z"/>
		</g>
		<g>
			<circle class="st0" cx="61.29" cy="35.1" r="3.55"/>
			<path class="st3" d="M61.29,39.15c-2.23,0-4.05-1.82-4.05-4.05s1.82-4.05,4.05-4.05c2.23,0,4.05,1.82,4.05,4.05
				S63.52,39.15,61.29,39.15z M61.29,32.05c-1.68,0-3.05,1.37-3.05,3.05s1.37,3.05,3.05,3.05c1.68,0,3.05-1.37,3.05-3.05
				S62.97,32.05,61.29,32.05z"/>
		</g>
		<g>
			<circle class="st0" cx="56.49" cy="26.14" r="3.55"/>
			<path class="st3" d="M56.49,30.19c-2.23,0-4.05-1.82-4.05-4.05c0-2.23,1.82-4.05,4.05-4.05c2.23,0,4.05,1.82,4.05,4.05
				C60.54,28.37,58.72,30.19,56.49,30.19z M56.49,23.09c-1.68,0-3.05,1.37-3.05,3.05c0,1.68,1.37,3.05,3.05,3.05
				c1.68,0,3.05-1.37,3.05-3.05C59.54,24.46,58.17,23.09,56.49,23.09z"/>
		</g>
		<g>
			<circle class="st0" cx="58.99" cy="29.59" r="3.55"/>
			<path class="st3" d="M58.99,33.64c-2.23,0-4.05-1.82-4.05-4.05c0-2.23,1.82-4.05,4.05-4.05c2.23,0,4.05,1.82,4.05,4.05
				C63.04,31.82,61.22,33.64,58.99,33.64z M58.99,26.55c-1.68,0-3.05,1.37-3.05,3.05c0,1.68,1.37,3.05,3.05,3.05
				c1.68,0,3.05-1.37,3.05-3.05C62.04,27.91,60.67,26.55,58.99,26.55z"/>
		</g>
		<g>
			<circle class="st0" cx="66.09" cy="33.23" r="3.55"/>
			<path class="st3" d="M66.09,37.28c-2.23,0-4.05-1.82-4.05-4.05c0-2.23,1.82-4.05,4.05-4.05s4.05,1.82,4.05,4.05
				C70.13,35.46,68.32,37.28,66.09,37.28z M66.09,30.19c-1.68,0-3.05,1.37-3.05,3.05c0,1.68,1.37,3.05,3.05,3.05
				c1.68,0,3.05-1.37,3.05-3.05C69.13,31.55,67.77,30.19,66.09,30.19z"/>
		</g>
		<g>
			<circle class="st0" cx="74.2" cy="21.45" r="3.55"/>
			<path class="st3" d="M74.2,25.49c-2.23,0-4.05-1.82-4.05-4.05c0-2.23,1.82-4.05,4.05-4.05c2.23,0,4.05,1.82,4.05,4.05
				C78.25,23.68,76.43,25.49,74.2,25.49z M74.2,18.4c-1.68,0-3.05,1.37-3.05,3.05c0,1.68,1.37,3.05,3.05,3.05s3.05-1.37,3.05-3.05
				C77.25,19.77,75.88,18.4,74.2,18.4z"/>
		</g>
		<g>
			<circle class="st0" cx="87.34" cy="33.23" r="3.55"/>
			<path class="st3" d="M87.34,37.28c-2.23,0-4.05-1.82-4.05-4.05c0-2.23,1.82-4.05,4.05-4.05c2.23,0,4.05,1.82,4.05,4.05
				C91.39,35.46,89.57,37.28,87.34,37.28z M87.34,30.19c-1.68,0-3.05,1.37-3.05,3.05c0,1.68,1.37,3.05,3.05,3.05
				s3.05-1.37,3.05-3.05C90.39,31.55,89.02,30.19,87.34,30.19z"/>
		</g>
		<g>
			<circle class="st0" cx="76.73" cy="24.99" r="3.55"/>
			<path class="st3" d="M76.73,29.04c-2.23,0-4.05-1.82-4.05-4.05c0-2.23,1.82-4.05,4.05-4.05s4.05,1.82,4.05,4.05
				C80.78,27.22,78.97,29.04,76.73,29.04z M76.73,21.95c-1.68,0-3.05,1.37-3.05,3.05c0,1.68,1.37,3.05,3.05,3.05
				s3.05-1.37,3.05-3.05C79.78,23.31,78.41,21.95,76.73,21.95z"/>
		</g>
		<g>
			<circle class="st0" cx="78.52" cy="29.59" r="3.55"/>
			<path class="st3" d="M78.52,33.64c-2.23,0-4.05-1.82-4.05-4.05c0-2.23,1.82-4.05,4.05-4.05c2.23,0,4.05,1.82,4.05,4.05
				C82.57,31.82,80.75,33.64,78.52,33.64z M78.52,26.55c-1.68,0-3.05,1.37-3.05,3.05c0,1.68,1.37,3.05,3.05,3.05
				s3.05-1.37,3.05-3.05C81.57,27.91,80.2,26.55,78.52,26.55z"/>
		</g>
		<g>
			<circle class="st0" cx="81.29" cy="32.73" r="3.55"/>
			<path class="st3" d="M81.29,36.77c-2.23,0-4.05-1.82-4.05-4.05s1.82-4.05,4.05-4.05s4.05,1.82,4.05,4.05S83.52,36.77,81.29,36.77
				z M81.29,29.68c-1.68,0-3.05,1.37-3.05,3.05s1.37,3.05,3.05,3.05s3.05-1.37,3.05-3.05S82.97,29.68,81.29,29.68z"/>
		</g>
		<g>
			<circle class="st0" cx="83.32" cy="37.07" r="3.55"/>
			<path class="st3" d="M83.32,41.12c-2.23,0-4.05-1.82-4.05-4.05c0-2.23,1.82-4.05,4.05-4.05c2.23,0,4.05,1.82,4.05,4.05
				C87.36,39.3,85.55,41.12,83.32,41.12z M83.32,34.03c-1.68,0-3.05,1.37-3.05,3.05c0,1.68,1.37,3.05,3.05,3.05s3.05-1.37,3.05-3.05
				C86.36,35.39,85,34.03,83.32,34.03z"/>
		</g>
		<g>
			<circle class="st0" cx="79.67" cy="21.25" r="3.55"/>
			<path class="st3" d="M79.67,25.3c-2.23,0-4.05-1.82-4.05-4.05c0-2.23,1.82-4.05,4.05-4.05c2.23,0,4.05,1.82,4.05,4.05
				C83.72,23.48,81.9,25.3,79.67,25.3z M79.67,18.21c-1.68,0-3.05,1.37-3.05,3.05c0,1.68,1.37,3.05,3.05,3.05s3.05-1.37,3.05-3.05
				C82.72,19.57,81.35,18.21,79.67,18.21z"/>
		</g>
		<g>
			<circle class="st0" cx="82.44" cy="24.38" r="3.55"/>
			<path class="st3" d="M82.44,28.43c-2.23,0-4.05-1.82-4.05-4.05c0-2.23,1.82-4.05,4.05-4.05s4.05,1.82,4.05,4.05
				C86.49,26.62,84.67,28.43,82.44,28.43z M82.44,21.34c-1.68,0-3.05,1.37-3.05,3.05c0,1.68,1.37,3.05,3.05,3.05
				s3.05-1.37,3.05-3.05C85.49,22.7,84.12,21.34,82.44,21.34z"/>
		</g>
		<g>
			<circle class="st0" cx="88.39" cy="24.46" r="3.55"/>
			<path class="st3" d="M88.39,28.51c-2.23,0-4.05-1.82-4.05-4.05c0-2.23,1.82-4.05,4.05-4.05c2.23,0,4.05,1.82,4.05,4.05
				C92.43,26.69,90.62,28.51,88.39,28.51z M88.39,21.41c-1.68,0-3.05,1.37-3.05,3.05c0,1.68,1.37,3.05,3.05,3.05
				s3.05-1.37,3.05-3.05C91.43,22.78,90.07,21.41,88.39,21.41z"/>
		</g>
		<g>
			<circle class="st0" cx="90.41" cy="29.18" r="3.55"/>
			<path class="st3" d="M90.41,33.23c-2.23,0-4.05-1.82-4.05-4.05c0-2.23,1.82-4.05,4.05-4.05s4.05,1.82,4.05,4.05
				C94.46,31.41,92.64,33.23,90.41,33.23z M90.41,26.13c-1.68,0-3.05,1.37-3.05,3.05c0,1.68,1.37,3.05,3.05,3.05
				s3.05-1.37,3.05-3.05C93.46,27.5,92.09,26.13,90.41,26.13z"/>
		</g>
		<g>
			<circle class="st0" cx="92.45" cy="34.66" r="3.55"/>
			<path class="st3" d="M92.45,38.7c-2.23,0-4.05-1.82-4.05-4.05c0-2.23,1.82-4.05,4.05-4.05s4.05,1.82,4.05,4.05
				C96.5,36.89,94.68,38.7,92.45,38.7z M92.45,31.61c-1.68,0-3.05,1.37-3.05,3.05c0,1.68,1.37,3.05,3.05,3.05s3.05-1.37,3.05-3.05
				C95.5,32.98,94.13,31.61,92.45,31.61z"/>
		</g>
		<g>
			<circle class="st0" cx="84.47" cy="28.73" r="3.55"/>
			<path class="st3" d="M84.47,32.78c-2.23,0-4.05-1.82-4.05-4.05c0-2.23,1.82-4.05,4.05-4.05c2.23,0,4.05,1.82,4.05,4.05
				C88.51,30.96,86.7,32.78,84.47,32.78z M84.47,25.69c-1.68,0-3.05,1.37-3.05,3.05c0,1.68,1.37,3.05,3.05,3.05s3.05-1.37,3.05-3.05
				C87.51,27.05,86.15,25.69,84.47,25.69z"/>
		</g>
		<g>
			<circle class="st0" cx="88.39" cy="38.2" r="3.55"/>
			<path class="st3" d="M88.39,42.25c-2.23,0-4.05-1.82-4.05-4.05c0-2.23,1.82-4.05,4.05-4.05c2.23,0,4.05,1.82,4.05,4.05
				C92.43,40.43,90.62,42.25,88.39,42.25z M88.39,35.16c-1.68,0-3.05,1.37-3.05,3.05c0,1.68,1.37,3.05,3.05,3.05
				s3.05-1.37,3.05-3.05C91.43,36.52,90.07,35.16,88.39,35.16z"/>
		</g>
	</g>
	<g>
		<path class="st1" d="M108,108H0V0h108V108z M3,105h102V3H3V105z"/>
	</g>
	<g>
		<path class="st4" d="M9.26,43.88c-0.44,0-0.85-0.29-0.97-0.74C8.15,42.61,8.47,42.06,9,41.92l37.76-10.16
			c0.06-0.02,0.13-0.03,0.2-0.03l50.06-3.04c0.55-0.03,1.03,0.39,1.06,0.94s-0.39,1.03-0.94,1.06l-49.95,3.03L9.52,43.85
			C9.44,43.87,9.35,43.88,9.26,43.88z"/>
	</g>
</g>
</svg>
