<?xml version="1.0" encoding="utf-8"?>
<!-- Generator: Adobe Illustrator 23.0.1, SVG Export Plug-In . SVG Version: 6.00 Build 0)  -->
<svg version="1.1" id="Layer_1" xmlns="http://www.w3.org/2000/svg" xmlns:xlink="http://www.w3.org/1999/xlink" x="0px" y="0px"
	 viewBox="0 0 12.37 8.38" style="enable-background:new 0 0 12.37 8.38;" xml:space="preserve">
<style type="text/css">
	.st0{fill:#AEDF1D;}
	.st1{fill:#41B879;}
	.st2{fill:#E2E2E2;}
</style>
<g>
	<path class="st0" d="M0.16,0.81C0.25,0.7,0.33,0.6,0.43,0.5c0.1-0.1,0.21-0.19,0.34-0.26C0.9,0.16,1.04,0.11,1.2,0.06
		C1.36,0.02,1.54,0,1.74,0c0.25,0,0.48,0.03,0.68,0.1c0.2,0.07,0.37,0.16,0.51,0.27C3.07,0.49,3.18,0.63,3.26,0.8
		c0.08,0.17,0.12,0.35,0.12,0.55v0.08c0,0.1-0.01,0.22-0.04,0.34C3.32,1.88,3.27,2,3.21,2.11C3.14,2.22,3.05,2.32,2.94,2.42
		C2.83,2.51,2.7,2.59,2.53,2.65C2.9,2.72,3.17,2.86,3.35,3.09s0.27,0.5,0.27,0.81v0.11c0,0.2-0.04,0.39-0.11,0.58
		c-0.07,0.19-0.19,0.36-0.34,0.5C3.03,5.24,2.83,5.36,2.59,5.45C2.35,5.53,2.06,5.58,1.73,5.58c-0.32,0-0.62-0.05-0.91-0.15
		C0.53,5.33,0.25,5.18,0,4.98l0.37-0.59c0.26,0.19,0.5,0.32,0.71,0.4S1.5,4.9,1.73,4.9c0.2,0,0.37-0.02,0.51-0.07
		c0.15-0.05,0.26-0.11,0.36-0.19C2.7,4.56,2.77,4.47,2.82,4.36c0.05-0.11,0.07-0.22,0.07-0.34v-0.1c0-0.18-0.03-0.33-0.09-0.45
		C2.74,3.36,2.66,3.26,2.56,3.19S2.34,3.07,2.2,3.04C2.07,3.01,1.92,3,1.76,3H1.1V2.35h0.64c0.17,0,0.31-0.03,0.43-0.08
		c0.12-0.05,0.21-0.12,0.28-0.21c0.07-0.08,0.12-0.18,0.15-0.29c0.03-0.11,0.05-0.22,0.05-0.34V1.37c0-0.12-0.02-0.22-0.07-0.31
		C2.52,0.98,2.46,0.9,2.38,0.84C2.3,0.78,2.21,0.74,2.09,0.71C1.98,0.68,1.87,0.66,1.75,0.66c-0.22,0-0.42,0.04-0.59,0.13
		C1,0.87,0.84,1.01,0.7,1.2L0.16,0.81z"/>
	<path class="st1" d="M4.29,4.53h1.28v1.31H4.29V4.53z"/>
	<path class="st0" d="M6.95,5.5V0.95L5.68,1.71L5.33,1.1l1.74-1.02h0.62V5.5H6.95z"/>
	<path class="st0" d="M11.6,2.04V3.7h0.77v0.63H11.6V5.5h-0.74V4.33h-2.7V3.78l2.55-3.69h0.82L9.03,3.7h1.83V2.04H11.6z"/>
	<rect x="0.21" y="7.76" class="st2" width="12.16" height="0.62"/>
</g>
</svg>
