<?xml version="1.0" encoding="utf-8"?>
<!-- Generator: Adobe Illustrator 22.1.0, SVG Export Plug-In . SVG Version: 6.00 Build 0)  -->
<svg version="1.1" id="Layer_1" xmlns="http://www.w3.org/2000/svg" xmlns:xlink="http://www.w3.org/1999/xlink" x="0px" y="0px"
	 viewBox="0 0 12.5 10" style="enable-background:new 0 0 12.5 10;" xml:space="preserve">
<style type="text/css">
	.st0{fill:#FFFFFF;}
</style>
<path class="st0" d="M6.2,5.5L2,9.8c-0.3,0.3-0.8,0.3-1.1,0L0.2,9.1c-0.3-0.3-0.3-0.8,0-1.1l3-3l-3-3c-0.3-0.3-0.3-0.8,0-1.1
	l0.7-0.7c0.3-0.3,0.8-0.3,1.1,0l4.2,4.2C6.5,4.8,6.5,5.2,6.2,5.5z M12.2,4.5L8,0.2c-0.3-0.3-0.8-0.3-1.1,0L6.2,0.9
	C5.9,1.2,5.9,1.7,6.2,2l3,3l-3,3c-0.3,0.3-0.3,0.8,0,1.1l0.7,0.7c0.3,0.3,0.8,0.3,1.1,0l4.2-4.2C12.5,5.2,12.5,4.8,12.2,4.5
	L12.2,4.5z"/>
</svg>
